<?xml version="1.0" encoding="UTF-8" standalone="no"?>
<!-- Created with Inkscape (http://www.inkscape.org/) -->

<svg
   xmlns:dc="http://purl.org/dc/elements/1.1/"
   xmlns:cc="http://creativecommons.org/ns#"
   xmlns:rdf="http://www.w3.org/1999/02/22-rdf-syntax-ns#"
   xmlns:svg="http://www.w3.org/2000/svg"
   xmlns="http://www.w3.org/2000/svg"
   xmlns:sodipodi="http://sodipodi.sourceforge.net/DTD/sodipodi-0.dtd"
   xmlns:inkscape="http://www.inkscape.org/namespaces/inkscape"
   width="1052.36"
   height="481.09"
   id="svg5602"
   version="1.1"
   inkscape:version="0.48.4 r9939"
   sodipodi:docname="testlogoweb2.svg">
  <defs
     id="defs5604" />
  <sodipodi:namedview
     id="base"
     pagecolor="#ffffff"
     bordercolor="#666666"
     borderopacity="1.0"
     inkscape:pageopacity="0.0"
     inkscape:pageshadow="2"
     inkscape:zoom="1.4"
     inkscape:cx="412.73898"
     inkscape:cy="151.86986"
     inkscape:document-units="px"
     inkscape:current-layer="layer1"
     showgrid="false"
     inkscape:window-width="2556"
     inkscape:window-height="1385"
     inkscape:window-x="0"
     inkscape:window-y="53"
     inkscape:window-maximized="0" />
  <metadata
     id="metadata5607">
    <rdf:RDF>
      <cc:Work
         rdf:about="">
        <dc:format>image/svg+xml</dc:format>
        <dc:type
           rdf:resource="http://purl.org/dc/dcmitype/StillImage" />
        <dc:title />
      </cc:Work>
    </rdf:RDF>
  </metadata>
  <g
     inkscape:label="Layer 1"
     inkscape:groupmode="layer"
     id="layer1"
     transform="translate(0,-571.27916)">
    <g
       id="g3844"
       transform="matrix(1.2244407,0,0,1.2244407,304.95529,-349.62694)">
      <path
         transform="matrix(0.48214581,0,0,0.48214581,51.65929,700.34087)"
         sodipodi:open="true"
         sodipodi:end="0.066324145"
         sodipodi:start="0"
         d="m 324.25898,407.88486 c 0,0.0223 -0.0319,0.0447 -0.0955,0.067"
         sodipodi:ry="1.0101526"
         sodipodi:rx="43.436558"
         sodipodi:cy="407.88486"
         sodipodi:cx="280.82242"
         id="path3099-4"
         style="opacity:0.5;fill:#ffffff;fill-opacity:0.53142856;stroke:#000000;stroke-width:1;stroke-miterlimit:4;stroke-opacity:1;stroke-dasharray:none;stroke-dashoffset:0"
         sodipodi:type="arc" />
      <path
         sodipodi:open="true"
         sodipodi:end="10.285132"
         sodipodi:start="5.3830654"
         transform="matrix(0.38422098,-0.38422098,0.38422098,0.38422098,14.17187,894.35538)"
         d="m 417.95029,156.87068 c 141.1682,26.69888 164.81646,75.62383 52.81985,109.27693 -111.99661,33.6531 -317.22724,39.29061 -458.395446,12.59173 -141.168204,-26.69888 -164.816454,-75.62383 -52.81985,-109.27693 12.831054,-3.85552 27.168133,-7.41203 42.8183844,-10.62168"
         sodipodi:ry="77.781746"
         sodipodi:rx="326.27927"
         sodipodi:cy="217.80501"
         sodipodi:cx="215.16249"
         id="path3818"
         style="fill:none;stroke:#ffffff;stroke-width:5.89400005;stroke-linecap:round;stroke-miterlimit:4;stroke-opacity:1;stroke-dasharray:none;stroke-dashoffset:0"
         sodipodi:type="arc" />
      <path
         transform="matrix(0.49487397,0,0,0.4748603,37.627587,702.57673)"
         d="m 544.47221,418.99655 c 0,135.56772 -109.89934,245.46707 -245.46705,245.46707 -135.56771,0 -245.467059,-109.89935 -245.467059,-245.46707 0,-135.56772 109.899349,-245.46707 245.467059,-245.46707 135.56771,0 245.46705,109.89935 245.46705,245.46707 z"
         sodipodi:ry="245.46707"
         sodipodi:rx="245.46706"
         sodipodi:cy="418.99655"
         sodipodi:cx="299.00516"
         id="path3097-5"
         style="fill:#bb3e3e;fill-opacity:0;stroke:#bb3e3e;stroke-width:8.9671793;stroke-miterlimit:4;stroke-opacity:1;stroke-dasharray:none;stroke-dashoffset:0"
         sodipodi:type="arc" />
      <path
         inkscape:transform-center-y="1.3183339"
         inkscape:transform-center-x="0.64197076"
         sodipodi:nodetypes="cc"
         inkscape:connector-curvature="0"
         id="path4283"
         d="m 283.84142,837.92664 3.45268,-5.21243"
         style="fill:#001919;fill-opacity:0.6745098;stroke:#ffffff;stroke-width:3.18034101;stroke-linecap:butt;stroke-linejoin:miter;stroke-miterlimit:4;stroke-opacity:1;stroke-dasharray:none" />
      <path
         inkscape:transform-center-y="-0.68356005"
         inkscape:transform-center-x="-1.5379812"
         sodipodi:nodetypes="cc"
         inkscape:connector-curvature="0"
         id="path4283-8"
         d="m 118.21108,1001.8976 5.50904,-3.64662"
         style="fill:#001919;fill-opacity:0.6745098;stroke:#ffffff;stroke-width:3.18034101;stroke-linecap:butt;stroke-linejoin:miter;stroke-miterlimit:4;stroke-opacity:1;stroke-dasharray:none" />
      <path
         transform="matrix(0.48912119,0,0,0.48322593,68.359778,677.05608)"
         d="m 344.46202,484.48529 c 0,15.06308 -12.21104,27.27412 -27.27412,27.27412 -15.06308,0 -27.27412,-12.21104 -27.27412,-27.27412 0,-15.06308 12.21104,-27.27412 27.27412,-27.27412 15.06308,0 27.27412,12.21104 27.27412,27.27412 z"
         sodipodi:ry="27.274118"
         sodipodi:rx="27.274118"
         sodipodi:cy="484.48529"
         sodipodi:cx="317.1879"
         id="path3816"
         style="fill:#cd543e;fill-opacity:1;stroke:#bb3e30;stroke-width:5.89400005;stroke-linecap:round;stroke-miterlimit:4;stroke-opacity:0;stroke-dasharray:none;stroke-dashoffset:0"
         sodipodi:type="arc" />
      <path
         inkscape:connector-curvature="0"
         id="path5771"
         d="m 223.99388,927.95014 c -4.65433,0 -8.54505,-1.56356 -11.67215,-4.69068 -3.12713,-3.14166 -4.69069,-7.03237 -4.69069,-11.67216 0,-4.6543 1.56356,-8.54501 4.69069,-11.67216 3.1271,-3.12708 7.01782,-4.69065 11.67215,-4.69068 4.6543,3e-5 8.54501,1.5636 11.67217,4.69068 3.12708,3.12715 4.69064,7.01786 4.69067,11.67216 -3e-5,4.65433 -1.56359,8.54505 -4.69067,11.67216 -3.12716,3.12712 -7.01787,4.69068 -11.67217,4.69068 m 0.0219,-6.10879 c 2.89437,10e-6 5.25062,-0.98177 7.06874,-2.94531 1.81807,-1.96354 2.72712,-4.39978 2.72715,-7.30874 -3e-5,-2.90892 -0.90908,-5.34516 -2.72715,-7.30874 -1.81812,-1.9635 -4.1889,-2.94528 -7.11238,-2.9453 -2.89442,2e-5 -5.25066,0.9818 -7.06875,2.9453 -1.81809,1.96358 -2.72715,4.39982 -2.72714,7.30874 -1e-5,2.90896 0.90905,5.3452 2.72714,7.30874 1.81809,1.96354 4.18887,2.94532 7.11239,2.94531"
         style="font-size:53.38720703px;font-style:normal;font-variant:normal;font-weight:bold;font-stretch:normal;line-height:125%;letter-spacing:0px;word-spacing:0px;fill:#ffffff;fill-opacity:1;stroke:none;font-family:Nevis;-inkscape-font-specification:Nevis Bold" />
    </g>
    <g
       style="font-size:7.09637212999999978px;font-style:normal;font-variant:normal;font-weight:500;font-stretch:normal;line-height:87.00000047999998287%;letter-spacing:0px;word-spacing:0px;fill:#ffffff;fill-opacity:1;stroke:none;font-family:Patagonia;-inkscape-font-specification:Patagonia Medium"
       id="text3822">
      <path
         d="m 157.5778,1007.261 c -3.17917,6.5854 -9.65107,12.0354 -20.09692,12.0354 -12.26252,0 -21.00526,-9.1969 -21.00526,-23.27607 0,-13.85211 8.17503,-23.38965 21.1188,-23.38965 8.51564,0 14.98754,3.74689 19.07505,10.10524 l 18.84796,-5.10939 c -5.33646,-12.83023 -18.73444,-22.93548 -37.01467,-22.93548 -23.73025,0 -41.215734,16.91778 -41.215734,41.10219 0,24.86566 17.485484,41.55636 41.215734,41.55636 17.25836,0 31.90529,-9.6511 37.80947,-25.0928 l -18.73443,-4.9958"
         style="font-stretch:expanded;font-family:Novecento sans wide;-inkscape-font-specification:Novecento sans wide Bold Expanded;fill:#ffffff;fill-opacity:1"
         id="path3972" />
      <path
         d="m 182.22173,996.02033 c 0,24.29797 17.59903,41.32927 41.89698,41.32927 24.29796,0 41.89699,-17.0313 41.89699,-41.32927 0,-24.29796 -17.59903,-41.32928 -41.89699,-41.32928 -24.29795,0 -41.89698,17.03132 -41.89698,41.32928 m 19.18859,0 c 0,-14.30628 9.53754,-23.38965 22.70839,-23.38965 13.17086,0 22.7084,9.08337 22.7084,23.38965 0,14.19277 -9.53754,23.27607 -22.7084,23.27607 -13.17085,0 -22.70839,-9.0833 -22.70839,-23.27607"
         style="font-stretch:expanded;font-family:Novecento sans wide;-inkscape-font-specification:Novecento sans wide Bold Expanded;fill:#ffffff;fill-opacity:1"
         id="path3974" />
      <path
         d="m 273.14399,996.02033 c 0,24.29797 17.59903,41.32927 41.89698,41.32927 24.29796,0 41.89698,-17.0313 41.89698,-41.32927 0,-24.29796 -17.59902,-41.32928 -41.89698,-41.32928 -24.29795,0 -41.89698,17.03132 -41.89698,41.32928 m 19.18859,0 c 0,-14.30628 9.53754,-23.38965 22.70839,-23.38965 13.17085,0 22.70839,9.08337 22.70839,23.38965 0,14.19277 -9.53754,23.27607 -22.70839,23.27607 -13.17085,0 -22.70839,-9.0833 -22.70839,-23.27607"
         style="font-stretch:expanded;font-family:Novecento sans wide;-inkscape-font-specification:Novecento sans wide Bold Expanded;fill:#ffffff;fill-opacity:1"
         id="path3976" />
      <path
         d="m 366.58015,1035.76 54.72723,0 0,-17.7125 -35.65218,0 0,-61.76686 -19.07505,0 0,79.47936"
         style="font-stretch:expanded;font-family:Novecento sans wide;-inkscape-font-specification:Novecento sans wide Bold Expanded;fill:#ffffff;fill-opacity:1"
         id="path3978" />
      <path
         d="m 456.20556,1015.8902 c 4.54167,17.2583 20.21048,21.4594 34.06258,21.4594 19.41566,0 30.88342,-8.175 30.88342,-24.5251 0,-17.14478 -12.9438,-22.14065 -24.63861,-24.41149 -11.1271,-2.27083 -18.73442,-3.29272 -18.73442,-9.99169 0,-4.20105 3.06564,-7.0396 10.33232,-7.0396 7.94793,0 12.48961,3.17918 14.41983,8.96982 l 18.16671,-4.88231 c -4.42813,-14.19273 -16.00943,-20.77818 -32.24592,-20.77818 -17.82607,0 -30.08861,8.0615 -30.08861,24.29798 0,16.8042 13.39796,21.80007 24.18443,24.41157 9.7646,2.3843 19.30213,1.9302 19.30213,9.5375 0,5.1094 -4.42814,7.6073 -11.69482,7.6073 -8.62918,0 -14.19274,-3.5198 -15.78233,-9.5375 l -18.16671,4.8823"
         style="font-stretch:expanded;font-family:Novecento sans wide;-inkscape-font-specification:Novecento sans wide Bold Expanded;fill:#ffffff;fill-opacity:1"
         id="path3980" />
      <path
         d="m 595.07267,973.99319 0,-17.71255 -67.671,0 0,17.71255 24.29798,0 0,61.76681 19.07505,0 0,-61.76681 24.29797,0"
         style="font-stretch:expanded;font-family:Novecento sans wide;-inkscape-font-specification:Novecento sans wide Bold Expanded;fill:#ffffff;fill-opacity:1"
         id="path3982" />
      <path
         d="m 645.57934,1022.5891 4.76877,13.1709 20.43755,0 -30.76987,-79.47936 -21.68652,0 -30.65632,79.47936 20.09692,0 4.76877,-13.1709 33.0407,0 m -6.2448,-17.3719 -20.5511,0 5.6771,-15.89585 c 2.49792,-6.58543 4.31459,-11.46774 4.42814,-11.58128 l 0.34062,0 c 0.11354,0.11354 1.93022,5.1094 4.42814,11.69482 l 5.6771,15.78231"
         style="font-stretch:expanded;font-family:Novecento sans wide;-inkscape-font-specification:Novecento sans wide Bold Expanded;fill:#ffffff;fill-opacity:1"
         id="path3984" />
      <path
         d="m 721.06346,1035.76 22.59485,0 -18.16671,-29.9751 c 9.65105,-3.6333 14.98753,-11.6948 14.98753,-22.59481 0,-16.46357 -11.69484,-26.90945 -31.6782,-26.90945 l -30.20216,0 0,79.47936 19.07505,0 0,-26.2282 4.54168,0 3.97396,0 14.874,26.2282 m -23.38964,-41.4428 0,-20.77818 12.26253,0 c 7.38022,0 11.01357,3.97397 11.01357,10.5594 0,6.69897 -3.86044,10.21878 -10.90003,10.21878 l -12.37607,0"
         style="font-stretch:expanded;font-family:Novecento sans wide;-inkscape-font-specification:Novecento sans wide Bold Expanded;fill:#ffffff;fill-opacity:1"
         id="path3986" />
      <path
         d="m 748.48739,1015.8902 c 4.54167,17.2583 20.21048,21.4594 34.06258,21.4594 19.41566,0 30.88342,-8.175 30.88342,-24.5251 0,-17.14478 -12.9438,-22.14065 -24.63861,-24.41149 -11.1271,-2.27083 -18.73442,-3.29272 -18.73442,-9.99169 0,-4.20105 3.06564,-7.0396 10.33232,-7.0396 7.94793,0 12.48961,3.17918 14.41983,8.96982 l 18.16671,-4.88231 c -4.42813,-14.19273 -16.00943,-20.77818 -32.24592,-20.77818 -17.82607,0 -30.08861,8.0615 -30.08861,24.29798 0,16.8042 13.39796,21.80007 24.18443,24.41157 9.7646,2.3843 19.30213,1.9302 19.30213,9.5375 0,5.1094 -4.42814,7.6073 -11.69482,7.6073 -8.62918,0 -14.19274,-3.5198 -15.78233,-9.5375 l -18.16671,4.8823"
         style="font-stretch:expanded;font-family:Novecento sans wide;-inkscape-font-specification:Novecento sans wide Bold Expanded;fill:#ffffff;fill-opacity:1"
         id="path3988" />
    </g>
    <text
       sodipodi:linespacing="125%"
       id="text3832"
       y="865.00592"
       x="920.67548"
       style="font-size:7.05030489px;font-style:normal;font-variant:normal;font-weight:500;font-stretch:normal;line-height:125%;letter-spacing:0px;word-spacing:0px;fill:#bb3e3e;fill-opacity:1;stroke:none;font-family:Patagonia;-inkscape-font-specification:Patagonia Medium"
       xml:space="preserve"><tspan
         id="tspan3836"
         style="font-size:112.80487823px;font-style:normal;font-variant:normal;font-weight:bold;font-stretch:normal;letter-spacing:0px;fill:#bb3e3e;fill-opacity:1;font-family:Helvetica Neue;-inkscape-font-specification:Helvetica Neue"
         y="865.00592"
         x="920.67548"
         sodipodi:role="line" /></text>
    <g
       style="font-size:7.09637212999999978px;font-style:normal;font-variant:normal;font-weight:500;font-stretch:normal;line-height:87.00000047999998287%;letter-spacing:0px;word-spacing:0px;fill:#bb3e3e;fill-opacity:1;stroke:none;font-family:Patagonia;-inkscape-font-specification:Patagonia Medium"
       id="text3963">
      <path
         d="m 882.71156,1035.76 0,-79.47936 -12.83024,0 c -0.4542,3.02786 -1.40039,5.56363 -2.83855,7.60731 -1.43823,2.04383 -3.21705,3.70911 -5.33648,4.99585 -2.04377,1.21118 -4.3903,2.08167 -7.0396,2.61146 -2.57363,0.45424 -5.26078,0.64347 -8.06148,0.56771 l 0,12.14899 19.98339,0 0,51.54804 16.12296,0"
         style="font-family:Helvetica Neue;-inkscape-font-specification:Helvetica Neue;fill:#bb3e3e;fill-opacity:1"
         id="path3991" />
      <path
         d="m 932.0615,997.49637 c -2.04378,4e-5 -3.86045,-0.41628 -5.45001,-1.24896 -1.51392,-0.9083 -2.76288,-2.04371 -3.74689,-3.40626 -0.98405,-1.43815 -1.74099,-3.02774 -2.27084,-4.76876 -0.45418,-1.81662 -0.68127,-3.67114 -0.68125,-5.56356 -2e-5,-1.81661 0.26492,-3.59544 0.7948,-5.33647 0.52984,-1.74091 1.32463,-3.29265 2.38438,-4.65522 1.0597,-1.36244 2.34651,-2.46001 3.86042,-3.29272 1.51387,-0.83257 3.217,-1.24889 5.10939,-1.24896 2.04372,7e-5 3.86039,0.41639 5.45002,1.24896 1.58955,0.83271 2.9142,1.96813 3.97396,3.40626 1.13538,1.36257 1.96802,2.95215 2.49793,4.76877 0.60551,1.74103 0.90829,3.51985 0.90833,5.33647 -4e-5,1.96811 -0.26497,3.86047 -0.79479,5.67709 -0.52991,1.74103 -1.3247,3.29277 -2.38438,4.65523 -1.05977,1.36254 -2.38442,2.46011 -3.97397,3.29271 -1.58962,0.75699 -3.48199,1.13546 -5.6771,1.13542 m -11.58128,17.82613 -15.32816,0 c 0.45416,3.4819 1.40034,6.5854 2.83855,9.3104 1.43819,2.725 3.2927,5.0337 5.56355,6.9261 2.27083,1.8923 4.88229,3.2927 7.8344,4.201 2.95207,0.984 6.13124,1.4761 9.53752,1.4761 5.67707,0 10.48367,-1.2112 14.41983,-3.6334 3.93607,-2.4979 7.15309,-5.7149 9.65107,-9.6511 2.49786,-4.0118 4.31453,-8.4777 5.45001,-13.3979 1.13536,-4.9201 1.70307,-9.8403 1.70313,-14.76046 -6e-5,-4.9958 -0.45423,-9.95379 -1.3625,-14.87399 -0.9084,-4.9201 -2.53583,-9.31038 -4.88231,-13.17087 -2.34658,-3.93605 -5.48791,-7.07737 -9.42398,-9.42398 -3.86047,-2.42215 -8.81846,-3.63326 -14.874,-3.63335 -4.16323,9e-5 -7.94795,0.75703 -11.35419,2.27084 -3.40627,1.51397 -6.35836,3.59557 -8.85627,6.24481 -2.42224,2.57369 -4.3146,5.63932 -5.6771,9.1969 -1.28681,3.48201 -1.93022,7.26674 -1.93021,11.35419 -1e-5,3.17923 0.49201,6.32055 1.47604,9.42399 0.98403,3.10352 2.53577,5.86637 4.65522,8.28852 2.27083,2.498 5.03368,4.5039 8.28856,6.0178 3.25485,1.4382 6.58541,2.1573 9.9917,2.1573 3.86039,0 7.26665,-0.6813 10.21877,-2.0438 2.95205,-1.3625 5.52567,-3.6333 7.72085,-6.8125 l 0.22709,0.2271 c -0.15144,2.1951 -0.49206,4.6931 -1.02188,7.4937 -0.45421,2.8008 -1.249,5.4501 -2.38438,7.948 -1.13546,2.4222 -2.64935,4.5038 -4.54168,6.2448 -1.8924,1.6653 -4.31463,2.4979 -7.26668,2.4979 -2.80073,0 -5.14726,-0.984 -7.0396,-2.9521 -1.89239,-1.968 -3.1035,-4.2767 -3.63335,-6.926"
         style="font-family:Helvetica Neue;-inkscape-font-specification:Helvetica Neue;fill:#bb3e3e;fill-opacity:1"
         id="path3993" />
    </g>
  </g>
</svg>
