<?xml version="1.0" encoding="UTF-8" standalone="no"?>
<!-- Created with Inkscape (http://www.inkscape.org/) -->

<svg
   xmlns:dc="http://purl.org/dc/elements/1.1/"
   xmlns:cc="http://creativecommons.org/ns#"
   xmlns:rdf="http://www.w3.org/1999/02/22-rdf-syntax-ns#"
   xmlns:svg="http://www.w3.org/2000/svg"
   xmlns="http://www.w3.org/2000/svg"
   xmlns:sodipodi="http://sodipodi.sourceforge.net/DTD/sodipodi-0.dtd"
   xmlns:inkscape="http://www.inkscape.org/namespaces/inkscape"
   width="1052.36"
   height="600"
   id="svg5602"
   version="1.1"
   inkscape:version="0.48.4 r9939"
   sodipodi:docname="testlogoweb2.svg">
  <defs
     id="defs5604" />
  <sodipodi:namedview
     id="base"
     pagecolor="#ffffff"
     bordercolor="#666666"
     borderopacity="1.0"
     inkscape:pageopacity="0.0"
     inkscape:pageshadow="2"
     inkscape:zoom="0.7"
     inkscape:cx="-99.526592"
     inkscape:cy="551.724"
     inkscape:document-units="px"
     inkscape:current-layer="layer1"
     showgrid="false"
     inkscape:window-width="2556"
     inkscape:window-height="1385"
     inkscape:window-x="0"
     inkscape:window-y="53"
     inkscape:window-maximized="0" />
  <metadata
     id="metadata5607">
    <rdf:RDF>
      <cc:Work
         rdf:about="">
        <dc:format>image/svg+xml</dc:format>
        <dc:type
           rdf:resource="http://purl.org/dc/dcmitype/StillImage" />
        <dc:title />
      </cc:Work>
    </rdf:RDF>
  </metadata>
  <g
     inkscape:label="Layer 1"
     inkscape:groupmode="layer"
     id="layer1"
     transform="translate(0,-452.36915)">
    <rect
       style="color:#000000;fill:#323232;fill-opacity:0.7751196;fill-rule:nonzero;stroke:none;stroke-width:2;marker:none;visibility:visible;display:inline;overflow:visible;enable-background:accumulate"
       id="rect4255"
       width="904.25897"
       height="182.83762"
       x="73.870491"
       y="823.06458" />
    <g
       id="g3844"
       transform="matrix(1.2244407,0,0,1.2244407,304.95529,-451.62694)">
      <path
         transform="matrix(0.48214581,0,0,0.48214581,51.65929,700.34087)"
         sodipodi:open="true"
         sodipodi:end="0.066324145"
         sodipodi:start="0"
         d="m 324.25898,407.88486 c 0,0.0223 -0.0319,0.0447 -0.0955,0.067"
         sodipodi:ry="1.0101526"
         sodipodi:rx="43.436558"
         sodipodi:cy="407.88486"
         sodipodi:cx="280.82242"
         id="path3099-4"
         style="opacity:0.5;fill:#ffffff;fill-opacity:0.53142856;stroke:#000000;stroke-width:1;stroke-miterlimit:4;stroke-opacity:1;stroke-dasharray:none;stroke-dashoffset:0"
         sodipodi:type="arc" />
      <path
         sodipodi:open="true"
         sodipodi:end="10.285132"
         sodipodi:start="5.3830654"
         transform="matrix(0.38422098,-0.38422098,0.38422098,0.38422098,14.17187,894.35538)"
         d="m 417.95029,156.87068 c 141.1682,26.69888 164.81646,75.62383 52.81985,109.27693 -111.99661,33.6531 -317.22724,39.29061 -458.395446,12.59173 -141.168204,-26.69888 -164.816454,-75.62383 -52.81985,-109.27693 12.831054,-3.85552 27.168133,-7.41203 42.8183844,-10.62168"
         sodipodi:ry="77.781746"
         sodipodi:rx="326.27927"
         sodipodi:cy="217.80501"
         sodipodi:cx="215.16249"
         id="path3818"
         style="fill:none;stroke:#ffffff;stroke-width:5.89400005;stroke-linecap:round;stroke-miterlimit:4;stroke-opacity:1;stroke-dasharray:none;stroke-dashoffset:0"
         sodipodi:type="arc" />
      <path
         transform="matrix(0.49487397,0,0,0.4748603,37.627587,702.57673)"
         d="m 544.47221,418.99655 c 0,135.56772 -109.89934,245.46707 -245.46705,245.46707 -135.56771,0 -245.467059,-109.89935 -245.467059,-245.46707 0,-135.56772 109.899349,-245.46707 245.467059,-245.46707 135.56771,0 245.46705,109.89935 245.46705,245.46707 z"
         sodipodi:ry="245.46707"
         sodipodi:rx="245.46706"
         sodipodi:cy="418.99655"
         sodipodi:cx="299.00516"
         id="path3097-5"
         style="fill:#bb3e3e;fill-opacity:0;stroke:#bb3e3e;stroke-width:8.9671793;stroke-miterlimit:4;stroke-opacity:1;stroke-dasharray:none;stroke-dashoffset:0"
         sodipodi:type="arc" />
      <path
         inkscape:transform-center-y="1.3183339"
         inkscape:transform-center-x="0.64197076"
         sodipodi:nodetypes="cc"
         inkscape:connector-curvature="0"
         id="path4283"
         d="m 283.84142,837.92664 3.45268,-5.21243"
         style="fill:#001919;fill-opacity:0.6745098;stroke:#ffffff;stroke-width:3.18034101;stroke-linecap:butt;stroke-linejoin:miter;stroke-miterlimit:4;stroke-opacity:1;stroke-dasharray:none" />
      <path
         inkscape:transform-center-y="-0.68356005"
         inkscape:transform-center-x="-1.5379812"
         sodipodi:nodetypes="cc"
         inkscape:connector-curvature="0"
         id="path4283-8"
         d="m 118.21108,1001.8976 5.50904,-3.64662"
         style="fill:#001919;fill-opacity:0.6745098;stroke:#ffffff;stroke-width:3.18034101;stroke-linecap:butt;stroke-linejoin:miter;stroke-miterlimit:4;stroke-opacity:1;stroke-dasharray:none" />
      <path
         transform="matrix(0.48912119,0,0,0.48322593,68.359778,677.05608)"
         d="m 344.46202,484.48529 c 0,15.06308 -12.21104,27.27412 -27.27412,27.27412 -15.06308,0 -27.27412,-12.21104 -27.27412,-27.27412 0,-15.06308 12.21104,-27.27412 27.27412,-27.27412 15.06308,0 27.27412,12.21104 27.27412,27.27412 z"
         sodipodi:ry="27.274118"
         sodipodi:rx="27.274118"
         sodipodi:cy="484.48529"
         sodipodi:cx="317.1879"
         id="path3816"
         style="fill:#cd543e;fill-opacity:1;stroke:#bb3e30;stroke-width:5.89400005;stroke-linecap:round;stroke-miterlimit:4;stroke-opacity:0;stroke-dasharray:none;stroke-dashoffset:0"
         sodipodi:type="arc" />
      <path
         inkscape:connector-curvature="0"
         id="path5771"
         d="m 223.99388,927.95014 c -4.65433,0 -8.54505,-1.56356 -11.67215,-4.69068 -3.12713,-3.14166 -4.69069,-7.03237 -4.69069,-11.67216 0,-4.6543 1.56356,-8.54501 4.69069,-11.67216 3.1271,-3.12708 7.01782,-4.69065 11.67215,-4.69068 4.6543,3e-5 8.54501,1.5636 11.67217,4.69068 3.12708,3.12715 4.69064,7.01786 4.69067,11.67216 -3e-5,4.65433 -1.56359,8.54505 -4.69067,11.67216 -3.12716,3.12712 -7.01787,4.69068 -11.67217,4.69068 m 0.0219,-6.10879 c 2.89437,10e-6 5.25062,-0.98177 7.06874,-2.94531 1.81807,-1.96354 2.72712,-4.39978 2.72715,-7.30874 -3e-5,-2.90892 -0.90908,-5.34516 -2.72715,-7.30874 -1.81812,-1.9635 -4.1889,-2.94528 -7.11238,-2.9453 -2.89442,2e-5 -5.25066,0.9818 -7.06875,2.9453 -1.81809,1.96358 -2.72715,4.39982 -2.72714,7.30874 -1e-5,2.90896 0.90905,5.3452 2.72714,7.30874 1.81809,1.96354 4.18887,2.94532 7.11239,2.94531"
         style="font-size:53.38720703px;font-style:normal;font-variant:normal;font-weight:bold;font-stretch:normal;line-height:125%;letter-spacing:0px;word-spacing:0px;fill:#ffffff;fill-opacity:1;stroke:none;font-family:Nevis;-inkscape-font-specification:Nevis Bold" />
    </g>
    <text
       sodipodi:linespacing="125%"
       id="text3832"
       y="865.00592"
       x="920.67548"
       style="font-size:7.05030489px;font-style:normal;font-variant:normal;font-weight:500;font-stretch:normal;line-height:125%;letter-spacing:0px;word-spacing:0px;fill:#bb3e3e;fill-opacity:1;stroke:none;font-family:Patagonia;-inkscape-font-specification:Patagonia Medium"
       xml:space="preserve"><tspan
         id="tspan3836"
         style="font-size:112.80487823px;font-style:normal;font-variant:normal;font-weight:bold;font-stretch:normal;letter-spacing:0px;fill:#bb3e3e;fill-opacity:1;font-family:Helvetica Neue;-inkscape-font-specification:Helvetica Neue"
         y="865.00592"
         x="920.67548"
         sodipodi:role="line" /></text>
    <g
       id="g4261"
       transform="translate(-3.7185959,18)">
      <g
         transform="translate(0,-130)"
         id="text3822"
         style="font-size:7.09637213px;font-style:normal;font-variant:normal;font-weight:500;font-stretch:normal;line-height:87.00000048%;letter-spacing:0px;word-spacing:0px;fill:#ffffff;fill-opacity:1;stroke:none;font-family:Patagonia;-inkscape-font-specification:Patagonia Medium">
        <path
           inkscape:connector-curvature="0"
           id="path3972"
           style="font-stretch:expanded;fill:#ffffff;fill-opacity:1;font-family:Novecento sans wide;-inkscape-font-specification:Novecento sans wide Bold Expanded"
           d="m 157.5778,1007.261 c -3.17917,6.5854 -9.65107,12.0354 -20.09692,12.0354 -12.26252,0 -21.00526,-9.1969 -21.00526,-23.27607 0,-13.85211 8.17503,-23.38965 21.1188,-23.38965 8.51564,0 14.98754,3.74689 19.07505,10.10524 l 18.84796,-5.10939 c -5.33646,-12.83023 -18.73444,-22.93548 -37.01467,-22.93548 -23.73025,0 -41.215734,16.91778 -41.215734,41.10219 0,24.86566 17.485484,41.55636 41.215734,41.55636 17.25836,0 31.90529,-9.6511 37.80947,-25.0928 l -18.73443,-4.9958" />
        <path
           inkscape:connector-curvature="0"
           id="path3974"
           style="font-stretch:expanded;fill:#ffffff;fill-opacity:1;font-family:Novecento sans wide;-inkscape-font-specification:Novecento sans wide Bold Expanded"
           d="m 182.22173,996.02033 c 0,24.29797 17.59903,41.32927 41.89698,41.32927 24.29796,0 41.89699,-17.0313 41.89699,-41.32927 0,-24.29796 -17.59903,-41.32928 -41.89699,-41.32928 -24.29795,0 -41.89698,17.03132 -41.89698,41.32928 m 19.18859,0 c 0,-14.30628 9.53754,-23.38965 22.70839,-23.38965 13.17086,0 22.7084,9.08337 22.7084,23.38965 0,14.19277 -9.53754,23.27607 -22.7084,23.27607 -13.17085,0 -22.70839,-9.0833 -22.70839,-23.27607" />
        <path
           inkscape:connector-curvature="0"
           id="path3976"
           style="font-stretch:expanded;fill:#ffffff;fill-opacity:1;font-family:Novecento sans wide;-inkscape-font-specification:Novecento sans wide Bold Expanded"
           d="m 273.14399,996.02033 c 0,24.29797 17.59903,41.32927 41.89698,41.32927 24.29796,0 41.89698,-17.0313 41.89698,-41.32927 0,-24.29796 -17.59902,-41.32928 -41.89698,-41.32928 -24.29795,0 -41.89698,17.03132 -41.89698,41.32928 m 19.18859,0 c 0,-14.30628 9.53754,-23.38965 22.70839,-23.38965 13.17085,0 22.70839,9.08337 22.70839,23.38965 0,14.19277 -9.53754,23.27607 -22.70839,23.27607 -13.17085,0 -22.70839,-9.0833 -22.70839,-23.27607" />
        <path
           inkscape:connector-curvature="0"
           id="path3978"
           style="font-stretch:expanded;fill:#ffffff;fill-opacity:1;font-family:Novecento sans wide;-inkscape-font-specification:Novecento sans wide Bold Expanded"
           d="m 366.58015,1035.76 54.72723,0 0,-17.7125 -35.65218,0 0,-61.76686 -19.07505,0 0,79.47936" />
        <path
           inkscape:connector-curvature="0"
           id="path3980"
           style="font-stretch:expanded;fill:#ffffff;fill-opacity:1;font-family:Novecento sans wide;-inkscape-font-specification:Novecento sans wide Bold Expanded"
           d="m 456.20556,1015.8902 c 4.54167,17.2583 20.21048,21.4594 34.06258,21.4594 19.41566,0 30.88342,-8.175 30.88342,-24.5251 0,-17.14478 -12.9438,-22.14065 -24.63861,-24.41149 -11.1271,-2.27083 -18.73442,-3.29272 -18.73442,-9.99169 0,-4.20105 3.06564,-7.0396 10.33232,-7.0396 7.94793,0 12.48961,3.17918 14.41983,8.96982 l 18.16671,-4.88231 c -4.42813,-14.19273 -16.00943,-20.77818 -32.24592,-20.77818 -17.82607,0 -30.08861,8.0615 -30.08861,24.29798 0,16.8042 13.39796,21.80007 24.18443,24.41157 9.7646,2.3843 19.30213,1.9302 19.30213,9.5375 0,5.1094 -4.42814,7.6073 -11.69482,7.6073 -8.62918,0 -14.19274,-3.5198 -15.78233,-9.5375 l -18.16671,4.8823" />
        <path
           inkscape:connector-curvature="0"
           id="path3982"
           style="font-stretch:expanded;fill:#ffffff;fill-opacity:1;font-family:Novecento sans wide;-inkscape-font-specification:Novecento sans wide Bold Expanded"
           d="m 595.07267,973.99319 0,-17.71255 -67.671,0 0,17.71255 24.29798,0 0,61.76681 19.07505,0 0,-61.76681 24.29797,0" />
        <path
           inkscape:connector-curvature="0"
           id="path3984"
           style="font-stretch:expanded;fill:#ffffff;fill-opacity:1;font-family:Novecento sans wide;-inkscape-font-specification:Novecento sans wide Bold Expanded"
           d="m 645.57934,1022.5891 4.76877,13.1709 20.43755,0 -30.76987,-79.47936 -21.68652,0 -30.65632,79.47936 20.09692,0 4.76877,-13.1709 33.0407,0 m -6.2448,-17.3719 -20.5511,0 5.6771,-15.89585 c 2.49792,-6.58543 4.31459,-11.46774 4.42814,-11.58128 l 0.34062,0 c 0.11354,0.11354 1.93022,5.1094 4.42814,11.69482 l 5.6771,15.78231" />
        <path
           inkscape:connector-curvature="0"
           id="path3986"
           style="font-stretch:expanded;fill:#ffffff;fill-opacity:1;font-family:Novecento sans wide;-inkscape-font-specification:Novecento sans wide Bold Expanded"
           d="m 721.06346,1035.76 22.59485,0 -18.16671,-29.9751 c 9.65105,-3.6333 14.98753,-11.6948 14.98753,-22.59481 0,-16.46357 -11.69484,-26.90945 -31.6782,-26.90945 l -30.20216,0 0,79.47936 19.07505,0 0,-26.2282 4.54168,0 3.97396,0 14.874,26.2282 m -23.38964,-41.4428 0,-20.77818 12.26253,0 c 7.38022,0 11.01357,3.97397 11.01357,10.5594 0,6.69897 -3.86044,10.21878 -10.90003,10.21878 l -12.37607,0" />
        <path
           inkscape:connector-curvature="0"
           id="path3988"
           style="font-stretch:expanded;fill:#ffffff;fill-opacity:1;font-family:Novecento sans wide;-inkscape-font-specification:Novecento sans wide Bold Expanded"
           d="m 748.48739,1015.8902 c 4.54167,17.2583 20.21048,21.4594 34.06258,21.4594 19.41566,0 30.88342,-8.175 30.88342,-24.5251 0,-17.14478 -12.9438,-22.14065 -24.63861,-24.41149 -11.1271,-2.27083 -18.73442,-3.29272 -18.73442,-9.99169 0,-4.20105 3.06564,-7.0396 10.33232,-7.0396 7.94793,0 12.48961,3.17918 14.41983,8.96982 l 18.16671,-4.88231 c -4.42813,-14.19273 -16.00943,-20.77818 -32.24592,-20.77818 -17.82607,0 -30.08861,8.0615 -30.08861,24.29798 0,16.8042 13.39796,21.80007 24.18443,24.41157 9.7646,2.3843 19.30213,1.9302 19.30213,9.5375 0,5.1094 -4.42814,7.6073 -11.69482,7.6073 -8.62918,0 -14.19274,-3.5198 -15.78233,-9.5375 l -18.16671,4.8823" />
      </g>
      <g
         transform="translate(0,-130)"
         id="text3963"
         style="font-size:7.09637213px;font-style:normal;font-variant:normal;font-weight:500;font-stretch:normal;line-height:87.00000048%;letter-spacing:0px;word-spacing:0px;fill:#bb3e3e;fill-opacity:1;stroke:none;font-family:Patagonia;-inkscape-font-specification:Patagonia Medium">
        <path
           inkscape:connector-curvature="0"
           id="path3991"
           style="fill:#bb3e3e;fill-opacity:1;font-family:Helvetica Neue;-inkscape-font-specification:Helvetica Neue"
           d="m 882.71156,1035.76 0,-79.47936 -12.83024,0 c -0.4542,3.02786 -1.40039,5.56363 -2.83855,7.60731 -1.43823,2.04383 -3.21705,3.70911 -5.33648,4.99585 -2.04377,1.21118 -4.3903,2.08167 -7.0396,2.61146 -2.57363,0.45424 -5.26078,0.64347 -8.06148,0.56771 l 0,12.14899 19.98339,0 0,51.54804 16.12296,0" />
        <path
           inkscape:connector-curvature="0"
           id="path3993"
           style="fill:#bb3e3e;fill-opacity:1;font-family:Helvetica Neue;-inkscape-font-specification:Helvetica Neue"
           d="m 932.0615,997.49637 c -2.04378,4e-5 -3.86045,-0.41628 -5.45001,-1.24896 -1.51392,-0.9083 -2.76288,-2.04371 -3.74689,-3.40626 -0.98405,-1.43815 -1.74099,-3.02774 -2.27084,-4.76876 -0.45418,-1.81662 -0.68127,-3.67114 -0.68125,-5.56356 -2e-5,-1.81661 0.26492,-3.59544 0.7948,-5.33647 0.52984,-1.74091 1.32463,-3.29265 2.38438,-4.65522 1.0597,-1.36244 2.34651,-2.46001 3.86042,-3.29272 1.51387,-0.83257 3.217,-1.24889 5.10939,-1.24896 2.04372,7e-5 3.86039,0.41639 5.45002,1.24896 1.58955,0.83271 2.9142,1.96813 3.97396,3.40626 1.13538,1.36257 1.96802,2.95215 2.49793,4.76877 0.60551,1.74103 0.90829,3.51985 0.90833,5.33647 -4e-5,1.96811 -0.26497,3.86047 -0.79479,5.67709 -0.52991,1.74103 -1.3247,3.29277 -2.38438,4.65523 -1.05977,1.36254 -2.38442,2.46011 -3.97397,3.29271 -1.58962,0.75699 -3.48199,1.13546 -5.6771,1.13542 m -11.58128,17.82613 -15.32816,0 c 0.45416,3.4819 1.40034,6.5854 2.83855,9.3104 1.43819,2.725 3.2927,5.0337 5.56355,6.9261 2.27083,1.8923 4.88229,3.2927 7.8344,4.201 2.95207,0.984 6.13124,1.4761 9.53752,1.4761 5.67707,0 10.48367,-1.2112 14.41983,-3.6334 3.93607,-2.4979 7.15309,-5.7149 9.65107,-9.6511 2.49786,-4.0118 4.31453,-8.4777 5.45001,-13.3979 1.13536,-4.9201 1.70307,-9.8403 1.70313,-14.76046 -6e-5,-4.9958 -0.45423,-9.95379 -1.3625,-14.87399 -0.9084,-4.9201 -2.53583,-9.31038 -4.88231,-13.17087 -2.34658,-3.93605 -5.48791,-7.07737 -9.42398,-9.42398 -3.86047,-2.42215 -8.81846,-3.63326 -14.874,-3.63335 -4.16323,9e-5 -7.94795,0.75703 -11.35419,2.27084 -3.40627,1.51397 -6.35836,3.59557 -8.85627,6.24481 -2.42224,2.57369 -4.3146,5.63932 -5.6771,9.1969 -1.28681,3.48201 -1.93022,7.26674 -1.93021,11.35419 -1e-5,3.17923 0.49201,6.32055 1.47604,9.42399 0.98403,3.10352 2.53577,5.86637 4.65522,8.28852 2.27083,2.498 5.03368,4.5039 8.28856,6.0178 3.25485,1.4382 6.58541,2.1573 9.9917,2.1573 3.86039,0 7.26665,-0.6813 10.21877,-2.0438 2.95205,-1.3625 5.52567,-3.6333 7.72085,-6.8125 l 0.22709,0.2271 c -0.15144,2.1951 -0.49206,4.6931 -1.02188,7.4937 -0.45421,2.8008 -1.249,5.4501 -2.38438,7.948 -1.13546,2.4222 -2.64935,4.5038 -4.54168,6.2448 -1.8924,1.6653 -4.31463,2.4979 -7.26668,2.4979 -2.80073,0 -5.14726,-0.984 -7.0396,-2.9521 -1.89239,-1.968 -3.1035,-4.2767 -3.63335,-6.926" />
      </g>
    </g>
    <g
       style="font-size:5px;font-style:normal;font-variant:normal;font-weight:500;font-stretch:normal;line-height:125%;letter-spacing:0px;word-spacing:0px;fill:#ffffff;fill-opacity:1;stroke:none;font-family:Patagonia;-inkscape-font-specification:Patagonia Medium"
       id="text4137"
       transform="matrix(0.9,0,0,0.9,6.0101094,96.85142)">
      <path
         d="m 110.70702,943.6816 c -2.78668,4e-5 -5.06001,0.62337 -6.82,1.87 -1.76,1.21003 -3.135,2.76836 -4.124997,4.675 -0.953337,1.90669 -1.613336,4.03336 -1.98,6.38 -0.330002,2.34669 -0.495002,4.65668 -0.495,6.93 -2e-6,2.23668 0.164998,4.52834 0.495,6.875 0.366664,2.34667 1.026663,4.47334 1.98,6.38 0.989997,1.90667 2.364997,3.465 4.124997,4.675 1.75999,1.21 4.03332,1.815 6.82,1.815 2.82332,0 5.09665,-0.605 6.82,-1.815 1.75998,-1.21 3.11664,-2.76833 4.07,-4.675 0.98998,-1.90666 1.64997,-4.03333 1.98,-6.38 0.36664,-2.34666 0.54997,-4.65665 0.55,-6.93 -3e-5,-2.23665 -0.18336,-4.52831 -0.55,-6.875 -0.33003,-2.34664 -0.99002,-4.47331 -1.98,-6.38 -0.95336,-1.90664 -2.31002,-3.46497 -4.07,-4.675 -1.72335,-1.24663 -3.99668,-1.86996 -6.82,-1.87 m 0,2.915 c 2.19999,3e-5 3.95998,0.56837 5.28,1.705 1.31998,1.1367 2.30998,2.54836 2.97,4.235 0.69665,1.68669 1.15498,3.52002 1.375,5.5 0.21998,1.98002 0.32998,3.79502 0.33,5.445 -2e-5,1.68668 -0.11002,3.52001 -0.33,5.5 -0.22002,1.94334 -0.67835,3.77667 -1.375,5.5 -0.66002,1.68667 -1.65002,3.09833 -2.97,4.235 -1.32002,1.13667 -3.08001,1.705 -5.28,1.705 -2.20001,0 -3.96001,-0.56833 -5.28,-1.705 -1.32001,-1.13667 -2.32834,-2.54833 -3.025,-4.235 -0.66,-1.72333 -1.1,-3.55666 -1.32,-5.5 -0.22,-1.97999 -0.33,-3.81332 -0.33,-5.5 0,-1.64998 0.11,-3.46498 0.33,-5.445 0.22,-1.97998 0.66,-3.81331 1.32,-5.5 0.69666,-1.68664 1.70499,-3.0983 3.025,-4.235 1.31999,-1.13663 3.07999,-1.70497 5.28,-1.705"
         style="font-size:55px;font-weight:300;text-align:start;line-height:125%;writing-mode:lr-tb;text-anchor:start;fill:#ffffff;fill-opacity:1;stroke:none;font-family:Helvetica Neue;-inkscape-font-specification:Helvetica Neue Light"
         id="path4200"
         inkscape:connector-curvature="0" />
      <path
         d="m 150.34226,953.7466 3.465,0 c -0.40336,-3.40997 -1.61336,-5.93997 -3.63,-7.59 -2.01669,-1.64997 -4.74836,-2.47496 -8.195,-2.475 -2.09002,4e-5 -3.88668,0.3667 -5.39,1.1 -1.50335,0.73337 -2.76834,1.6867 -3.795,2.86 -0.99001,1.17336 -1.79667,2.49336 -2.42,3.96 -0.58667,1.43003 -1.04501,2.86002 -1.375,4.29 -0.33001,1.39336 -0.55001,2.71335 -0.66,3.96 -0.0733,1.24668 -0.11001,2.25502 -0.11,3.025 -1e-5,3.77668 0.25666,6.96668 0.77,9.57 0.54999,2.56667 1.37499,4.65667 2.475,6.27 1.09999,1.61333 2.49332,2.78666 4.18,3.52 1.68665,0.69666 3.70332,1.045 6.05,1.045 1.90665,0 3.64831,-0.31167 5.225,-0.935 1.61331,-0.66 2.98831,-1.55833 4.125,-2.695 1.1733,-1.17333 2.07164,-2.54833 2.695,-4.125 0.65997,-1.61333 0.98997,-3.35499 0.99,-5.225 -3e-5,-1.86999 -0.3117,-3.59332 -0.935,-5.17 -0.5867,-1.57665 -1.43003,-2.93332 -2.53,-4.07 -1.10003,-1.13665 -2.43836,-2.01665 -4.015,-2.64 -1.54002,-0.65998 -3.28169,-0.98998 -5.225,-0.99 -2.20002,2e-5 -4.23501,0.58669 -6.105,1.76 -1.83334,1.17335 -3.20834,2.71335 -4.125,4.62 l -0.11,0 c -1e-5,-1.75998 0.12832,-3.62998 0.385,-5.61 0.25666,-2.01664 0.76999,-3.88664 1.54,-5.61 0.76999,-1.72331 1.85165,-3.1533 3.245,-4.29 1.39332,-1.13663 3.20832,-1.70497 5.445,-1.705 2.23665,3e-5 4.05164,0.66003 5.445,1.98 1.42997,1.32003 2.29164,3.04336 2.585,5.17 m -8.36,6.6 c 1.46665,2e-5 2.76831,0.27502 3.905,0.825 1.17331,0.51335 2.14498,1.22835 2.915,2.145 0.80664,0.91668 1.41164,1.99835 1.815,3.245 0.43997,1.24668 0.65997,2.56668 0.66,3.96 -3e-5,1.32001 -0.22003,2.58501 -0.66,3.795 -0.44003,1.21 -1.08169,2.27334 -1.925,3.19 -0.80669,0.88 -1.77836,1.595 -2.915,2.145 -1.10002,0.51333 -2.34669,0.77 -3.74,0.77 -1.68668,0 -3.13502,-0.25667 -4.345,-0.77 -1.21001,-0.51333 -2.21835,-1.21 -3.025,-2.09 -0.77001,-0.91666 -1.33834,-1.98 -1.705,-3.19 -0.36668,-1.20999 -0.55001,-2.49333 -0.55,-3.85 -1e-5,-1.42999 0.20166,-2.74999 0.605,-3.96 0.43999,-1.24665 1.06332,-2.32832 1.87,-3.245 0.84332,-0.91665 1.85165,-1.63165 3.025,-2.145 1.20998,-0.54998 2.56665,-0.82498 4.07,-0.825"
         style="font-size:55px;font-weight:300;text-align:start;line-height:125%;writing-mode:lr-tb;text-anchor:start;fill:#ffffff;fill-opacity:1;stroke:none;font-family:Helvetica Neue;-inkscape-font-specification:Helvetica Neue Light"
         id="path4202"
         inkscape:connector-curvature="0" />
      <path
         d="m 159.94749,968.9816 13.75,0 0,-3.19 -13.75,0 0,3.19"
         style="font-size:55px;font-weight:300;text-align:start;line-height:125%;writing-mode:lr-tb;text-anchor:start;fill:#ffffff;fill-opacity:1;stroke:none;font-family:Helvetica Neue;-inkscape-font-specification:Helvetica Neue Light"
         id="path4204"
         inkscape:connector-curvature="0" />
      <path
         d="m 182.28523,951.4366 0,2.475 10.175,0 0,28.6 3.465,0 0,-38.5 -2.805,0 c -0.25669,1.76003 -0.69669,3.13503 -1.32,4.125 -0.58669,0.95336 -1.33835,1.66836 -2.255,2.145 -0.88002,0.4767 -1.94335,0.78836 -3.19,0.935 -1.21001,0.11003 -2.56668,0.18336 -4.07,0.22"
         style="font-size:55px;font-weight:300;text-align:start;line-height:125%;writing-mode:lr-tb;text-anchor:start;fill:#ffffff;fill-opacity:1;stroke:none;font-family:Helvetica Neue;-inkscape-font-specification:Helvetica Neue Light"
         id="path4206"
         inkscape:connector-curvature="0" />
      <path
         d="m 222.85546,943.6816 c -2.78668,4e-5 -5.06001,0.62337 -6.82,1.87 -1.76001,1.21003 -3.13501,2.76836 -4.125,4.675 -0.95334,1.90669 -1.61334,4.03336 -1.98,6.38 -0.33,2.34669 -0.495,4.65668 -0.495,6.93 0,2.23668 0.165,4.52834 0.495,6.875 0.36666,2.34667 1.02666,4.47334 1.98,6.38 0.98999,1.90667 2.36499,3.465 4.125,4.675 1.75999,1.21 4.03332,1.815 6.82,1.815 2.82332,0 5.09665,-0.605 6.82,-1.815 1.75998,-1.21 3.11664,-2.76833 4.07,-4.675 0.98997,-1.90666 1.64997,-4.03333 1.98,-6.38 0.36664,-2.34666 0.54997,-4.65665 0.55,-6.93 -3e-5,-2.23665 -0.18336,-4.52831 -0.55,-6.875 -0.33003,-2.34664 -0.99003,-4.47331 -1.98,-6.38 -0.95336,-1.90664 -2.31002,-3.46497 -4.07,-4.675 -1.72335,-1.24663 -3.99668,-1.86996 -6.82,-1.87 m 0,2.915 c 2.19998,3e-5 3.95998,0.56837 5.28,1.705 1.31998,1.1367 2.30998,2.54836 2.97,4.235 0.69664,1.68669 1.15498,3.52002 1.375,5.5 0.21998,1.98002 0.32997,3.79502 0.33,5.445 -3e-5,1.68668 -0.11002,3.52001 -0.33,5.5 -0.22002,1.94334 -0.67836,3.77667 -1.375,5.5 -0.66002,1.68667 -1.65002,3.09833 -2.97,4.235 -1.32002,1.13667 -3.08002,1.705 -5.28,1.705 -2.20001,0 -3.96001,-0.56833 -5.28,-1.705 -1.32001,-1.13667 -2.32834,-2.54833 -3.025,-4.235 -0.66001,-1.72333 -1.10001,-3.55666 -1.32,-5.5 -0.22001,-1.97999 -0.33001,-3.81332 -0.33,-5.5 -1e-5,-1.64998 0.10999,-3.46498 0.33,-5.445 0.21999,-1.97998 0.65999,-3.81331 1.32,-5.5 0.69666,-1.68664 1.70499,-3.0983 3.025,-4.235 1.31999,-1.13663 3.07999,-1.70497 5.28,-1.705"
         style="font-size:55px;font-weight:300;text-align:start;line-height:125%;writing-mode:lr-tb;text-anchor:start;fill:#ffffff;fill-opacity:1;stroke:none;font-family:Helvetica Neue;-inkscape-font-specification:Helvetica Neue Light"
         id="path4208"
         inkscape:connector-curvature="0" />
      <path
         d="m 273.2346,943.2416 0,26.73 c -2e-5,1.79667 -0.11002,3.33667 -0.33,4.62 -0.22002,1.28334 -0.60502,2.34667 -1.155,3.19 -0.55002,0.80667 -1.30168,1.41167 -2.255,1.815 -0.95335,0.36667 -2.16335,0.55 -3.63,0.55 -1.94334,0 -3.42834,-0.36667 -4.455,-1.1 -0.99001,-0.77 -1.70501,-1.68666 -2.145,-2.75 -0.44,-1.06333 -0.69667,-2.18166 -0.77,-3.355 -0.0733,-1.17333 -0.12834,-2.18166 -0.165,-3.025 l -3.74,0 c 0,1.72334 0.14667,3.39167 0.44,5.005 0.29333,1.61334 0.84333,3.04333 1.65,4.29 0.80666,1.21 1.925,2.2 3.355,2.97 1.42999,0.73333 3.26332,1.1 5.5,1.1 2.12665,0 3.90498,-0.23834 5.335,-0.715 1.46665,-0.47667 2.63998,-1.19167 3.52,-2.145 0.91665,-0.95333 1.57664,-2.16333 1.98,-3.63 0.40331,-1.46666 0.60498,-3.20833 0.605,-5.225 l 0,-28.325 -3.74,0"
         style="font-size:55px;font-weight:300;text-align:start;line-height:125%;writing-mode:lr-tb;text-anchor:start;fill:#ffffff;fill-opacity:1;stroke:none;font-family:Helvetica Neue;-inkscape-font-specification:Helvetica Neue Light"
         id="path4210"
         inkscape:connector-curvature="0" />
      <path
         d="m 307.2246,982.5116 0,-28.38 -3.465,0 0,14.905 c -2e-5,1.43001 -0.16502,2.84167 -0.495,4.235 -0.33002,1.35667 -0.84335,2.56667 -1.54,3.63 -0.69669,1.06333 -1.57669,1.925 -2.64,2.585 -1.06335,0.62333 -2.34668,0.935 -3.85,0.935 -2.75001,0 -4.69334,-0.66 -5.83,-1.98 -1.10001,-1.32 -1.68667,-3.26333 -1.76,-5.83 l 0,-18.48 -3.465,0 0,18.425 c 0,1.68667 0.18333,3.19 0.55,4.51 0.36666,1.32 0.935,2.43833 1.705,3.355 0.80666,0.91666 1.83333,1.61333 3.08,2.09 1.28332,0.51333 2.82332,0.77 4.62,0.77 2.12665,0 4.05165,-0.495 5.775,-1.485 1.75998,-1.02667 3.09831,-2.49333 4.015,-4.4 l 0.11,0 0,5.115 3.19,0"
         style="font-size:55px;font-weight:300;text-align:start;line-height:125%;writing-mode:lr-tb;text-anchor:start;fill:#ffffff;fill-opacity:1;stroke:none;font-family:Helvetica Neue;-inkscape-font-specification:Helvetica Neue Light"
         id="path4212"
         inkscape:connector-curvature="0" />
      <path
         d="m 313.72062,954.1316 0,28.38 3.465,0 0,-16.555 c 0.0367,-1.39332 0.25666,-2.67665 0.66,-3.85 0.43999,-1.20998 1.02665,-2.23665 1.76,-3.08 0.76999,-0.87998 1.68665,-1.55831 2.75,-2.035 1.09998,-0.51331 2.34665,-0.76998 3.74,-0.77 1.39331,2e-5 2.54831,0.22002 3.465,0.66 0.95331,0.44002 1.70498,1.04502 2.255,1.815 0.54997,0.77002 0.93497,1.68669 1.155,2.75 0.21997,1.02668 0.32997,2.14502 0.33,3.355 l 0,17.71 3.465,0 0,-18.26 c -3e-5,-1.68665 -0.16503,-3.20832 -0.495,-4.565 -0.33003,-1.35665 -0.89836,-2.49331 -1.705,-3.41 -0.80669,-0.95331 -1.88836,-1.68664 -3.245,-2.2 -1.32002,-0.51331 -2.97002,-0.76997 -4.95,-0.77 -2.01668,3e-5 -3.86835,0.53169 -5.555,1.595 -1.68668,1.02669 -2.86001,2.40169 -3.52,4.125 l -0.11,0 0,-4.895 -3.465,0"
         style="font-size:55px;font-weight:300;text-align:start;line-height:125%;writing-mode:lr-tb;text-anchor:start;fill:#ffffff;fill-opacity:1;stroke:none;font-family:Helvetica Neue;-inkscape-font-specification:Helvetica Neue Light"
         id="path4214"
         inkscape:connector-curvature="0" />
      <path
         d="m 363.72163,966.3416 -18.37,0 c 0.14666,-1.28332 0.44,-2.52998 0.88,-3.74 0.47666,-1.24665 1.09999,-2.32831 1.87,-3.245 0.76999,-0.95331 1.70499,-1.70498 2.805,-2.255 1.09999,-0.58664 2.36499,-0.87998 3.795,-0.88 1.39332,2e-5 2.63998,0.29336 3.74,0.88 1.09998,0.55002 2.03498,1.30169 2.805,2.255 0.76998,0.91669 1.35665,1.98002 1.76,3.19 0.43998,1.21002 0.67831,2.47501 0.715,3.795 m -18.37,2.915 21.835,0 c 0.0733,-1.97999 -0.11002,-3.92332 -0.55,-5.83 -0.44002,-1.94332 -1.17336,-3.64831 -2.2,-5.115 -0.99002,-1.50331 -2.29169,-2.71331 -3.905,-3.63 -1.61335,-0.91664 -3.55668,-1.37497 -5.83,-1.375 -2.23668,3e-5 -4.18001,0.44003 -5.83,1.32 -1.61334,0.84336 -2.93334,1.98002 -3.96,3.41 -1.02667,1.39335 -1.79667,2.98835 -2.31,4.785 -0.47667,1.79668 -0.715,3.63001 -0.715,5.5 0,2.01668 0.23833,3.94167 0.715,5.775 0.51333,1.79667 1.28333,3.39167 2.31,4.785 1.02666,1.35667 2.34666,2.43833 3.96,3.245 1.64999,0.77 3.59332,1.155 5.83,1.155 3.59332,0 6.36165,-0.88 8.305,-2.64 1.97998,-1.76 3.33664,-4.25333 4.07,-7.48 l -3.465,0 c -0.55002,2.2 -1.54002,3.96 -2.97,5.28 -1.43002,1.32 -3.41002,1.98 -5.94,1.98 -1.65001,0 -3.06168,-0.34833 -4.235,-1.045 -1.17334,-0.69667 -2.14501,-1.57667 -2.915,-2.64 -0.77,-1.06333 -1.33834,-2.255 -1.705,-3.575 -0.33,-1.35666 -0.495,-2.65832 -0.495,-3.905"
         style="font-size:55px;font-weight:300;text-align:start;line-height:125%;writing-mode:lr-tb;text-anchor:start;fill:#ffffff;fill-opacity:1;stroke:none;font-family:Helvetica Neue;-inkscape-font-specification:Helvetica Neue Light"
         id="path4216"
         inkscape:connector-curvature="0" />
      <path
         d="m 411.17976,982.5116 0,-3.19 -21.395,0 c 0.21999,-1.28333 0.76999,-2.45666 1.65,-3.52 0.87999,-1.1 1.88832,-2.10833 3.025,-3.025 1.17332,-0.91666 2.38332,-1.74166 3.63,-2.475 1.24665,-0.76999 2.32831,-1.46666 3.245,-2.09 1.28331,-0.80665 2.49331,-1.66832 3.63,-2.585 1.17331,-0.95332 2.19997,-1.97998 3.08,-3.08 0.91664,-1.09998 1.63164,-2.30998 2.145,-3.63 0.54997,-1.31998 0.82497,-2.78664 0.825,-4.4 -3e-5,-1.79664 -0.3117,-3.37331 -0.935,-4.73 -0.5867,-1.35664 -1.43003,-2.47497 -2.53,-3.355 -1.06336,-0.91663 -2.32836,-1.59497 -3.795,-2.035 -1.43002,-0.47663 -2.98835,-0.71496 -4.675,-0.715 -2.09002,4e-5 -3.92335,0.34837 -5.5,1.045 -1.54001,0.66003 -2.82334,1.59503 -3.85,2.805 -1.02667,1.21003 -1.79667,2.65836 -2.31,4.345 -0.47667,1.65003 -0.69667,3.46502 -0.66,5.445 l 3.465,0 c -0.0367,-1.42998 0.0917,-2.78664 0.385,-4.07 0.32999,-1.28331 0.84332,-2.41997 1.54,-3.41 0.69665,-0.98997 1.59499,-1.7783 2.695,-2.365 1.13665,-0.58663 2.49332,-0.87997 4.07,-0.88 1.17331,3e-5 2.27331,0.18337 3.3,0.55 1.06331,0.33003 1.97998,0.84336 2.75,1.54 0.80664,0.66003 1.42997,1.48503 1.87,2.475 0.47664,0.95336 0.71497,2.05336 0.715,3.3 -3e-5,1.54002 -0.27503,2.87836 -0.825,4.015 -0.51336,1.10002 -1.30169,2.18169 -2.365,3.245 -1.06336,1.06335 -2.27335,2.07168 -3.63,3.025 -1.32002,0.91668 -2.65835,1.83335 -4.015,2.75 -1.35668,0.88001 -2.67668,1.81501 -3.96,2.805 -1.28334,0.95334 -2.43834,2.01667 -3.465,3.19 -1.02667,1.17334 -1.85167,2.49334 -2.475,3.96 -0.62334,1.46667 -0.95334,3.15333 -0.99,5.06 l 25.355,0"
         style="font-size:55px;font-weight:300;text-align:start;line-height:125%;writing-mode:lr-tb;text-anchor:start;fill:#ffffff;fill-opacity:1;stroke:none;font-family:Helvetica Neue;-inkscape-font-specification:Helvetica Neue Light"
         id="path4218"
         inkscape:connector-curvature="0" />
      <path
         d="m 429.74999,943.6816 c -2.78668,4e-5 -5.06001,0.62337 -6.82,1.87 -1.76001,1.21003 -3.135,2.76836 -4.125,4.675 -0.95334,1.90669 -1.61333,4.03336 -1.98,6.38 -0.33,2.34669 -0.495,4.65668 -0.495,6.93 0,2.23668 0.165,4.52834 0.495,6.875 0.36667,2.34667 1.02666,4.47334 1.98,6.38 0.99,1.90667 2.36499,3.465 4.125,4.675 1.75999,1.21 4.03332,1.815 6.82,1.815 2.82332,0 5.09665,-0.605 6.82,-1.815 1.75998,-1.21 3.11664,-2.76833 4.07,-4.675 0.98997,-1.90666 1.64997,-4.03333 1.98,-6.38 0.36664,-2.34666 0.54997,-4.65665 0.55,-6.93 -3e-5,-2.23665 -0.18336,-4.52831 -0.55,-6.875 -0.33003,-2.34664 -0.99003,-4.47331 -1.98,-6.38 -0.95336,-1.90664 -2.31002,-3.46497 -4.07,-4.675 -1.72335,-1.24663 -3.99668,-1.86996 -6.82,-1.87 m 0,2.915 c 2.19998,3e-5 3.95998,0.56837 5.28,1.705 1.31998,1.1367 2.30998,2.54836 2.97,4.235 0.69664,1.68669 1.15498,3.52002 1.375,5.5 0.21998,1.98002 0.32998,3.79502 0.33,5.445 -2e-5,1.68668 -0.11002,3.52001 -0.33,5.5 -0.22002,1.94334 -0.67836,3.77667 -1.375,5.5 -0.66002,1.68667 -1.65002,3.09833 -2.97,4.235 -1.32002,1.13667 -3.08002,1.705 -5.28,1.705 -2.20001,0 -3.96001,-0.56833 -5.28,-1.705 -1.32001,-1.13667 -2.32834,-2.54833 -3.025,-4.235 -0.66,-1.72333 -1.1,-3.55666 -1.32,-5.5 -0.22,-1.97999 -0.33,-3.81332 -0.33,-5.5 0,-1.64998 0.11,-3.46498 0.33,-5.445 0.22,-1.97998 0.66,-3.81331 1.32,-5.5 0.69666,-1.68664 1.70499,-3.0983 3.025,-4.235 1.31999,-1.13663 3.07999,-1.70497 5.28,-1.705"
         style="font-size:55px;font-weight:300;text-align:start;line-height:125%;writing-mode:lr-tb;text-anchor:start;fill:#ffffff;fill-opacity:1;stroke:none;font-family:Helvetica Neue;-inkscape-font-specification:Helvetica Neue Light"
         id="path4220"
         inkscape:connector-curvature="0" />
      <path
         d="m 450.41023,951.4366 0,2.475 10.175,0 0,28.6 3.465,0 0,-38.5 -2.805,0 c -0.25669,1.76003 -0.69669,3.13503 -1.32,4.125 -0.58669,0.95336 -1.33835,1.66836 -2.255,2.145 -0.88002,0.4767 -1.94335,0.78836 -3.19,0.935 -1.21001,0.11003 -2.56668,0.18336 -4.07,0.22"
         style="font-size:55px;font-weight:300;text-align:start;line-height:125%;writing-mode:lr-tb;text-anchor:start;fill:#ffffff;fill-opacity:1;stroke:none;font-family:Helvetica Neue;-inkscape-font-specification:Helvetica Neue Light"
         id="path4222"
         inkscape:connector-curvature="0" />
      <path
         d="m 500.00046,953.7466 3.465,0 c -0.40336,-3.40997 -1.61336,-5.93997 -3.63,-7.59 -2.01669,-1.64997 -4.74835,-2.47496 -8.195,-2.475 -2.09001,4e-5 -3.88668,0.3667 -5.39,1.1 -1.50334,0.73337 -2.76834,1.6867 -3.795,2.86 -0.99001,1.17336 -1.79667,2.49336 -2.42,3.96 -0.58667,1.43003 -1.045,2.86002 -1.375,4.29 -0.33,1.39336 -0.55,2.71335 -0.66,3.96 -0.0733,1.24668 -0.11,2.25502 -0.11,3.025 0,3.77668 0.25666,6.96668 0.77,9.57 0.55,2.56667 1.375,4.65667 2.475,6.27 1.09999,1.61333 2.49333,2.78666 4.18,3.52 1.68666,0.69666 3.70332,1.045 6.05,1.045 1.90665,0 3.64831,-0.31167 5.225,-0.935 1.61331,-0.66 2.98831,-1.55833 4.125,-2.695 1.17331,-1.17333 2.07164,-2.54833 2.695,-4.125 0.65997,-1.61333 0.98997,-3.35499 0.99,-5.225 -3e-5,-1.86999 -0.31169,-3.59332 -0.935,-5.17 -0.58669,-1.57665 -1.43003,-2.93332 -2.53,-4.07 -1.10002,-1.13665 -2.43836,-2.01665 -4.015,-2.64 -1.54002,-0.65998 -3.28168,-0.98998 -5.225,-0.99 -2.20001,2e-5 -4.23501,0.58669 -6.105,1.76 -1.83334,1.17335 -3.20834,2.71335 -4.125,4.62 l -0.11,0 c -10e-6,-1.75998 0.12833,-3.62998 0.385,-5.61 0.25666,-2.01664 0.76999,-3.88664 1.54,-5.61 0.76999,-1.72331 1.85166,-3.1533 3.245,-4.29 1.39332,-1.13663 3.20832,-1.70497 5.445,-1.705 2.23665,3e-5 4.05165,0.66003 5.445,1.98 1.42998,1.32003 2.29164,3.04336 2.585,5.17 m -8.36,6.6 c 1.46665,2e-5 2.76831,0.27502 3.905,0.825 1.17331,0.51335 2.14498,1.22835 2.915,2.145 0.80664,0.91668 1.41164,1.99835 1.815,3.245 0.43998,1.24668 0.65997,2.56668 0.66,3.96 -3e-5,1.32001 -0.22002,2.58501 -0.66,3.795 -0.44002,1.21 -1.08169,2.27334 -1.925,3.19 -0.80669,0.88 -1.77835,1.595 -2.915,2.145 -1.10002,0.51333 -2.34668,0.77 -3.74,0.77 -1.68668,0 -3.13501,-0.25667 -4.345,-0.77 -1.21001,-0.51333 -2.21834,-1.21 -3.025,-2.09 -0.77001,-0.91666 -1.33834,-1.98 -1.705,-3.19 -0.36667,-1.20999 -0.55001,-2.49333 -0.55,-3.85 -1e-5,-1.42999 0.20166,-2.74999 0.605,-3.96 0.43999,-1.24665 1.06333,-2.32832 1.87,-3.245 0.84332,-0.91665 1.85166,-1.63165 3.025,-2.145 1.20999,-0.54998 2.56665,-0.82498 4.07,-0.825"
         style="font-size:55px;font-weight:300;text-align:start;line-height:125%;writing-mode:lr-tb;text-anchor:start;fill:#ffffff;fill-opacity:1;stroke:none;font-family:Helvetica Neue;-inkscape-font-specification:Helvetica Neue Light"
         id="path4224"
         inkscape:connector-curvature="0" />
    </g>
    <g
       style="font-size:5px;font-style:normal;font-variant:normal;font-weight:500;font-stretch:normal;line-height:125%;letter-spacing:0px;word-spacing:0px;fill:#ffffff;fill-opacity:1;stroke:none;font-family:Patagonia;-inkscape-font-specification:Patagonia Medium"
       id="text4179"
       transform="matrix(0.9,0,0,0.9,92.496425,96.851411)">
      <path
         d="m 550.13823,944.06661 0,25.135 c 0,2.01668 0.275,3.94168 0.825,5.775 0.58666,1.79667 1.485,3.37334 2.695,4.73 1.24666,1.35667 2.82333,2.43833 4.73,3.245 1.94332,0.77 4.27165,1.155 6.985,1.155 2.74998,0 5.07831,-0.385 6.985,-1.155 1.94331,-0.80667 3.51997,-1.88833 4.73,-3.245 1.24664,-1.35666 2.14497,-2.93333 2.695,-4.73 0.58664,-1.83332 0.87997,-3.75832 0.88,-5.775 l 0,-25.135 -3.74,0 0,24.31 c -3e-5,2.27334 -0.25669,4.21668 -0.77,5.83 -0.51336,1.57667 -1.26503,2.87834 -2.255,3.905 -0.99002,0.99 -2.20002,1.72334 -3.63,2.2 -1.43002,0.44 -3.06168,0.66 -4.895,0.66 -1.79668,0 -3.41001,-0.22 -4.84,-0.66 -1.43001,-0.47666 -2.64001,-1.21 -3.63,-2.2 -0.99001,-1.02666 -1.74167,-2.32833 -2.255,-3.905 -0.51334,-1.61332 -0.77,-3.55666 -0.77,-5.83 l 0,-24.31 -3.74,0"
         style="font-size:55px;font-weight:300;text-align:start;line-height:125%;writing-mode:lr-tb;text-anchor:start;fill:#ffffff;fill-opacity:1;stroke:none;font-family:Helvetica Neue;-inkscape-font-specification:Helvetica Neue Light"
         id="path4227"
         inkscape:connector-curvature="0" />
      <path
         d="m 587.56831,954.95661 0,38.83 3.465,0 0,-15.84 0.11,0 c 0.36666,1.02667 0.87999,1.925 1.54,2.695 0.69666,0.77 1.48499,1.41167 2.365,1.925 0.87999,0.51333 1.83332,0.89833 2.86,1.155 1.02665,0.25666 2.05332,0.385 3.08,0.385 2.16331,0 4.03331,-0.385 5.61,-1.155 1.61331,-0.80667 2.95164,-1.88833 4.015,-3.245 1.06331,-1.39333 1.85164,-2.98833 2.365,-4.785 0.5133,-1.83332 0.76997,-3.75832 0.77,-5.775 -3e-5,-2.01665 -0.2567,-3.92332 -0.77,-5.72 -0.51336,-1.83331 -1.30169,-3.42831 -2.365,-4.785 -1.06336,-1.39331 -2.40169,-2.49331 -4.015,-3.3 -1.57669,-0.80664 -3.44669,-1.20997 -5.61,-1.21 -2.31001,3e-5 -4.38168,0.55003 -6.215,1.65 -1.79667,1.06336 -3.09834,2.58502 -3.905,4.565 l -0.11,0 0,-5.39 -3.19,0 m 22.715,14.19 c -3e-5,1.46668 -0.18336,2.93334 -0.55,4.4 -0.33002,1.43001 -0.88002,2.71334 -1.65,3.85 -0.73336,1.13667 -1.68669,2.07167 -2.86,2.805 -1.17335,0.69667 -2.58502,1.045 -4.235,1.045 -1.83335,0 -3.39168,-0.34833 -4.675,-1.045 -1.24668,-0.73333 -2.27334,-1.66833 -3.08,-2.805 -0.77001,-1.13666 -1.33834,-2.41999 -1.705,-3.85 -0.33001,-1.46666 -0.49501,-2.93332 -0.495,-4.4 -10e-6,-1.61332 0.14666,-3.15332 0.44,-4.62 0.32999,-1.46665 0.87999,-2.74998 1.65,-3.85 0.76999,-1.09998 1.79666,-1.97998 3.08,-2.64 1.28332,-0.65998 2.87832,-0.98997 4.785,-0.99 1.64998,3e-5 3.06165,0.36669 4.235,1.1 1.17331,0.69669 2.12664,1.61336 2.86,2.75 0.76998,1.13669 1.31998,2.43835 1.65,3.905 0.36664,1.43002 0.54997,2.87835 0.55,4.345"
         style="font-size:55px;font-weight:300;text-align:start;line-height:125%;writing-mode:lr-tb;text-anchor:start;fill:#ffffff;fill-opacity:1;stroke:none;font-family:Helvetica Neue;-inkscape-font-specification:Helvetica Neue Light"
         id="path4229"
         inkscape:connector-curvature="0" />
      <path
         d="m 619.15034,954.95661 0,38.83 3.465,0 0,-15.84 0.11,0 c 0.36666,1.02667 0.87999,1.925 1.54,2.695 0.69666,0.77 1.48499,1.41167 2.365,1.925 0.87999,0.51333 1.83332,0.89833 2.86,1.155 1.02665,0.25666 2.05332,0.385 3.08,0.385 2.16332,0 4.03331,-0.385 5.61,-1.155 1.61331,-0.80667 2.95164,-1.88833 4.015,-3.245 1.06331,-1.39333 1.85164,-2.98833 2.365,-4.785 0.51331,-1.83332 0.76997,-3.75832 0.77,-5.775 -3e-5,-2.01665 -0.25669,-3.92332 -0.77,-5.72 -0.51336,-1.83331 -1.30169,-3.42831 -2.365,-4.785 -1.06336,-1.39331 -2.40169,-2.49331 -4.015,-3.3 -1.57669,-0.80664 -3.44668,-1.20997 -5.61,-1.21 -2.31001,3e-5 -4.38168,0.55003 -6.215,1.65 -1.79667,1.06336 -3.09834,2.58502 -3.905,4.565 l -0.11,0 0,-5.39 -3.19,0 m 22.715,14.19 c -2e-5,1.46668 -0.18336,2.93334 -0.55,4.4 -0.33002,1.43001 -0.88002,2.71334 -1.65,3.85 -0.73335,1.13667 -1.68669,2.07167 -2.86,2.805 -1.17335,0.69667 -2.58502,1.045 -4.235,1.045 -1.83335,0 -3.39168,-0.34833 -4.675,-1.045 -1.24668,-0.73333 -2.27334,-1.66833 -3.08,-2.805 -0.77001,-1.13666 -1.33834,-2.41999 -1.705,-3.85 -0.33001,-1.46666 -0.495,-2.93332 -0.495,-4.4 0,-1.61332 0.14666,-3.15332 0.44,-4.62 0.32999,-1.46665 0.87999,-2.74998 1.65,-3.85 0.76999,-1.09998 1.79666,-1.97998 3.08,-2.64 1.28332,-0.65998 2.87832,-0.98997 4.785,-0.99 1.64998,3e-5 3.06165,0.36669 4.235,1.1 1.17331,0.69669 2.12665,1.61336 2.86,2.75 0.76998,1.13669 1.31998,2.43835 1.65,3.905 0.36664,1.43002 0.54998,2.87835 0.55,4.345"
         style="font-size:55px;font-weight:300;text-align:start;line-height:125%;writing-mode:lr-tb;text-anchor:start;fill:#ffffff;fill-opacity:1;stroke:none;font-family:Helvetica Neue;-inkscape-font-specification:Helvetica Neue Light"
         id="path4231"
         inkscape:connector-curvature="0" />
      <path
         d="m 667.72737,963.26161 3.465,0 c -0.0734,-1.53998 -0.38502,-2.87831 -0.935,-4.015 -0.55002,-1.13664 -1.30169,-2.08997 -2.255,-2.86 -0.91668,-0.76997 -1.99835,-1.33831 -3.245,-1.705 -1.21001,-0.36664 -2.53001,-0.54997 -3.96,-0.55 -1.24668,3e-5 -2.51167,0.14669 -3.795,0.44 -1.24667,0.29336 -2.38334,0.75169 -3.41,1.375 -1.02667,0.62336 -1.87,1.44836 -2.53,2.475 -0.62333,1.02669 -0.935,2.25502 -0.935,3.685 0,1.21002 0.20167,2.23668 0.605,3.08 0.40333,0.80668 0.95333,1.50335 1.65,2.09 0.73333,0.55001 1.57666,1.02668 2.53,1.43 0.95333,0.36668 1.99833,0.69668 3.135,0.99 l 4.455,0.99 c 0.76999,0.18334 1.52165,0.40334 2.255,0.66 0.76998,0.25668 1.44832,0.58668 2.035,0.99 0.58665,0.36668 1.04498,0.84334 1.375,1.43 0.36665,0.55001 0.54998,1.24667 0.55,2.09 -2e-5,0.99001 -0.25668,1.83334 -0.77,2.53 -0.47668,0.66 -1.10002,1.21 -1.87,1.65 -0.77001,0.44 -1.61335,0.75167 -2.53,0.935 -0.88001,0.18333 -1.74168,0.275 -2.585,0.275 -2.31001,0 -4.25334,-0.58667 -5.83,-1.76 -1.54,-1.21 -2.38334,-2.98833 -2.53,-5.335 l -3.465,0 c 0.29333,3.48334 1.46667,6.01334 3.52,7.59 2.09,1.57667 4.80333,2.365 8.14,2.365 1.31999,0 2.65832,-0.14667 4.015,-0.44 1.35665,-0.29333 2.56665,-0.77 3.63,-1.43 1.09998,-0.69667 1.99831,-1.57667 2.695,-2.64 0.69665,-1.1 1.04498,-2.41999 1.045,-3.96 -2e-5,-1.24666 -0.23835,-2.32832 -0.715,-3.245 -0.47669,-0.91666 -1.10002,-1.68666 -1.87,-2.31 -0.73335,-0.62332 -1.59502,-1.11832 -2.585,-1.485 -0.95335,-0.40332 -1.92501,-0.67832 -2.915,-0.825 l -4.62,-1.045 c -0.58668,-0.14665 -1.22834,-0.32998 -1.925,-0.55 -0.69667,-0.25665 -1.33834,-0.56832 -1.925,-0.935 -0.58667,-0.36665 -1.08167,-0.80665 -1.485,-1.32 -0.36667,-0.54998 -0.55,-1.20998 -0.55,-1.98 0,-0.91665 0.20166,-1.68664 0.605,-2.31 0.40333,-0.62331 0.935,-1.11831 1.595,-1.485 0.65999,-0.40331 1.37499,-0.67831 2.145,-0.825 0.80666,-0.18331 1.59499,-0.27497 2.365,-0.275 0.98999,3e-5 1.92499,0.12836 2.805,0.385 0.87999,0.22002 1.64999,0.58669 2.31,1.1 0.69665,0.51336 1.24665,1.17336 1.65,1.98 0.40332,0.77002 0.62332,1.68669 0.66,2.75"
         style="font-size:55px;font-weight:300;text-align:start;line-height:125%;writing-mode:lr-tb;text-anchor:start;fill:#ffffff;fill-opacity:1;stroke:none;font-family:Helvetica Neue;-inkscape-font-specification:Helvetica Neue Light"
         id="path4233"
         inkscape:connector-curvature="0" />
      <path
         d="m 676.82815,963.64661 3.465,0 c 0.0733,-2.30998 0.80666,-3.97831 2.2,-5.005 1.39333,-1.06331 3.18999,-1.59497 5.39,-1.595 1.02666,3e-5 1.97999,0.0917 2.86,0.275 0.91665,0.14669 1.70499,0.44002 2.365,0.88 0.69665,0.44002 1.22832,1.04502 1.595,1.815 0.40332,0.73335 0.60498,1.68669 0.605,2.86 -2e-5,0.77002 -0.11002,1.39335 -0.33,1.87 -0.18335,0.47668 -0.45835,0.86168 -0.825,1.155 -0.36668,0.25668 -0.82502,0.44002 -1.375,0.55 -0.55001,0.11002 -1.19168,0.20168 -1.925,0.275 -1.87001,0.22002 -3.72168,0.45835 -5.555,0.715 -1.79667,0.22001 -3.42834,0.62335 -4.895,1.21 -1.43,0.58668 -2.585,1.44835 -3.465,2.585 -0.88,1.10001 -1.32,2.64001 -1.32,4.62 0,1.43 0.23834,2.67667 0.715,3.74 0.51333,1.02667 1.19167,1.88833 2.035,2.585 0.88,0.66 1.88833,1.13667 3.025,1.43 1.17333,0.33 2.41999,0.495 3.74,0.495 1.39332,0 2.58499,-0.12834 3.575,-0.385 1.02666,-0.25667 1.92499,-0.62333 2.695,-1.1 0.80665,-0.47667 1.52165,-1.06333 2.145,-1.76 0.65998,-0.73333 1.30165,-1.55833 1.925,-2.475 l 0.11,0 c -2e-5,0.73334 0.0367,1.41167 0.11,2.035 0.10998,0.58667 0.31165,1.1 0.605,1.54 0.29331,0.44 0.69665,0.78833 1.21,1.045 0.54998,0.22 1.26498,0.33 2.145,0.33 0.47664,0 0.86164,-0.0183 1.155,-0.055 0.32998,-0.0367 0.69664,-0.0917 1.1,-0.165 l 0,-2.915 c -0.33002,0.14667 -0.69669,0.22 -1.1,0.22 -1.35669,0 -2.03502,-0.69666 -2.035,-2.09 l 0,-15.07 c -2e-5,-1.90665 -0.31169,-3.44664 -0.935,-4.62 -0.62335,-1.20998 -1.43002,-2.14497 -2.42,-2.805 -0.99002,-0.65997 -2.10835,-1.09997 -3.355,-1.32 -1.24668,-0.25664 -2.49334,-0.38497 -3.74,-0.385 -1.65001,3e-5 -3.15334,0.18336 -4.51,0.55 -1.35667,0.36669 -2.54834,0.93503 -3.575,1.705 -0.99,0.77003 -1.77833,1.76002 -2.365,2.97 -0.58667,1.21002 -0.935,2.64002 -1.045,4.29 m 18.48,4.18 0,4.51 c -2e-5,1.39334 -0.27502,2.64001 -0.825,3.74 -0.51335,1.10001 -1.22835,2.035 -2.145,2.805 -0.88001,0.77 -1.92501,1.35667 -3.135,1.76 -1.21001,0.40333 -2.47501,0.605 -3.795,0.605 -0.80667,0 -1.59501,-0.12833 -2.365,-0.385 -0.77,-0.25667 -1.44834,-0.62333 -2.035,-1.1 -0.58667,-0.51333 -1.06334,-1.1 -1.43,-1.76 -0.33,-0.69666 -0.495,-1.48499 -0.495,-2.365 0,-1.39333 0.40333,-2.45666 1.21,-3.19 0.84333,-0.76999 1.90666,-1.35666 3.19,-1.76 1.28333,-0.40332 2.69499,-0.69665 4.235,-0.88 1.57666,-0.21999 3.09832,-0.45832 4.565,-0.715 0.47665,-0.0733 1.02665,-0.20165 1.65,-0.385 0.62332,-0.18332 1.04498,-0.47665 1.265,-0.88 l 0.11,0"
         style="font-size:55px;font-weight:300;text-align:start;line-height:125%;writing-mode:lr-tb;text-anchor:start;fill:#ffffff;fill-opacity:1;stroke:none;font-family:Helvetica Neue;-inkscape-font-specification:Helvetica Neue Light"
         id="path4235"
         inkscape:connector-curvature="0" />
      <path
         d="m 705.78737,944.06661 0,39.27 3.465,0 0,-39.27 -3.465,0"
         style="font-size:55px;font-weight:300;text-align:start;line-height:125%;writing-mode:lr-tb;text-anchor:start;fill:#ffffff;fill-opacity:1;stroke:none;font-family:Helvetica Neue;-inkscape-font-specification:Helvetica Neue Light"
         id="path4237"
         inkscape:connector-curvature="0" />
      <path
         d="m 715.60745,963.64661 3.465,0 c 0.0733,-2.30998 0.80666,-3.97831 2.2,-5.005 1.39332,-1.06331 3.18999,-1.59497 5.39,-1.595 1.02665,3e-5 1.97999,0.0917 2.86,0.275 0.91665,0.14669 1.70498,0.44002 2.365,0.88 0.69665,0.44002 1.22831,1.04502 1.595,1.815 0.40331,0.73335 0.60498,1.68669 0.605,2.86 -2e-5,0.77002 -0.11002,1.39335 -0.33,1.87 -0.18335,0.47668 -0.45835,0.86168 -0.825,1.155 -0.36669,0.25668 -0.82502,0.44002 -1.375,0.55 -0.55002,0.11002 -1.19168,0.20168 -1.925,0.275 -1.87001,0.22002 -3.72168,0.45835 -5.555,0.715 -1.79668,0.22001 -3.42834,0.62335 -4.895,1.21 -1.43,0.58668 -2.585,1.44835 -3.465,2.585 -0.88,1.10001 -1.32,2.64001 -1.32,4.62 0,1.43 0.23833,2.67667 0.715,3.74 0.51333,1.02667 1.19166,1.88833 2.035,2.585 0.88,0.66 1.88833,1.13667 3.025,1.43 1.17333,0.33 2.41999,0.495 3.74,0.495 1.39332,0 2.58499,-0.12834 3.575,-0.385 1.02665,-0.25667 1.92498,-0.62333 2.695,-1.1 0.80665,-0.47667 1.52165,-1.06333 2.145,-1.76 0.65998,-0.73333 1.30165,-1.55833 1.925,-2.475 l 0.11,0 c -2e-5,0.73334 0.0367,1.41167 0.11,2.035 0.10998,0.58667 0.31165,1.1 0.605,1.54 0.29331,0.44 0.69664,0.78833 1.21,1.045 0.54998,0.22 1.26498,0.33 2.145,0.33 0.47664,0 0.86164,-0.0183 1.155,-0.055 0.32997,-0.0367 0.69664,-0.0917 1.1,-0.165 l 0,-2.915 c -0.33003,0.14667 -0.69669,0.22 -1.1,0.22 -1.35669,0 -2.03502,-0.69666 -2.035,-2.09 l 0,-15.07 c -2e-5,-1.90665 -0.31169,-3.44664 -0.935,-4.62 -0.62336,-1.20998 -1.43002,-2.14497 -2.42,-2.805 -0.99002,-0.65997 -2.10835,-1.09997 -3.355,-1.32 -1.24668,-0.25664 -2.49335,-0.38497 -3.74,-0.385 -1.65001,3e-5 -3.15334,0.18336 -4.51,0.55 -1.35667,0.36669 -2.54834,0.93503 -3.575,1.705 -0.99,0.77003 -1.77834,1.76002 -2.365,2.97 -0.58667,1.21002 -0.935,2.64002 -1.045,4.29 m 18.48,4.18 0,4.51 c -2e-5,1.39334 -0.27502,2.64001 -0.825,3.74 -0.51335,1.10001 -1.22835,2.035 -2.145,2.805 -0.88002,0.77 -1.92502,1.35667 -3.135,1.76 -1.21001,0.40333 -2.47501,0.605 -3.795,0.605 -0.80668,0 -1.59501,-0.12833 -2.365,-0.385 -0.77001,-0.25667 -1.44834,-0.62333 -2.035,-1.1 -0.58667,-0.51333 -1.06334,-1.1 -1.43,-1.76 -0.33,-0.69666 -0.495,-1.48499 -0.495,-2.365 0,-1.39333 0.40333,-2.45666 1.21,-3.19 0.84333,-0.76999 1.90666,-1.35666 3.19,-1.76 1.28332,-0.40332 2.69499,-0.69665 4.235,-0.88 1.57665,-0.21999 3.09832,-0.45832 4.565,-0.715 0.47665,-0.0733 1.02665,-0.20165 1.65,-0.385 0.62331,-0.18332 1.04498,-0.47665 1.265,-0.88 l 0.11,0"
         style="font-size:55px;font-weight:300;text-align:start;line-height:125%;writing-mode:lr-tb;text-anchor:start;fill:#ffffff;fill-opacity:1;stroke:none;font-family:Helvetica Neue;-inkscape-font-specification:Helvetica Neue Light"
         id="path4239"
         inkscape:connector-curvature="0" />
      <path
         d="m 751.16667,977.50661 -4.62,0 0,5.83 2.31,0 c 0.0367,0.40333 -10e-6,0.86166 -0.11,1.375 -0.0733,0.55 -0.22001,1.06333 -0.44,1.54 -0.22001,0.51333 -0.49501,0.97166 -0.825,1.375 -0.33001,0.40333 -0.71501,0.67833 -1.155,0.825 l 0,2.365 c 0.80666,-0.22001 1.50333,-0.58667 2.09,-1.1 0.62333,-0.51334 1.13666,-1.11834 1.54,-1.815 0.40332,-0.66001 0.69666,-1.39334 0.88,-2.2 0.21999,-0.77 0.32999,-1.55834 0.33,-2.365 l 0,-5.83"
         style="font-size:55px;font-weight:300;text-align:start;line-height:125%;writing-mode:lr-tb;text-anchor:start;fill:#ffffff;fill-opacity:1;stroke:none;font-family:Helvetica Neue;-inkscape-font-specification:Helvetica Neue Light"
         id="path4241"
         inkscape:connector-curvature="0" />
      <path
         d="m 777.43948,970.41161 -3.74,0 c -0.11,2.42001 0.20167,4.49167 0.935,6.215 0.77,1.72334 1.85166,3.135 3.245,4.235 1.39333,1.1 3.07999,1.925 5.06,2.475 1.97999,0.51333 4.12499,0.77 6.435,0.77 2.30998,0 4.28998,-0.22 5.94,-0.66 1.64998,-0.40333 3.02498,-0.935 4.125,-1.595 1.13664,-0.69667 2.01664,-1.46666 2.64,-2.31 0.65997,-0.84333 1.15497,-1.66833 1.485,-2.475 0.36664,-0.84333 0.58664,-1.63166 0.66,-2.365 0.10997,-0.73333 0.16497,-1.31999 0.165,-1.76 -3e-5,-1.61332 -0.27503,-2.98832 -0.825,-4.125 -0.51336,-1.13665 -1.24669,-2.08998 -2.2,-2.86 -0.91669,-0.80665 -1.99836,-1.46665 -3.245,-1.98 -1.21002,-0.54998 -2.51169,-1.00831 -3.905,-1.375 l -9.57,-2.365 c -0.80668,-0.18331 -1.57668,-0.42164 -2.31,-0.715 -0.69667,-0.29331 -1.32001,-0.67831 -1.87,-1.155 -0.55001,-0.47664 -0.99001,-1.04498 -1.32,-1.705 -0.29334,-0.69664 -0.44,-1.50331 -0.44,-2.42 0,-1.46664 0.275,-2.69497 0.825,-3.685 0.54999,-0.98997 1.26499,-1.7783 2.145,-2.365 0.91666,-0.6233 1.96166,-1.0633 3.135,-1.32 1.20999,-0.2933 2.45665,-0.43996 3.74,-0.44 1.39332,4e-5 2.71332,0.2017 3.96,0.605 1.28331,0.3667 2.40165,0.93503 3.355,1.705 0.98998,0.73337 1.77831,1.66837 2.365,2.805 0.62331,1.10003 0.97164,2.40169 1.045,3.905 l 3.74,0 c -3e-5,-2.01664 -0.40336,-3.77664 -1.21,-5.28 -0.77003,-1.53997 -1.81503,-2.8233 -3.135,-3.85 -1.32002,-1.02663 -2.86002,-1.79663 -4.62,-2.31 -1.76002,-0.51329 -3.61168,-0.76996 -5.555,-0.77 -2.75001,4e-5 -5.00501,0.40337 -6.765,1.21 -1.76001,0.77004 -3.15334,1.72337 -4.18,2.86 -0.99,1.1367 -1.66834,2.3467 -2.035,3.63 -0.36667,1.28336 -0.55,2.4017 -0.55,3.355 0,1.54003 0.23833,2.84169 0.715,3.905 0.51333,1.06336 1.17333,1.96169 1.98,2.695 0.80666,0.73335 1.74166,1.32002 2.805,1.76 1.09999,0.44002 2.21832,0.80669 3.355,1.1 l 8.745,2.145 c 0.91665,0.22002 1.85165,0.51335 2.805,0.88 0.95331,0.33002 1.81498,0.77001 2.585,1.32 0.80664,0.55001 1.44831,1.22835 1.925,2.035 0.51331,0.80668 0.76997,1.76001 0.77,2.86 -3e-5,1.43001 -0.34836,2.65834 -1.045,3.685 -0.69669,0.99 -1.57669,1.815 -2.64,2.475 -1.02669,0.62334 -2.14502,1.08167 -3.355,1.375 -1.21002,0.29333 -2.32835,0.44 -3.355,0.44 -1.79668,0 -3.48335,-0.165 -5.06,-0.495 -1.57668,-0.36666 -2.95167,-0.95333 -4.125,-1.76 -1.13667,-0.80666 -2.035,-1.88833 -2.695,-3.245 -0.66,-1.35666 -0.97167,-3.04332 -0.935,-5.06"
         style="font-size:55px;font-weight:300;text-align:start;line-height:125%;writing-mode:lr-tb;text-anchor:start;fill:#ffffff;fill-opacity:1;stroke:none;font-family:Helvetica Neue;-inkscape-font-specification:Helvetica Neue Light"
         id="path4243"
         inkscape:connector-curvature="0" />
      <path
         d="m 806.85675,954.95661 9.13,28.38 3.795,0 6.93,-23.87 0.11,0 6.985,23.87 3.795,0 9.13,-28.38 -3.685,0 -7.26,24.31 -0.11,0 -6.93,-24.31 -3.905,0 -6.93,24.31 -0.11,0 -7.26,-24.31 -3.685,0"
         style="font-size:55px;font-weight:300;text-align:start;line-height:125%;writing-mode:lr-tb;text-anchor:start;fill:#ffffff;fill-opacity:1;stroke:none;font-family:Helvetica Neue;-inkscape-font-specification:Helvetica Neue Light"
         id="path4245"
         inkscape:connector-curvature="0" />
      <path
         d="m 870.83464,967.16661 -18.37,0 c 0.14666,-1.28332 0.43999,-2.52998 0.88,-3.74 0.47666,-1.24665 1.09999,-2.32831 1.87,-3.245 0.76999,-0.95331 1.70499,-1.70498 2.805,-2.255 1.09999,-0.58664 2.36499,-0.87997 3.795,-0.88 1.39332,3e-5 2.63998,0.29336 3.74,0.88 1.09998,0.55002 2.03498,1.30169 2.805,2.255 0.76998,0.91669 1.35664,1.98002 1.76,3.19 0.43998,1.21002 0.67831,2.47502 0.715,3.795 m -18.37,2.915 21.835,0 c 0.0733,-1.97999 -0.11003,-3.92332 -0.55,-5.83 -0.44003,-1.94331 -1.17336,-3.64831 -2.2,-5.115 -0.99002,-1.50331 -2.29169,-2.71331 -3.905,-3.63 -1.61335,-0.91664 -3.55668,-1.37497 -5.83,-1.375 -2.23668,3e-5 -4.18001,0.44003 -5.83,1.32 -1.61334,0.84336 -2.93334,1.98002 -3.96,3.41 -1.02667,1.39336 -1.79667,2.98835 -2.31,4.785 -0.47667,1.79668 -0.715,3.63001 -0.715,5.5 0,2.01668 0.23833,3.94168 0.715,5.775 0.51333,1.79667 1.28333,3.39167 2.31,4.785 1.02666,1.35667 2.34666,2.43833 3.96,3.245 1.64999,0.77 3.59332,1.155 5.83,1.155 3.59331,0 6.36164,-0.88 8.305,-2.64 1.97997,-1.76 3.33664,-4.25333 4.07,-7.48 l -3.465,0 c -0.55002,2.20001 -1.54002,3.96 -2.97,5.28 -1.43002,1.32 -3.41002,1.98 -5.94,1.98 -1.65001,0 -3.06168,-0.34833 -4.235,-1.045 -1.17334,-0.69666 -2.14501,-1.57666 -2.915,-2.64 -0.77001,-1.06333 -1.33834,-2.25499 -1.705,-3.575 -0.33001,-1.35666 -0.49501,-2.65832 -0.495,-3.905"
         style="font-size:55px;font-weight:300;text-align:start;line-height:125%;writing-mode:lr-tb;text-anchor:start;fill:#ffffff;fill-opacity:1;stroke:none;font-family:Helvetica Neue;-inkscape-font-specification:Helvetica Neue Light"
         id="path4247"
         inkscape:connector-curvature="0" />
      <path
         d="m 903.97386,983.33661 0,-39.27 -3.465,0 0,16.28 -0.11,0 c -0.36669,-1.02664 -0.89836,-1.92498 -1.595,-2.695 -0.66003,-0.76997 -1.43002,-1.41164 -2.31,-1.925 -0.88002,-0.54997 -1.83335,-0.95331 -2.86,-1.21 -0.99002,-0.25664 -2.01669,-0.38497 -3.08,-0.385 -2.16335,3e-5 -4.05168,0.40336 -5.665,1.21 -1.57668,0.80669 -2.89668,1.90669 -3.96,3.3 -1.06334,1.35669 -1.85167,2.95169 -2.365,4.785 -0.51334,1.79668 -0.77,3.70335 -0.77,5.72 0,2.01668 0.25666,3.94168 0.77,5.775 0.51333,1.79667 1.30166,3.39167 2.365,4.785 1.06332,1.35667 2.38332,2.43833 3.96,3.245 1.61332,0.77 3.50165,1.155 5.665,1.155 1.02665,0 2.05331,-0.14667 3.08,-0.44 1.06331,-0.29333 2.05331,-0.69667 2.97,-1.21 0.91664,-0.55 1.72331,-1.21 2.42,-1.98 0.73331,-0.77 1.28331,-1.61333 1.65,-2.53 l 0.11,0 0,5.39 3.19,0 m -22.715,-14.19 c -10e-6,-1.46665 0.16499,-2.91498 0.495,-4.345 0.36666,-1.46665 0.91666,-2.76831 1.65,-3.905 0.76999,-1.13664 1.74165,-2.05331 2.915,-2.75 1.17332,-0.73331 2.58498,-1.09997 4.235,-1.1 1.83331,3e-5 3.37331,0.36669 4.62,1.1 1.28331,0.69669 2.30998,1.61336 3.08,2.75 0.80664,1.13669 1.37497,2.43835 1.705,3.905 0.36664,1.43002 0.54997,2.87835 0.55,4.345 -3e-5,1.46668 -0.18336,2.93334 -0.55,4.4 -0.33003,1.43001 -0.89836,2.71334 -1.705,3.85 -0.77002,1.13667 -1.79669,2.07167 -3.08,2.805 -1.24669,0.69667 -2.78669,1.045 -4.62,1.045 -1.65002,0 -3.06168,-0.34833 -4.235,-1.045 -1.17335,-0.73333 -2.14501,-1.66833 -2.915,-2.805 -0.73334,-1.13666 -1.28334,-2.41999 -1.65,-3.85 -0.33001,-1.46666 -0.49501,-2.93332 -0.495,-4.4"
         style="font-size:55px;font-weight:300;text-align:start;line-height:125%;writing-mode:lr-tb;text-anchor:start;fill:#ffffff;fill-opacity:1;stroke:none;font-family:Helvetica Neue;-inkscape-font-specification:Helvetica Neue Light"
         id="path4249"
         inkscape:connector-curvature="0" />
      <path
         d="m 930.99089,967.16661 -18.37,0 c 0.14666,-1.28332 0.43999,-2.52998 0.88,-3.74 0.47666,-1.24665 1.09999,-2.32831 1.87,-3.245 0.76999,-0.95331 1.70499,-1.70498 2.805,-2.255 1.09999,-0.58664 2.36499,-0.87997 3.795,-0.88 1.39332,3e-5 2.63998,0.29336 3.74,0.88 1.09998,0.55002 2.03498,1.30169 2.805,2.255 0.76998,0.91669 1.35664,1.98002 1.76,3.19 0.43998,1.21002 0.67831,2.47502 0.715,3.795 m -18.37,2.915 21.835,0 c 0.0733,-1.97999 -0.11003,-3.92332 -0.55,-5.83 -0.44003,-1.94331 -1.17336,-3.64831 -2.2,-5.115 -0.99002,-1.50331 -2.29169,-2.71331 -3.905,-3.63 -1.61335,-0.91664 -3.55668,-1.37497 -5.83,-1.375 -2.23668,3e-5 -4.18001,0.44003 -5.83,1.32 -1.61334,0.84336 -2.93334,1.98002 -3.96,3.41 -1.02667,1.39336 -1.79667,2.98835 -2.31,4.785 -0.47667,1.79668 -0.715,3.63001 -0.715,5.5 0,2.01668 0.23833,3.94168 0.715,5.775 0.51333,1.79667 1.28333,3.39167 2.31,4.785 1.02666,1.35667 2.34666,2.43833 3.96,3.245 1.64999,0.77 3.59332,1.155 5.83,1.155 3.59331,0 6.36164,-0.88 8.305,-2.64 1.97997,-1.76 3.33664,-4.25333 4.07,-7.48 l -3.465,0 c -0.55002,2.20001 -1.54002,3.96 -2.97,5.28 -1.43002,1.32 -3.41002,1.98 -5.94,1.98 -1.65001,0 -3.06168,-0.34833 -4.235,-1.045 -1.17334,-0.69666 -2.14501,-1.57666 -2.915,-2.64 -0.77001,-1.06333 -1.33834,-2.25499 -1.705,-3.575 -0.33001,-1.35666 -0.49501,-2.65832 -0.495,-3.905"
         style="font-size:55px;font-weight:300;text-align:start;line-height:125%;writing-mode:lr-tb;text-anchor:start;fill:#ffffff;fill-opacity:1;stroke:none;font-family:Helvetica Neue;-inkscape-font-specification:Helvetica Neue Light"
         id="path4251"
         inkscape:connector-curvature="0" />
      <path
         d="m 939.10511,954.95661 0,28.38 3.465,0 0,-16.555 c 0.0367,-1.39332 0.25666,-2.67665 0.66,-3.85 0.43999,-1.20998 1.02666,-2.23665 1.76,-3.08 0.76999,-0.87998 1.68665,-1.55831 2.75,-2.035 1.09998,-0.51331 2.34665,-0.76997 3.74,-0.77 1.39331,3e-5 2.54831,0.22002 3.465,0.66 0.95331,0.44002 1.70498,1.04502 2.255,1.815 0.54998,0.77002 0.93498,1.68669 1.155,2.75 0.21997,1.02669 0.32997,2.14502 0.33,3.355 l 0,17.71 3.465,0 0,-18.26 c -3e-5,-1.68665 -0.16503,-3.20831 -0.495,-4.565 -0.33003,-1.35664 -0.89836,-2.49331 -1.705,-3.41 -0.80669,-0.95331 -1.88836,-1.68664 -3.245,-2.2 -1.32002,-0.51331 -2.97002,-0.76997 -4.95,-0.77 -2.01668,3e-5 -3.86835,0.53169 -5.555,1.595 -1.68668,1.02669 -2.86001,2.40169 -3.52,4.125 l -0.11,0 0,-4.895 -3.465,0"
         style="font-size:55px;font-weight:300;text-align:start;line-height:125%;writing-mode:lr-tb;text-anchor:start;fill:#ffffff;fill-opacity:1;stroke:none;font-family:Helvetica Neue;-inkscape-font-specification:Helvetica Neue Light"
         id="path4253"
         inkscape:connector-curvature="0" />
    </g>
  </g>
</svg>
