<?xml version="1.0" encoding="UTF-8" standalone="no"?>
<!-- Created with Inkscape (http://www.inkscape.org/) -->

<svg
   xmlns:dc="http://purl.org/dc/elements/1.1/"
   xmlns:cc="http://creativecommons.org/ns#"
   xmlns:rdf="http://www.w3.org/1999/02/22-rdf-syntax-ns#"
   xmlns:svg="http://www.w3.org/2000/svg"
   xmlns="http://www.w3.org/2000/svg"
   xmlns:sodipodi="http://sodipodi.sourceforge.net/DTD/sodipodi-0.dtd"
   xmlns:inkscape="http://www.inkscape.org/namespaces/inkscape"
   version="1.1"
   width="45.405998"
   height="58.622917"
   id="svg12988"
   inkscape:version="0.48.4 r9939"
   sodipodi:docname="abund.svg">
  <sodipodi:namedview
     pagecolor="#ffffff"
     bordercolor="#666666"
     borderopacity="1"
     objecttolerance="10"
     gridtolerance="10"
     guidetolerance="10"
     inkscape:pageopacity="0"
     inkscape:pageshadow="2"
     inkscape:window-width="2556"
     inkscape:window-height="1384"
     id="namedview3032"
     showgrid="false"
     inkscape:zoom="5.3392089"
     inkscape:cx="29.920677"
     inkscape:cy="-3.7972433"
     inkscape:window-x="0"
     inkscape:window-y="54"
     inkscape:window-maximized="0"
     inkscape:current-layer="svg12988" />
  <defs
     id="defs12990" />
  <metadata
     id="metadata12993">
    <rdf:RDF>
      <cc:Work
         rdf:about="">
        <dc:format>image/svg+xml</dc:format>
        <dc:type
           rdf:resource="http://purl.org/dc/dcmitype/StillImage" />
        <dc:title />
      </cc:Work>
    </rdf:RDF>
  </metadata>
  <flowRoot
     xml:space="preserve"
     id="flowRoot4603"
     style="fill:black;stroke:none;stroke-opacity:1;stroke-width:1px;stroke-linejoin:miter;stroke-linecap:butt;fill-opacity:1;font-family:NotesEsa;font-style:normal;font-weight:normal;font-size:50px;line-height:125%;letter-spacing:0px;word-spacing:0px;-inkscape-font-specification:NotesEsa;font-stretch:normal;font-variant:normal"><flowRegion
       id="flowRegion4605"><rect
         id="rect4607"
         width="77.144333"
         height="105.22089"
         x="-15.495085"
         y="-9.9130344" /></flowRegion><flowPara
       id="flowPara4609" /></flowRoot>  <rect
     style="color:#000000;fill:#0d8380;fill-opacity:1;fill-rule:nonzero;stroke:none;stroke-width:10;marker:none;visibility:visible;display:inline;overflow:visible;enable-background:accumulate"
     id="rect2985-5-6-2-5-2-9"
     width="45.405998"
     height="45.405998"
     x="0"
     y="-0.0039099273" />
  <g
     style="font-size:13px;font-style:normal;font-variant:normal;font-weight:normal;font-stretch:normal;line-height:0%;letter-spacing:0px;word-spacing:0px;fill:#0d8380;fill-opacity:1;stroke:none;font-family:Alte Haas Grotesk;-inkscape-font-specification:Alte Haas Grotesk"
     id="text3002-4-3-4-8-37-1-6">
    <path
       d="m 10.277443,58.466919 -3.276,-9.477 -2.158,0 -3.367,9.477 1.989,0 0.637,-1.911 3.549,0 0.624,1.911 2.002,0 m -3.159,-3.536 -2.47,0 1.235,-3.705 1.235,3.705"
       style="font-weight:bold;line-height:0%;letter-spacing:-0.91000009px;fill:#0d8380;font-family:TeX Gyre Heros;-inkscape-font-specification:TeX Gyre Heros"
       id="path8077" />
    <path
       d="m 18.280974,55.736919 c 0,-0.935999 -0.507001,-1.677001 -1.573,-2.301 0.935999,-0.597999 1.3,-1.144001 1.3,-1.95 0,-1.338999 -1.118002,-2.496 -3.094,-2.496 l -4.225,0 0,9.477 4.264,0 c 2.209998,0 3.328,-1.170002 3.328,-2.73 m -2.145,-4.043 c 0,0.688999 -0.481001,1.066 -1.378,1.066 l -2.119,0 0,-2.145 2.119,0 c 0.896999,0 1.378,0.377001 1.378,1.079 m 0.273,3.926 c 0,0.792999 -0.494001,1.222 -1.443,1.222 l -2.327,0 0,-2.457 2.327,0 c 0.948999,0 1.443,0.429001 1.443,1.235"
       style="font-weight:bold;line-height:0%;letter-spacing:-0.91000009px;fill:#0d8380;font-family:TeX Gyre Heros;-inkscape-font-specification:TeX Gyre Heros"
       id="path8079" />
    <path
       d="m 26.609506,55.268919 0,-6.279 -1.95,0 0,6.279 c 0,1.143999 -0.585001,1.69 -1.807,1.69 -1.221999,0 -1.807,-0.546001 -1.807,-1.69 l 0,-6.279 -1.95,0 0,6.279 c 0,2.235998 1.586002,3.354 3.757,3.354 2.170998,0 3.757,-1.118002 3.757,-3.354"
       style="font-weight:bold;line-height:0%;letter-spacing:-0.91000009px;fill:#0d8380;font-family:TeX Gyre Heros;-inkscape-font-specification:TeX Gyre Heros"
       id="path8081" />
    <path
       d="m 35.185037,58.466919 0,-9.477 -1.95,0 0,6.448 -3.757,-6.448 -2.002,0 0,9.477 1.95,0 0,-6.552 3.809,6.552 1.95,0"
       style="font-weight:bold;line-height:0%;letter-spacing:-0.91000009px;fill:#0d8380;font-family:TeX Gyre Heros;-inkscape-font-specification:TeX Gyre Heros"
       id="path8083" />
    <path
       d="m 43.929569,53.721919 c 0,-1.455999 -0.403001,-2.743001 -1.157,-3.64 -0.637,-0.766999 -1.534002,-1.092 -2.99,-1.092 l -3.705,0 0,9.477 3.705,0 c 1.442998,0 2.34,-0.338001 2.99,-1.105 0.740999,-0.883999 1.157,-2.171002 1.157,-3.64 m -1.95,0.013 c 0,2.079998 -0.728002,3.107 -2.197,3.107 l -1.755,0 0,-6.227 1.755,0 c 1.468998,0 2.197,1.027002 2.197,3.12"
       style="font-weight:bold;line-height:0%;letter-spacing:-0.91000009px;fill:#0d8380;font-family:TeX Gyre Heros;-inkscape-font-specification:TeX Gyre Heros"
       id="path8085" />
  </g>
  <g
     id="g19006"
     transform="matrix(0.3907117,0,0,0.3907117,13.764301,-0.63968124)"
     style="fill:#ffffff;fill-opacity:1">
    <path
       id="path18990"
       d="m 7.92,51.727 v 39.598 4.046 c 0,7.898 6.46,14.363 14.363,14.363 h 1.196 c 7.897,0 14.357,-6.466 14.357,-14.363 v -4.046 -5.884 h -18.72 c -0.992,0 -1.793,-0.802 -1.793,-1.795 0,-0.99 0.801,-1.791 1.793,-1.791 h 18.72 v -5.314 h -13.59 c -0.992,0 -1.793,-0.806 -1.793,-1.797 0,-0.99 0.801,-1.793 1.793,-1.793 h 13.591 v -5.312 h -18.72 c -0.992,0 -1.793,-0.807 -1.793,-1.799 0,-0.99 0.801,-1.792 1.793,-1.792 h 18.72 V 58.735 H 24.246 c -0.992,0 -1.793,-0.806 -1.793,-1.798 0,-0.987 0.801,-1.793 1.793,-1.793 H 37.837 V 51.729 46.234 H 7.92 v 5.493 z"
       inkscape:connector-curvature="0"
       style="fill:#ffffff;fill-opacity:1" />
    <path
       id="path18992"
       d="M 39.635,35.024 H 38.097 7.659 6.122 c -1.312,0 -2.393,1.076 -2.393,2.392 v 1.636 c 0,1.106 0.775,1.999 1.796,2.273 0.195,0.05 0.386,0.121 0.597,0.121 h 1.798 29.917 1.798 c 0.21,0 0.4,-0.069 0.596,-0.121 1.021,-0.275 1.796,-1.167 1.796,-2.273 v -1.636 c 0,-1.316 -1.076,-2.392 -2.392,-2.392 z"
       inkscape:connector-curvature="0"
       style="fill:#ffffff;fill-opacity:1" />
    <path
       id="path18994"
       d="m 29.398,29.311 c 3.469,-0.131 6.176,-3.048 6.045,-6.516 -0.131,-3.468 -3.05,-6.172 -6.519,-6.039 -3.465,0.129 -6.171,3.044 -6.042,6.513 0.131,3.466 3.052,6.171 6.516,6.042 z"
       inkscape:connector-curvature="0"
       style="fill:#ffffff;fill-opacity:1" />
    <circle
       id="circle18996"
       r="4.217"
       cy="13.951"
       cx="16.929001"
       sodipodi:cx="16.929001"
       sodipodi:cy="13.951"
       sodipodi:rx="4.217"
       sodipodi:ry="4.217"
       d="m 21.146001,13.951 c 0,2.328985 -1.888015,4.217 -4.217,4.217 -2.328985,0 -4.217,-1.888015 -4.217,-4.217 0,-2.328985 1.888015,-4.2169998 4.217,-4.2169998 2.328985,0 4.217,1.8880148 4.217,4.2169998 z"
       style="fill:#ffffff;fill-opacity:1" />
    <path
       id="path18998"
       d="m 13.139,29.115 c 1.518,0 2.755,-1.232 2.755,-2.755 0,-1.522 -1.237,-2.759 -2.755,-2.759 -1.523,0 -2.761,1.237 -2.761,2.759 0,1.522 1.237,2.755 2.761,2.755 z"
       inkscape:connector-curvature="0"
       style="fill:#ffffff;fill-opacity:1" />
  </g>
</svg>
