<?xml version="1.0" encoding="UTF-8" standalone="no"?>
<!-- Created with Inkscape (http://www.inkscape.org/) -->

<svg
   xmlns:dc="http://purl.org/dc/elements/1.1/"
   xmlns:cc="http://creativecommons.org/ns#"
   xmlns:rdf="http://www.w3.org/1999/02/22-rdf-syntax-ns#"
   xmlns:svg="http://www.w3.org/2000/svg"
   xmlns="http://www.w3.org/2000/svg"
   xmlns:sodipodi="http://sodipodi.sourceforge.net/DTD/sodipodi-0.dtd"
   xmlns:inkscape="http://www.inkscape.org/namespaces/inkscape"
   version="1.1"
   width="45.405998"
   height="58.622917"
   id="svg12988"
   inkscape:version="0.48.4 r9939"
   sodipodi:docname="astrm.svg">
  <sodipodi:namedview
     pagecolor="#ffffff"
     bordercolor="#666666"
     borderopacity="1"
     objecttolerance="10"
     gridtolerance="10"
     guidetolerance="10"
     inkscape:pageopacity="0"
     inkscape:pageshadow="2"
     inkscape:window-width="2556"
     inkscape:window-height="1384"
     id="namedview4995"
     showgrid="false"
     inkscape:zoom="4.0257294"
     inkscape:cx="-19.276971"
     inkscape:cy="29.311459"
     inkscape:window-x="0"
     inkscape:window-y="54"
     inkscape:window-maximized="0"
     inkscape:current-layer="svg12988" />
  <defs
     id="defs12990" />
  <metadata
     id="metadata12993">
    <rdf:RDF>
      <cc:Work
         rdf:about="">
        <dc:format>image/svg+xml</dc:format>
        <dc:type
           rdf:resource="http://purl.org/dc/dcmitype/StillImage" />
        <dc:title />
      </cc:Work>
    </rdf:RDF>
  </metadata>
  <path
     inkscape:connector-curvature="0"
     id="path6288"
     style="fill:#464646;fill-opacity:1;fill-rule:nonzero;stroke:none"
     d="m 0,-0.00207654 45.405,0 0,45.40500954 -45.405,0 0,-45.40500954 z" />
  <g
     style="font-size:15px;fill:#464646;fill-opacity:1;stroke:none"
     id="text6290">
    <path
       d="m 8.934489,58.466919 -3.276,-9.477 -2.158,0 -3.36700003,9.477 1.98900003,0 0.637,-1.911 3.549,0 0.624,1.911 2.002,0 m -3.159,-3.536 -2.47,0 1.235,-3.705 1.235,3.705"
       style="font-size:13px;font-variant:normal;font-weight:bold;writing-mode:lr-tb;fill:#464646;fill-rule:nonzero;font-family:TeXGyreHeros;-inkscape-font-specification:TeXGyreHeros-Bold"
       id="path8066" />
    <path
       d="m 17.410476,55.619919 c 0,-1.494999 -0.754002,-2.197 -2.509,-2.535 l -1.482,-0.286 c -1.390999,-0.273 -1.794,-0.546001 -1.794,-1.235 0,-0.714999 0.637001,-1.17 1.638,-1.17 1.234998,0 1.989,0.520001 1.989,1.482 l 1.82,0 c 0,-2.001998 -1.404003,-3.042 -3.718,-3.042 -2.274998,0 -3.5880004,1.066002 -3.5880004,2.912 0,1.481998 0.7410024,2.171 2.6650004,2.548 l 1.326,0.26 c 1.299998,0.26 1.781,0.533001 1.781,1.3 0,0.792999 -0.728002,1.209 -1.911,1.209 -1.325999,0 -2.132,-0.559001 -2.132,-1.573 l -1.8980004,0 c 0,2.027998 1.5080024,3.133 3.9260004,3.133 2.443997,0 3.887,-1.079002 3.887,-3.003"
       style="font-size:13px;font-variant:normal;font-weight:bold;writing-mode:lr-tb;fill:#464646;fill-rule:nonzero;font-family:TeXGyreHeros;-inkscape-font-specification:TeXGyreHeros-Bold"
       id="path8068" />
    <path
       d="m 25.574463,50.614919 0,-1.625 -7.592,0 0,1.625 2.873,0 0,7.852 1.95,0 0,-7.852 2.769,0"
       style="font-size:13px;font-variant:normal;font-weight:bold;writing-mode:lr-tb;fill:#464646;fill-rule:nonzero;font-family:TeXGyreHeros;-inkscape-font-specification:TeXGyreHeros-Bold"
       id="path8070" />
    <path
       d="m 34.544486,58.466919 0,-0.351 c -0.298999,-0.169 -0.416,-0.364 -0.416,-0.78 -0.052,-2.794997 -0.104001,-2.925001 -1.313,-3.445 1.065999,-0.416 1.599,-1.183001 1.599,-2.34 0,-1.468999 -0.871001,-2.561 -2.548,-2.561 l -5.083,0 0,9.477 1.95,0 0,-3.757 2.236,0 c 0.845,0 1.209,0.338001 1.209,1.131 l -0.026,1.001 c 0,0.883999 0.052,1.17 0.299,1.625 l 2.093,0 m -2.08,-6.643 c 0,0.844999 -0.273001,1.261 -1.378,1.261 l -2.353,0 0,-2.47 2.353,0 c 1.065999,0 1.378,0.390001 1.378,1.209"
       style="font-size:13px;font-variant:normal;font-weight:bold;writing-mode:lr-tb;fill:#464646;fill-rule:nonzero;font-family:TeXGyreHeros;-inkscape-font-specification:TeXGyreHeros-Bold"
       id="path8072" />
    <path
       d="m 45.217475,58.466919 0,-9.477 -2.938,0 -1.664,7.54 -1.716,-7.54 -2.912,0 0,9.477 1.95,0 0,-7.384 1.703,7.384 1.95,0 1.677,-7.384 0,7.384 1.95,0"
       style="font-size:13px;font-variant:normal;font-weight:bold;writing-mode:lr-tb;fill:#464646;fill-rule:nonzero;font-family:TeXGyreHeros;-inkscape-font-specification:TeXGyreHeros-Bold"
       id="path8074" />
  </g>
  <path
     inkscape:connector-curvature="0"
     id="path6294"
     style="fill:#ffffff;fill-opacity:1;fill-rule:nonzero;stroke:none"
     d="m 23.16875,10.456673 1.83125,0 0,-3.6674995 1.83125,0 0,3.6674995 1.83625,0 0,-1.8312495 1.83,0 0,1.8312495 9.17,0 0,-5.4987495 -27.5,0 0,-1.835 29.33125,0 0,9.1649995 -29.33125,0 0,-1.83125 9.165,0 0,-1.8312495 1.83625,0 0,1.8312495 z M 10.3325,8.6254235 l 0,1.8312495 -3.6675,0 0,1.83125 3.6675,0 0,1.835 -1.83125,0 0,1.83125 1.83125,0 0,1.83626 -3.6675,0 0,1.8312 3.6675,0 0,1.835 -1.83125,0 0,1.8313 1.83125,0 0,1.8362 -3.6675,0 0,1.8313 3.6675,0 0,1.8362 -1.83125,0 0,1.8313 1.83125,0 0,1.835 -3.6675,0 0,1.8312 3.6675,0 0,1.8363 -1.83125,0 0,1.8312 1.83125,0 0,1.8313 -5.49875,0 0,-34.8300095 5.49875,0 0,1.83125 -1.83125,0 0,1.83625 1.83125,0 z m -7.335,-5.5025 0,38.5000095 9.17,0 0,-38.5000095 -9.17,0 z m 11.00125,5.5025 0,1.8312495 1.83625,0 0,-1.8312495 -1.83625,0 z m 22.0025,0 0,1.8312495 1.83125,0 0,-1.8312495 -1.83125,0 z m -3.6675,-1.83625 0,3.6674995 1.83125,0 0,-3.6674995 -1.83125,0 z m -14.6675,0 0,3.6674995 1.83625,0 0,-3.6674995 -1.83625,0 z" />
</svg>
