<?xml version="1.0" encoding="UTF-8" standalone="no"?>
<!-- Created with Inkscape (http://www.inkscape.org/) -->

<svg
   xmlns:dc="http://purl.org/dc/elements/1.1/"
   xmlns:cc="http://creativecommons.org/ns#"
   xmlns:rdf="http://www.w3.org/1999/02/22-rdf-syntax-ns#"
   xmlns:svg="http://www.w3.org/2000/svg"
   xmlns="http://www.w3.org/2000/svg"
   xmlns:sodipodi="http://sodipodi.sourceforge.net/DTD/sodipodi-0.dtd"
   xmlns:inkscape="http://www.inkscape.org/namespaces/inkscape"
   version="1.1"
   width="45.405998"
   height="58.622917"
   id="svg12988"
   inkscape:version="0.48.4 r9939"
   sodipodi:docname="atmos.svg">
  <sodipodi:namedview
     pagecolor="#ffffff"
     bordercolor="#666666"
     borderopacity="1"
     objecttolerance="10"
     gridtolerance="10"
     guidetolerance="10"
     inkscape:pageopacity="0"
     inkscape:pageshadow="2"
     inkscape:window-width="2556"
     inkscape:window-height="1384"
     id="namedview4725"
     showgrid="false"
     inkscape:zoom="4.0257294"
     inkscape:cx="22.702999"
     inkscape:cy="29.311459"
     inkscape:window-x="0"
     inkscape:window-y="54"
     inkscape:window-maximized="0"
     inkscape:current-layer="svg12988" />
  <defs
     id="defs12990" />
  <metadata
     id="metadata12993">
    <rdf:RDF>
      <cc:Work
         rdf:about="">
        <dc:format>image/svg+xml</dc:format>
        <dc:type
           rdf:resource="http://purl.org/dc/dcmitype/StillImage" />
        <dc:title />
      </cc:Work>
    </rdf:RDF>
  </metadata>
  <rect
     style="color:#000000;fill:#7b2438;fill-opacity:1;fill-rule:nonzero;stroke:none;stroke-width:10;marker:none;visibility:visible;display:inline;overflow:visible;enable-background:accumulate"
     id="rect2985-5-6-2-2"
     width="45.405998"
     height="45.405998"
     x="0"
     y="-0.0039156494" />
  <g
     style="font-size:13px;font-style:normal;font-variant:normal;font-weight:normal;font-stretch:normal;line-height:125%;letter-spacing:0px;word-spacing:0px;fill:#7b2438;fill-opacity:1;stroke:none;font-family:TeX Gyre Heros;-inkscape-font-specification:TeX Gyre Heros"
     id="text3002-4-3-4-8-4">
    <path
       d="m 9.7544785,58.466919 -3.276,-9.477 -2.158,0 -3.36699998,9.477 1.98899998,0 0.637,-1.911 3.549,0 0.624,1.911 2.002,0 m -3.159,-3.536 -2.47,0 1.235,-3.705 1.235,3.705"
       style="font-weight:bold;letter-spacing:-0.41px;fill:#7b2438;font-family:TeX Gyre Heros;-inkscape-font-specification:TeX Gyre Heros"
       id="path7508" />
    <path
       d="m 16.332994,50.614919 0,-1.625 -7.5919997,0 0,1.625 2.8729997,0 0,7.852 1.95,0 0,-7.852 2.769,0"
       style="font-weight:bold;letter-spacing:-0.41px;fill:#7b2438;font-family:TeX Gyre Heros;-inkscape-font-specification:TeX Gyre Heros"
       id="path7510" />
    <path
       d="m 26.18426,58.466919 0,-9.477 -2.938,0 -1.664,7.54 -1.716,-7.54 -2.912,0 0,9.477 1.95,0 0,-7.384 1.703,7.384 1.95,0 1.677,-7.384 0,7.384 1.95,0"
       style="font-weight:bold;letter-spacing:-0.41px;fill:#7b2438;font-family:TeX Gyre Heros;-inkscape-font-specification:TeX Gyre Heros"
       id="path7512" />
    <path
       d="m 36.174057,53.786919 c 0,-2.859997 -1.807003,-4.953 -4.576,-4.953 -2.781997,0 -4.55,2.171003 -4.55,4.888 0,2.833997 1.781003,4.901 4.563,4.901 2.755997,0 4.563,-2.067003 4.563,-4.836 m -1.95,-0.013 c 0,1.936998 -1.053001,3.185 -2.613,3.185 -1.572998,0 -2.613,-1.248002 -2.613,-3.237 0,-1.910998 1.040002,-3.224 2.613,-3.224 1.598998,0 2.613,1.300002 2.613,3.276"
       style="font-weight:bold;letter-spacing:-0.41px;fill:#7b2438;font-family:TeX Gyre Heros;-inkscape-font-specification:TeX Gyre Heros"
       id="path7514" />
    <path
       d="m 44.452526,55.619919 c 0,-1.494999 -0.754002,-2.197 -2.509,-2.535 l -1.482,-0.286 c -1.390999,-0.273 -1.794,-0.546001 -1.794,-1.235 0,-0.714999 0.637001,-1.17 1.638,-1.17 1.234999,0 1.989,0.520001 1.989,1.482 l 1.82,0 c 0,-2.001998 -1.404002,-3.042 -3.718,-3.042 -2.274998,0 -3.588,1.066002 -3.588,2.912 0,1.481998 0.741002,2.171 2.665,2.548 l 1.326,0.26 c 1.299999,0.26 1.781,0.533001 1.781,1.3 0,0.792999 -0.728001,1.209 -1.911,1.209 -1.325999,0 -2.132,-0.559001 -2.132,-1.573 l -1.898,0 c 0,2.027998 1.508002,3.133 3.926,3.133 2.443998,0 3.887,-1.079002 3.887,-3.003"
       style="font-weight:bold;letter-spacing:-0.41px;fill:#7b2438;font-family:TeX Gyre Heros;-inkscape-font-specification:TeX Gyre Heros"
       id="path7516" />
  </g>
  <g
     id="g5619"
     transform="matrix(0.41136549,0,0,0.41136549,2.1345091,2.1308182)"
     style="fill:#fffeff;fill-opacity:1">
    <path
       id="path5605"
       d="m 28.771,17.173 c 5.02,1.652 10.008,3.406 15.067,4.925 5.057,1.516 10.115,3.476 15.299,4.009 6.457,0.665 12.558,-4.046 14.61,-10.262 1.062,-3.222 2.696,-2.23 4.53,-1.064 7.34,4.669 11.965,11.562 14.427,19.615 1.563,5.117 1.782,10.681 2.272,16.075 0.271,2.974 -1.71,4.844 -4.278,6.18 C 76.11,64.244 62.758,61.385 49.63,52.602 42.477,47.817 34.843,43.535 26.934,40.184 22.903,38.476 17.789,39.111 13.163,39.082 8.035,39.052 6.236,37.184 8.255,32.619 12.407,23.226 16.86,18.049 28.771,17.173 z"
       clip-rule="evenodd"
       inkscape:connector-curvature="0"
       style="fill:#fffeff;fill-opacity:1;fill-rule:evenodd" />
    <path
       id="path5607"
       d="m 5.006,54.279 c -0.057,-7.91 0.199,-7.67 5.821,-8.992 11.541,-2.715 20.914,1.757 29.956,7.999 6.697,4.621 13.166,9.583 21.258,11.819 8.952,2.476 17.654,2.253 26.341,-1.026 1.229,-0.463 2.712,-0.253 4.077,-0.354 -0.207,1.363 -0.17,2.824 -0.66,4.075 -5.368,13.711 -21.246,16.426 -34.401,10.659 -3.896,-1.708 -7.819,-3.488 -11.901,-4.616 -8.061,-2.228 -15.919,1.389 -19.252,8.956 -1.49,3.38 -2.824,3.047 -5.266,1.246 C 10.23,76.111 6.221,64.851 5.006,54.279 z"
       clip-rule="evenodd"
       inkscape:connector-curvature="0"
       style="fill:#fffeff;fill-opacity:1;fill-rule:evenodd" />
    <path
       id="path5609"
       d="m 72.867,89.96 c -5.53,1.722 -10.052,3.428 -14.719,4.514 -7.909,1.84 -15.677,0.96 -23.056,-2.482 -4.632,-2.162 -5.158,-7.041 -1.304,-10.342 3.779,-3.238 8.233,-3.479 12.464,-1.9 7.835,2.926 15.173,7.26 23.797,7.833 0.587,0.038 1.121,0.91 2.818,2.377 z"
       clip-rule="evenodd"
       inkscape:connector-curvature="0"
       style="fill:#fffeff;fill-opacity:1;fill-rule:evenodd" />
    <path
       id="path5611"
       d="M 28.966,9.381 C 33.16,8.024 37.268,6.18 41.567,5.417 48.72,4.147 55.928,4.114 62.916,6.879 c 3.164,1.251 5.53,3.192 5.36,6.673 -0.173,3.499 -2.896,5.705 -6.016,6.109 -3.469,0.449 -7.273,0.376 -10.602,-0.593 -7.012,-2.042 -13.809,-4.815 -20.69,-7.3 -0.586,-0.213 -1.14,-0.517 -1.71,-0.778 -0.096,-0.537 -0.195,-1.073 -0.292,-1.609 z"
       clip-rule="evenodd"
       inkscape:connector-curvature="0"
       style="fill:#fffeff;fill-opacity:1;fill-rule:evenodd" />
  </g>
</svg>
