<?xml version="1.0" encoding="UTF-8" standalone="no"?>
<!-- Created with Inkscape (http://www.inkscape.org/) -->

<svg
   xmlns:dc="http://purl.org/dc/elements/1.1/"
   xmlns:cc="http://creativecommons.org/ns#"
   xmlns:rdf="http://www.w3.org/1999/02/22-rdf-syntax-ns#"
   xmlns:svg="http://www.w3.org/2000/svg"
   xmlns="http://www.w3.org/2000/svg"
   xmlns:sodipodi="http://sodipodi.sourceforge.net/DTD/sodipodi-0.dtd"
   xmlns:inkscape="http://www.inkscape.org/namespaces/inkscape"
   version="1.1"
   width="45.405998"
   height="58.622917"
   id="svg12988"
   inkscape:version="0.48.4 r9939"
   sodipodi:docname="bio.svg">
  <sodipodi:namedview
     pagecolor="#ffffff"
     bordercolor="#666666"
     borderopacity="1"
     objecttolerance="10"
     gridtolerance="10"
     guidetolerance="10"
     inkscape:pageopacity="0"
     inkscape:pageshadow="2"
     inkscape:window-width="2556"
     inkscape:window-height="1384"
     id="namedview5044"
     showgrid="false"
     inkscape:zoom="4.0257294"
     inkscape:cx="22.702999"
     inkscape:cy="29.311459"
     inkscape:window-x="0"
     inkscape:window-y="54"
     inkscape:window-maximized="0"
     inkscape:current-layer="svg12988" />
  <defs
     id="defs12990" />
  <metadata
     id="metadata12993">
    <rdf:RDF>
      <cc:Work
         rdf:about="">
        <dc:format>image/svg+xml</dc:format>
        <dc:type
           rdf:resource="http://purl.org/dc/dcmitype/StillImage" />
        <dc:title />
      </cc:Work>
    </rdf:RDF>
  </metadata>
  <rect
     style="color:#000000;fill:#2fbde2;fill-opacity:1;fill-rule:nonzero;stroke:none;stroke-width:10;marker:none;visibility:visible;display:inline;overflow:visible;enable-background:accumulate"
     id="rect2985-5-6-2"
     y="-0.0039043848"
     x="-2.9296875e-06"
     height="45.405998"
     width="45.405998" />
  <g
     style="font-size:13px;font-style:normal;font-variant:normal;font-weight:normal;font-stretch:normal;line-height:125%;letter-spacing:0px;word-spacing:0px;fill:#2fbde2;fill-opacity:1;stroke:none;font-family:Alte Haas Grotesk;-inkscape-font-specification:Alte Haas Grotesk"
     id="text3002-4-3-4-8">
    <path
       d="m 19.505013,55.736919 c 0,-0.935999 -0.507001,-1.677001 -1.573,-2.301 0.936,-0.597999 1.3,-1.144001 1.3,-1.95 0,-1.338999 -1.118002,-2.496 -3.094,-2.496 l -4.225,0 0,9.477 4.264,0 c 2.209998,0 3.328,-1.170002 3.328,-2.73 m -2.145,-4.043 c 0,0.688999 -0.481,1.066 -1.378,1.066 l -2.119,0 0,-2.145 2.119,0 c 0.897,0 1.378,0.377001 1.378,1.079 m 0.273,3.926 c 0,0.792999 -0.494,1.222 -1.443,1.222 l -2.327,0 0,-2.457 2.327,0 c 0.949,0 1.443,0.429001 1.443,1.235"
       style="font-weight:bold;fill:#2fbde2;font-family:TeX Gyre Heros;-inkscape-font-specification:TeX Gyre Heros"
       id="path7501" />
    <path
       d="m 23.010545,58.466919 0,-9.477 -1.95,0 0,9.477 1.95,0"
       style="font-weight:bold;fill:#2fbde2;font-family:TeX Gyre Heros;-inkscape-font-specification:TeX Gyre Heros"
       id="path7503" />
    <path
       d="m 33.493013,53.786919 c 0,-2.859997 -1.807002,-4.953 -4.576,-4.953 -2.781997,0 -4.55,2.171003 -4.55,4.888 0,2.833997 1.781003,4.901 4.563,4.901 2.755998,0 4.563,-2.067003 4.563,-4.836 m -1.95,-0.013 c 0,1.936998 -1.053001,3.185 -2.613,3.185 -1.572998,0 -2.613,-1.248002 -2.613,-3.237 0,-1.910998 1.040002,-3.224 2.613,-3.224 1.598999,0 2.613,1.300002 2.613,3.276"
       style="font-weight:bold;fill:#2fbde2;font-family:TeX Gyre Heros;-inkscape-font-specification:TeX Gyre Heros"
       id="path7505" />
  </g>
  <g
     style="fill:#ffffff;fill-opacity:1"
     id="g4262"
     transform="matrix(1.6025556,0,0,1.6025556,2.44428,2.02612)">
    <path
       inkscape:connector-curvature="0"
       style="fill:#ffffff;fill-opacity:1"
       id="path4224"
       d="m 24.147,20.061 1.136,-1.136 c -1.13,-1.131 -2.503,-1.867 -3.95,-2.22 l -0.007,-0.007 -0.004,0.004 C 20.396,16.478 19.44,16.407 18.495,16.498 18.731,14.074 17.926,11.566 16.069,9.71 14.217,7.858 11.719,7.053 9.302,7.284 9.709,4.709 8.928,1.983 6.942,0 L 5.806,1.137 c 0.185,0.184 0.35,0.381 0.509,0.581 L 1.718,6.314 C 1.518,6.155 1.321,5.99 1.137,5.805 L 0,6.941 c 1.984,1.985 4.71,2.768 7.285,2.36 -0.231,2.418 0.574,4.915 2.426,6.768 1.856,1.857 4.362,2.662 6.786,2.428 -0.413,2.579 0.371,5.314 2.36,7.303 l 1.136,-1.138 c -0.164,-0.165 -0.308,-0.339 -0.452,-0.517 l 4.329,-4.329 c 0.092,0.083 0.189,0.157 0.277,0.245 z m -6.102,0.548 2.442,-2.442 c 0.173,0.031 0.344,0.074 0.516,0.117 l -2.867,2.868 c -0.035,-0.18 -0.07,-0.36 -0.091,-0.543 z m 0.159,-2.454 c 0.57,-0.094 1.149,-0.109 1.724,-0.058 l -1.922,1.922 c -0.018,-0.625 0.043,-1.253 0.198,-1.864 z m -4.635,-1.56 3.026,-3.025 c 0.053,0.165 0.093,0.332 0.133,0.499 l -2.659,2.661 c -0.168,-0.042 -0.335,-0.082 -0.5,-0.135 z m 2.855,-3.484 -3.313,3.312 c -0.509,-0.206 -0.996,-0.475 -1.453,-0.809 l 3.958,-3.957 c 0.333,0.458 0.601,0.945 0.808,1.454 z m -1.489,-2.037 0.316,0.317 -3.946,3.946 C 11.191,15.242 11.079,15.145 10.97,15.04 l 3.965,-3.966 z m -5.676,1.334 3.148,-3.149 c 0.155,0.056 0.311,0.106 0.461,0.173 L 9.43,12.869 C 9.364,12.717 9.314,12.562 9.259,12.408 z M 11.932,9.105 9.106,11.932 C 8.837,10.957 8.779,9.937 8.948,8.946 c 0.99,-0.17 2.01,-0.111 2.984,0.159 z M 5.894,7.803 C 5.696,7.801 5.5,7.779 5.304,7.76 L 7.762,5.302 c 0.018,0.196 0.04,0.393 0.042,0.591 l -1.91,1.91 z M 4.75,7.683 C 4.103,7.566 3.473,7.356 2.875,7.052 L 7.053,2.875 C 7.357,3.472 7.567,4.102 7.684,4.748 L 4.75,7.683 z m 1.83,-5.6 C 6.667,2.208 6.756,2.334 6.833,2.464 L 2.465,6.833 C 2.335,6.755 2.209,6.667 2.084,6.58 L 6.58,2.083 z M 6.559,7.769 7.769,6.558 C 7.738,6.909 7.69,7.26 7.605,7.604 7.261,7.689 6.91,7.737 6.559,7.769 z m 3.087,5.515 3.64,-3.638 c 0.51,0.269 0.992,0.605 1.434,1.013 l -4.06,4.062 C 10.251,14.277 9.914,13.794 9.646,13.284 z m 4.944,3.553 2.247,-2.247 c 0.119,0.743 0.122,1.5 -0.005,2.243 -0.742,0.126 -1.499,0.123 -2.242,0.004 z m 4.678,6.953 c -0.089,-0.125 -0.173,-0.252 -0.252,-0.382 l 4.146,-4.146 0.317,0.316 -4.211,4.212 z m -0.482,-0.783 c -0.227,-0.43 -0.409,-0.877 -0.537,-1.336 l 3.244,-3.247 c 0.446,0.149 0.878,0.342 1.292,0.585 l -3.999,3.998 z" />
    <g
       style="fill:#ffffff;fill-opacity:1"
       id="g4226" />
    <g
       style="fill:#ffffff;fill-opacity:1"
       id="g4228" />
    <g
       style="fill:#ffffff;fill-opacity:1"
       id="g4230" />
    <g
       style="fill:#ffffff;fill-opacity:1"
       id="g4232" />
    <g
       style="fill:#ffffff;fill-opacity:1"
       id="g4234" />
    <g
       style="fill:#ffffff;fill-opacity:1"
       id="g4236" />
    <g
       style="fill:#ffffff;fill-opacity:1"
       id="g4238" />
    <g
       style="fill:#ffffff;fill-opacity:1"
       id="g4240" />
    <g
       style="fill:#ffffff;fill-opacity:1"
       id="g4242" />
    <g
       style="fill:#ffffff;fill-opacity:1"
       id="g4244" />
    <g
       style="fill:#ffffff;fill-opacity:1"
       id="g4246" />
    <g
       style="fill:#ffffff;fill-opacity:1"
       id="g4248" />
    <g
       style="fill:#ffffff;fill-opacity:1"
       id="g4250" />
    <g
       style="fill:#ffffff;fill-opacity:1"
       id="g4252" />
    <g
       style="fill:#ffffff;fill-opacity:1"
       id="g4254" />
  </g>
</svg>
