<?xml version="1.0" encoding="UTF-8" standalone="no"?>
<!-- Created with Inkscape (http://www.inkscape.org/) -->

<svg
   xmlns:dc="http://purl.org/dc/elements/1.1/"
   xmlns:cc="http://creativecommons.org/ns#"
   xmlns:rdf="http://www.w3.org/1999/02/22-rdf-syntax-ns#"
   xmlns:svg="http://www.w3.org/2000/svg"
   xmlns="http://www.w3.org/2000/svg"
   xmlns:sodipodi="http://sodipodi.sourceforge.net/DTD/sodipodi-0.dtd"
   xmlns:inkscape="http://www.inkscape.org/namespaces/inkscape"
   version="1.1"
   width="45.405998"
   height="58.622917"
   id="svg12988"
   inkscape:version="0.48.4 r9939"
   sodipodi:docname="interf.svg">
  <sodipodi:namedview
     pagecolor="#ffffff"
     bordercolor="#666666"
     borderopacity="1"
     objecttolerance="10"
     gridtolerance="10"
     guidetolerance="10"
     inkscape:pageopacity="0"
     inkscape:pageshadow="2"
     inkscape:window-width="2556"
     inkscape:window-height="1384"
     id="namedview5564"
     showgrid="false"
     inkscape:zoom="4.0257294"
     inkscape:cx="22.702999"
     inkscape:cy="29.311459"
     inkscape:window-x="0"
     inkscape:window-y="54"
     inkscape:window-maximized="0"
     inkscape:current-layer="svg12988" />
  <defs
     id="defs12990" />
  <metadata
     id="metadata12993">
    <rdf:RDF>
      <cc:Work
         rdf:about="">
        <dc:format>image/svg+xml</dc:format>
        <dc:type
           rdf:resource="http://purl.org/dc/dcmitype/StillImage" />
        <dc:title />
      </cc:Work>
    </rdf:RDF>
  </metadata>
  <rect
     style="color:#000000;fill:#23c97e;fill-opacity:1;fill-rule:nonzero;stroke:none;stroke-width:10;marker:none;visibility:visible;display:inline;overflow:visible;enable-background:accumulate"
     id="rect2985-5-6-2-5-2-9-2"
     y="0.15210147"
     x="-2.9296875e-06"
     height="45.405998"
     width="45.405998" />
  <path
     inkscape:connector-curvature="0"
     style="color:#000000;fill:#ffffff;fill-opacity:1;fill-rule:nonzero;stroke:none;stroke-width:1.5;marker:none;visibility:visible;display:inline;overflow:visible;enable-background:accumulate"
     id="path3084"
     d="m 22.47267,5.15854 c -1.21233,0 -2.39558,0.1215 -3.53931,0.3539 l 0,34.68529 c 1.14373,0.2323 2.32698,0.3539 3.53931,0.3539 l 0,-35.39309 z m 3.53932,0.3539 0,34.68529 c 1.23133,-0.25 2.41527,-0.6281 3.53931,-1.1193 l 0,-32.44669 c -1.12404,-0.4913 -2.30798,-0.8693 -3.53931,-1.1193 z m -10.61794,1.1193 c -1.26299,0.5522 -2.45053,1.2482 -3.53932,2.0661 l 0,28.31449 c 1.08879,0.8179 2.27633,1.5139 3.53932,2.0661 l 0,-32.44669 z m 17.69657,2.0661 0,28.31449 c 1.33896,-1.0058 2.5331,-2.1964 3.53931,-3.5349 l 0,-21.24469 c -1.00621,-1.3385 -2.20035,-2.5291 -3.53931,-3.5349 z m -24.7752,3.5393 c -2.22184,2.9577 -3.53931,6.63379 -3.53931,10.61789 0,3.9842 1.31747,7.6602 3.53931,10.618 l 0,-21.23589 z" />
  <g
     style="font-size:13px;font-style:normal;font-variant:normal;font-weight:normal;font-stretch:normal;line-height:125%;letter-spacing:0px;word-spacing:0px;fill:#23c97e;fill-opacity:1;stroke:none;font-family:Alte Haas Grotesk;-inkscape-font-specification:Alte Haas Grotesk"
     id="text3002-4-3-4-8-37-1-6-0">
    <path
       d="m 4.0908049,58.622925 0,-9.477 -1.95,0 0,9.477 1.95,0"
       style="font-weight:bold;letter-spacing:-0.94px;fill:#23c97e;font-family:TeX Gyre Heros;-inkscape-font-specification:TeX Gyre Heros"
       id="path6943" />
    <path
       d="m 12.580274,58.622925 0,-9.477 -1.95,0 0,6.448 -3.7570004,-6.448 -2.002,0 0,9.477 1.95,0 0,-6.552 3.8090004,6.552 1.95,0"
       style="font-weight:bold;letter-spacing:-0.94px;fill:#23c97e;font-family:TeX Gyre Heros;-inkscape-font-specification:TeX Gyre Heros"
       id="path6945" />
    <path
       d="m 20.215805,50.770925 0,-1.625 -7.592,0 0,1.625 2.873,0 0,7.852 1.95,0 0,-7.852 2.769,0"
       style="font-weight:bold;letter-spacing:-0.94px;fill:#23c97e;font-family:TeX Gyre Heros;-inkscape-font-specification:TeX Gyre Heros"
       id="path6947" />
    <path
       d="m 27.561071,58.622925 0,-1.625 -5.135,0 0,-2.457 4.537,0 0,-1.625 -4.537,0 0,-2.145 4.901,0 0,-1.625 -6.851,0 0,9.477 7.085,0"
       style="font-weight:bold;letter-spacing:-0.94px;fill:#23c97e;font-family:TeX Gyre Heros;-inkscape-font-specification:TeX Gyre Heros"
       id="path6949" />
    <path
       d="m 35.993664,58.622925 0,-0.351 c -0.299,-0.169 -0.416,-0.364001 -0.416,-0.78 -0.052,-2.794997 -0.104001,-2.925001 -1.313,-3.445 1.065999,-0.416 1.599,-1.183001 1.599,-2.34 0,-1.468999 -0.871002,-2.561 -2.548,-2.561 l -5.083,0 0,9.477 1.95,0 0,-3.757 2.236,0 c 0.844999,0 1.209,0.338001 1.209,1.131 l -0.026,1.001 c 0,0.883999 0.052,1.17 0.299,1.625 l 2.093,0 m -2.08,-6.643 c 0,0.844999 -0.273001,1.261 -1.378,1.261 l -2.353,0 0,-2.47 2.353,0 c 1.065999,0 1.378,0.390001 1.378,1.209"
       style="font-weight:bold;letter-spacing:-0.94px;fill:#23c97e;font-family:TeX Gyre Heros;-inkscape-font-specification:TeX Gyre Heros"
       id="path6951" />
    <path
       d="m 43.265195,50.770925 0,-1.625 -6.656,0 0,9.477 1.95,0 0,-4.082 4.147,0 0,-1.625 -4.147,0 0,-2.145 4.706,0"
       style="font-weight:bold;letter-spacing:-0.94px;fill:#23c97e;font-family:TeX Gyre Heros;-inkscape-font-specification:TeX Gyre Heros"
       id="path6953" />
  </g>
</svg>
