<?xml version="1.0" encoding="UTF-8" standalone="no"?>
<!-- Created with Inkscape (http://www.inkscape.org/) -->

<svg
   xmlns:dc="http://purl.org/dc/elements/1.1/"
   xmlns:cc="http://creativecommons.org/ns#"
   xmlns:rdf="http://www.w3.org/1999/02/22-rdf-syntax-ns#"
   xmlns:svg="http://www.w3.org/2000/svg"
   xmlns="http://www.w3.org/2000/svg"
   xmlns:sodipodi="http://sodipodi.sourceforge.net/DTD/sodipodi-0.dtd"
   xmlns:inkscape="http://www.inkscape.org/namespaces/inkscape"
   version="1.1"
   width="45.405998"
   height="58.622917"
   id="svg12988"
   inkscape:version="0.48.4 r9939"
   sodipodi:docname="mag.svg">
  <sodipodi:namedview
     pagecolor="#ffffff"
     bordercolor="#666666"
     borderopacity="1"
     objecttolerance="10"
     gridtolerance="10"
     guidetolerance="10"
     inkscape:pageopacity="0"
     inkscape:pageshadow="2"
     inkscape:window-width="2556"
     inkscape:window-height="1384"
     id="namedview5581"
     showgrid="false"
     inkscape:zoom="4.0257294"
     inkscape:cx="22.702999"
     inkscape:cy="-0.49680438"
     inkscape:window-x="0"
     inkscape:window-y="54"
     inkscape:window-maximized="0"
     inkscape:current-layer="svg12988" />
  <defs
     id="defs12990" />
  <metadata
     id="metadata12993">
    <rdf:RDF>
      <cc:Work
         rdf:about="">
        <dc:format>image/svg+xml</dc:format>
        <dc:type
           rdf:resource="http://purl.org/dc/dcmitype/StillImage" />
        <dc:title />
      </cc:Work>
    </rdf:RDF>
  </metadata>
  <rect
     style="color:#000000;fill:#0462a3;fill-opacity:1;fill-rule:nonzero;stroke:none;stroke-width:10;marker:none;visibility:visible;display:inline;overflow:visible;enable-background:accumulate"
     id="rect2985-9"
     y="1.8652344e-06"
     x="-2.9296875e-06"
     height="45.405998"
     width="45.405998" />
  <g
     style="font-size:13px;font-style:normal;font-variant:normal;font-weight:normal;font-stretch:normal;line-height:125%;letter-spacing:0px;word-spacing:0px;fill:#0462a3;fill-opacity:1;stroke:none;font-family:Alte Haas Grotesk;-inkscape-font-specification:Alte Haas Grotesk"
     id="text3002-4-3">
    <path
       d="m 17.850845,58.466919 0,-9.477 -2.938,0 -1.664,7.54 -1.716,-7.54 -2.912,0 0,9.477 1.95,0 0,-7.384 1.703,7.384 1.95,0 1.677,-7.384 0,7.384 1.95,0"
       style="font-weight:bold;fill:#0462a3;font-family:TeX Gyre Heros;-inkscape-font-specification:TeX Gyre Heros Bold"
       id="path6932" />
    <path
       d="m 27.743642,58.466919 -3.276,-9.477 -2.158,0 -3.367,9.477 1.989,0 0.637,-1.911 3.549,0 0.624,1.911 2.002,0 m -3.159,-3.536 -2.47,0 1.235,-3.705 1.235,3.705"
       style="font-weight:bold;fill:#0462a3;font-family:TeX Gyre Heros;-inkscape-font-specification:TeX Gyre Heros Bold"
       id="path6934" />
    <path
       d="m 36.785142,58.466919 0,-5.096 -3.796,0 0,1.625 2.158,0 c -0.13,1.182999 -1.248001,1.963 -2.405,1.963 -1.572999,0 -2.704,-1.313002 -2.704,-3.263 0,-2.040998 1.001002,-3.198 2.652,-3.198 1.065999,0 1.885,0.416001 2.262,1.521 l 1.833,0 c -0.234,-1.949998 -1.820002,-3.185 -4.108,-3.185 -2.729997,0 -4.589,1.937003 -4.589,4.888 0,2.872997 1.872002,4.901 4.433,4.901 1.273999,0 2.132001,-0.455001 2.86,-1.456 l 0.234,1.3 1.17,0"
       style="font-weight:bold;fill:#0462a3;font-family:TeX Gyre Heros;-inkscape-font-specification:TeX Gyre Heros Bold"
       id="path6936" />
  </g>
  <g
     style="fill:#ffffff;fill-opacity:1"
     id="g4714"
     transform="matrix(0.41837838,0,0,0.41837838,2.62084,2.61998)">
    <path
       inkscape:connector-curvature="0"
       style="fill:#ffffff;fill-opacity:1"
       id="path4694"
       d="m 34,25.752 c 0,-1.104 -0.896,-2 -2,-2 H 16 c -1.104,0 -2,0.896 -2,2 v 10 h 20 v -10 z" />
    <path
       inkscape:connector-curvature="0"
       style="fill:#ffffff;fill-opacity:1"
       id="path4696"
       d="M 80,23.752 H 64 c -1.1,0 -2,0.896 -2,2 v 10 h 20 v -10 c 0,-1.108 -0.9,-2 -2,-2 z" />
    <path
       inkscape:connector-curvature="0"
       style="fill:#ffffff;fill-opacity:1"
       id="path4698"
       d="m 62,60 c 0,7.788 -6.279,14.124 -14,14.124 -7.72,0 -14,-6.228 -14,-13.876 V 39.752 H 14 v 20.5 c 0,18.752 15.252,34 34,34 18.752,0 34,-15.252 34,-34 v -20.5 H 62 V 60 z" />
    <path
       inkscape:connector-curvature="0"
       style="fill:#ffffff;fill-opacity:1"
       id="path4700"
       d="m 24,21.752 c 1.104,0 2,-0.896 2,-2 v -4 c 0,-1.104 -0.896,-2 -2,-2 -1.104,0 -2,0.896 -2,2 v 4 c 0,1.104 0.896,2 2,2 z" />
    <path
       inkscape:connector-curvature="0"
       style="fill:#ffffff;fill-opacity:1"
       id="path4702"
       d="m 24,9.752 c 1.104,0 2,-0.896 2,-2 v -4 c 0,-1.104 -0.896,-2 -2,-2 -1.104,0 -2,0.896 -2,2 v 4 c 0,1.104 0.896,2 2,2 z" />
    <path
       inkscape:connector-curvature="0"
       style="fill:#ffffff;fill-opacity:1"
       id="path4704"
       d="m 72,21.752 c 1.1,0 2,-0.896 2,-2 v -4 c 0,-1.104 -0.9,-2 -2,-2 -1.1,0 -2,0.896 -2,2 v 4 c 0,1.104 0.9,2 2,2 z" />
    <path
       inkscape:connector-curvature="0"
       style="fill:#ffffff;fill-opacity:1"
       id="path4706"
       d="m 72,9.752 c 1.1,0 2,-0.896 2,-2 v -4 c 0,-1.104 -0.9,-2 -2,-2 -1.1,0 -2,0.896 -2,2 v 4 c 0,1.104 0.9,2 2,2 z" />
  </g>
</svg>
