<?xml version="1.0" encoding="UTF-8" standalone="no"?>
<!-- Created with Inkscape (http://www.inkscape.org/) -->

<svg
   xmlns:dc="http://purl.org/dc/elements/1.1/"
   xmlns:cc="http://creativecommons.org/ns#"
   xmlns:rdf="http://www.w3.org/1999/02/22-rdf-syntax-ns#"
   xmlns:svg="http://www.w3.org/2000/svg"
   xmlns="http://www.w3.org/2000/svg"
   xmlns:sodipodi="http://sodipodi.sourceforge.net/DTD/sodipodi-0.dtd"
   xmlns:inkscape="http://www.inkscape.org/namespaces/inkscape"
   version="1.1"
   width="45.405998"
   height="58.622917"
   id="svg12988"
   inkscape:version="0.48.4 r9939"
   sodipodi:docname="obs.svg">
  <sodipodi:namedview
     pagecolor="#ffffff"
     bordercolor="#666666"
     borderopacity="1"
     objecttolerance="10"
     gridtolerance="10"
     guidetolerance="10"
     inkscape:pageopacity="0"
     inkscape:pageshadow="2"
     inkscape:window-width="2556"
     inkscape:window-height="1384"
     id="namedview5615"
     showgrid="false"
     inkscape:zoom="4.0257294"
     inkscape:cx="-19.276971"
     inkscape:cy="29.311459"
     inkscape:window-x="0"
     inkscape:window-y="54"
     inkscape:window-maximized="0"
     inkscape:current-layer="svg12988" />
  <defs
     id="defs12990" />
  <metadata
     id="metadata12993">
    <rdf:RDF>
      <cc:Work
         rdf:about="">
        <dc:format>image/svg+xml</dc:format>
        <dc:type
           rdf:resource="http://purl.org/dc/dcmitype/StillImage" />
        <dc:title />
      </cc:Work>
    </rdf:RDF>
  </metadata>
  <text
     style="font-size:15px"
     id="text5928"
     x="-1.6239935"
     y="40.87793">
    <tspan
       id="tspan5930"
       y="40.87793"
       x="-1.6239935"
       style="font-size:54px;font-variant:normal;writing-mode:lr-tb;fill:#ffffff;fill-opacity:1;fill-rule:nonzero;stroke:none;font-family:Infinity;-inkscape-font-specification:Infinity-Icons">b</tspan>
  </text>
  <path
     inkscape:connector-curvature="0"
     id="path5932"
     style="fill:#008738;fill-opacity:1;fill-rule:nonzero;stroke:none"
     d="m 0,0.00544262 45.405004,0 0,45.40500038 L 0,45.410443 0,0.00544262 z" />
  <g
     style="font-size:15px"
     id="text5934">
    <path
       d="m 18.22449,53.786919 c 0,-2.859997 -1.807003,-4.953 -4.576,-4.953 -2.781997,0 -4.5499997,2.171003 -4.5499997,4.888 0,2.833997 1.7810027,4.901 4.5629997,4.901 2.755998,0 4.563,-2.067003 4.563,-4.836 m -1.95,-0.013 c 0,1.936998 -1.053001,3.185 -2.613,3.185 -1.572998,0 -2.613,-1.248002 -2.613,-3.237 0,-1.910998 1.040002,-3.224 2.613,-3.224 1.598999,0 2.613,1.300002 2.613,3.276"
       style="font-size:13px;font-variant:normal;font-weight:bold;writing-mode:lr-tb;fill:#008738;fill-opacity:1;fill-rule:nonzero;stroke:none;font-family:TeXGyreHeros;-inkscape-font-specification:TeXGyreHeros-Bold"
       id="path6900" />
    <path
       d="m 27.350474,55.736919 c 0,-0.935999 -0.507001,-1.677001 -1.573,-2.301 0.935999,-0.597999 1.3,-1.144001 1.3,-1.95 0,-1.338999 -1.118002,-2.496 -3.094,-2.496 l -4.225,0 0,9.477 4.264,0 c 2.209998,0 3.328,-1.170002 3.328,-2.73 m -2.145,-4.043 c 0,0.688999 -0.481001,1.066 -1.378,1.066 l -2.119,0 0,-2.145 2.119,0 c 0.896999,0 1.378,0.377001 1.378,1.079 m 0.273,3.926 c 0,0.792999 -0.494001,1.222 -1.443,1.222 l -2.327,0 0,-2.457 2.327,0 c 0.948999,0 1.443,0.429001 1.443,1.235"
       style="font-size:13px;font-variant:normal;font-weight:bold;writing-mode:lr-tb;fill:#008738;fill-opacity:1;fill-rule:nonzero;stroke:none;font-family:TeXGyreHeros;-inkscape-font-specification:TeXGyreHeros-Bold"
       id="path6902" />
    <path
       d="m 36.307506,55.619919 c 0,-1.494999 -0.754001,-2.197 -2.509,-2.535 l -1.482,-0.286 c -1.390998,-0.273 -1.794,-0.546001 -1.794,-1.235 0,-0.714999 0.637001,-1.17 1.638,-1.17 1.234999,0 1.989,0.520001 1.989,1.482 l 1.82,0 c 0,-2.001998 -1.404002,-3.042 -3.718,-3.042 -2.274997,0 -3.588,1.066002 -3.588,2.912 0,1.481998 0.741002,2.171 2.665,2.548 l 1.326,0.26 c 1.299999,0.26 1.781,0.533001 1.781,1.3 0,0.792999 -0.728001,1.209 -1.911,1.209 -1.325998,0 -2.132,-0.559001 -2.132,-1.573 l -1.898,0 c 0,2.027998 1.508003,3.133 3.926,3.133 2.443998,0 3.887,-1.079002 3.887,-3.003"
       style="font-size:13px;font-variant:normal;font-weight:bold;writing-mode:lr-tb;fill:#008738;fill-opacity:1;fill-rule:nonzero;stroke:none;font-family:TeXGyreHeros;-inkscape-font-specification:TeXGyreHeros-Bold"
       id="path6904" />
  </g>
  <path
     inkscape:connector-curvature="0"
     id="path6054"
     style="fill:#ffffff;fill-opacity:1;fill-rule:nonzero;stroke:none"
     d="m 9.24375,37.270443 0.0438,-11.30875 c 0,-0.3075 0.25375,-0.55625 0.56125,-0.55625 0.3125,0 0.56125,0.25375 0.56125,0.56125 l -0.0488,11.30875 c 0,0.3075 -0.24875,0.55625 -0.56125,0.55625 -0.3075,0 -0.56125,-0.25375 -0.55625,-0.56125 z M 16.02,7.6716926 c -3.13875,1.80625 -5.45375,4.8437504 -6.36125,8.3387504 -0.0788,0.29875 0.1025,0.60625 0.405,0.67875 0.0437,0.015 0.0925,0.02 0.13625,0.02 0.24875,0 0.47875,-0.16625 0.5425,-0.42 0.83,-3.2025 2.95875,-5.99125 5.835,-7.6462504 0.26875,-0.15125 0.36125,-0.49375 0.205,-0.76125 -0.15625,-0.27375 -0.49875,-0.3625 -0.7625,-0.21 z m 8.29625,-3.2775 c -0.3125,0 -0.56125,0.25 -0.56125,0.5575 l 0,11.2300004 c 0,0.3125 0.24875,0.56125 0.56125,0.56125 0.3075,0 0.56125,-0.24875 0.56125,-0.56125 l 0,-11.2300004 c 0,-0.3075 -0.25375,-0.5575 -0.56125,-0.5575 z m -4.83875,0.26875 c -0.3125,0 -0.56125,0.25 -0.56125,0.5625 l 0,10.9562504 c 0,0.3125 0.24875,0.56125 0.56125,0.56125 0.3075,0 0.56125,-0.24875 0.56125,-0.56125 l 0,-10.9562504 c 0,-0.3125 -0.25375,-0.5625 -0.56125,-0.5625 z M 7.6275,38.325443 7.69,23.256693 c -0.3175,-0.005 -0.7325,-0.009 -1.1475,-0.009 -0.3075,0 -0.56125,-0.25 -0.56125,-0.5575 0,-0.97125 0.5275,-1.9775 1.025,-2.72 l -0.46375,0 c -0.3075,0 -0.56125,-0.24875 -0.56125,-0.55625 l 0,-1.61625 c 0,-0.3075 0.25375,-0.56125 0.56125,-0.56125 l 1.26,0 C 8.565,11.880143 12.22625,7.2413926 17.3,5.2926426 l 0,-1.30375 c 0,-0.24375 0.16125,-0.46375 0.395,-0.53625 1.61625,-0.50375 3.30125,-0.7625 5.005,-0.7625 1.685,0 3.35,0.24875 4.94625,0.7425 0.25375,0.0638 0.45875,0.28375 0.45875,0.54625 l 0,1.32375 c 5.06375,1.94875 8.755,6.5675004 9.5175,11.9337504 l 1.24,0 c 0.3075,0 0.561254,0.25375 0.561254,0.56125 l 0,1.61125 c 0,0.3125 -0.253754,0.56125 -0.561254,0.56125 l -0.46375,0 c 0.5025,0.7475 1.025004,1.75375 1.025004,2.715 0,0.3125 -0.253754,0.5625 -0.561254,0.5625 -0.415,0 -0.83,0.004 -1.1425,0.009 l 0.0637,15.06875 0.96125,0 c 0.3125,0 0.561254,0.24875 0.561254,0.55625 l 0,3.28125 c 0,0.3075 -0.248754,0.5575 -0.561254,0.5575 l -32.2025,0 c -0.3075,0 -0.56125,-0.25 -0.56125,-0.5575 l 0,-3.28125 c 0,-0.30745 0.25375,-0.5562 0.56125,-0.5562 l 1.085,0 z m 12.8125,2.75875 -6.92,0 0,0.5175 6.92,0 0,-0.5175 z m -11.63625,-16.22125 -0.0588,13.4625 5.3175,0 0,-7.67125 c 0,-0.3075 0.24875,-0.55625 0.56125,-0.55625 l 4.83875,0 c 0.3125,0 0.5625,0.24875 0.5625,0.55625 l 0,7.67125 16.64,0 -0.0588,-13.4625 -27.8025,0 z m 27.7975,-1.1225 0,-0.47375 -27.7925,0 0,0.47375 27.7925,0 z m -17.695,14.585 0,-7.10875 -3.72125,0 0,7.10875 3.72125,0 z m -3.72125,1.11875 0,0.5225 3.71625,0 0,-0.5225 -3.71625,0 z m 22.04125,0 -17.20125,0 0,0.5225 0.97125,0 c 0.3125,0 0.56125,0.24875 0.56125,0.55625 l 0,1.07875 16.62625,0 0,-2.1575 -0.9575,0 z m -9.12125,-22.2075 8.38,0 C 35.7525,12.480443 32.53375,8.3941926 28.105,6.5241926 l 0,10.7125004 z m -4.84375,0 3.72125,0 0,-12.8325004 c -1.20625,-0.34125 -2.45625,-0.53625 -3.72125,-0.58125 l 0,13.4137504 z m -4.83875,0 3.72125,0 0,-13.4137504 c -1.265,0.045 -2.515,0.24 -3.72125,0.58125 l 0,12.8325004 z m -9.4875,0 8.37,0 0,-10.7175004 c -4.43875,1.875 -7.6325,5.9712504 -8.37,10.7175004 z m -1.83,1.61625 31.19625,0 0,-0.49375 -31.19625,0 0,0.49375 z m 1.15625,3.29125 28.8875,0 c 0,0 0.47375,-0.01 1.07375,-0.015 -0.22875,-0.86 -0.88875,-1.7475 -1.20125,-2.14375 -0.005,-0.005 0,-0.01 -0.005,-0.015 l -28.6325,0 c -0.01,0.01 -0.005,0.03 -0.015,0.04 -0.24375,0.3025 -0.94625,1.225 -1.18625,2.11875 0.60125,0.005 1.07875,0.015 1.07875,0.015 z m -1.15625,17.3 0,2.1575 5.2975,0 0,-1.07875 c 0,-0.3075 0.24875,-0.55625 0.56125,-0.55625 l 1.09875,0 0,-0.5225 -6.9575,0 z" />
  <path
     inkscape:connector-curvature="0"
     id="path6056"
     style="fill:#008738;fill-opacity:1;fill-rule:nonzero;stroke:none"
     d="m 18.8475,4.4091926 2.2025,0 0,12.4512504 -2.2025,0 0,-12.4512504 z" />
  <path
     inkscape:connector-curvature="0"
     id="path6058"
     style="fill:#008738;fill-opacity:1;fill-rule:nonzero;stroke:none"
     d="m 23.59875,4.2829426 2.2025,0 0,12.4512504 -2.2025,0 0,-12.4512504 z" />
  <path
     inkscape:connector-curvature="0"
     id="path6060"
     style="fill:#008738;fill-opacity:1;fill-rule:nonzero;stroke:none"
     d="m 7.11,39.444193 31.06875,0 0,2.15875 -31.06875,0 0,-2.15875 z" />
  <path
     inkscape:connector-curvature="0"
     id="path6250"
     style="fill:#008738;fill-opacity:1;fill-rule:nonzero;stroke:none"
     d="m 9.02875,25.171693 3.38375,0 0,12.74875 -3.38375,0 0,-12.74875 z" />
  <path
     inkscape:connector-curvature="0"
     id="path6252"
     style="fill:#008738;fill-opacity:1;fill-rule:nonzero;stroke:none"
     d="m 8.79875,23.652943 27.8075,0 0,3.8325 -27.8075,0 0,-3.8325 z" />
  <path
     inkscape:connector-curvature="0"
     id="path6254"
     style="fill:#008738;fill-opacity:1;fill-rule:nonzero;stroke:none"
     d="m 9.4675,15.459193 1.91875,0 0,1.265 -1.91875,0 0,-1.265 z" />
  <path
     inkscape:connector-curvature="0"
     id="path6256"
     style="fill:#008738;fill-opacity:1;fill-rule:nonzero;stroke:none"
     d="m 9.7125,14.526693 1.91875,0 0,1.27 -1.91875,0 0,-1.27 z" />
  <path
     inkscape:connector-curvature="0"
     id="path6258"
     style="fill:#008738;fill-opacity:1;fill-rule:nonzero;stroke:none"
     d="m 10.1125,13.779193 1.91875,0 0,1.265 -1.91875,0 0,-1.265 z" />
  <path
     inkscape:connector-curvature="0"
     id="path6260"
     style="fill:#008738;fill-opacity:1;fill-rule:nonzero;stroke:none"
     d="m 10.4,13.222943 1.91375,0 0,1.27 -1.91375,0 0,-1.27 z" />
  <path
     inkscape:connector-curvature="0"
     id="path6262"
     style="fill:#008738;fill-opacity:1;fill-rule:nonzero;stroke:none"
     d="m 10.59625,12.671693 1.91875,0 0,1.27 -1.91875,0 0,-1.27 z" />
  <path
     inkscape:connector-curvature="0"
     id="path6264"
     style="fill:#008738;fill-opacity:1;fill-rule:nonzero;stroke:none"
     d="m 10.9525,12.451693 1.91875,0 0,0.69375 -1.91875,0 0,-0.69375 z" />
  <path
     inkscape:connector-curvature="0"
     id="path6266"
     style="fill:#008738;fill-opacity:1;fill-rule:nonzero;stroke:none"
     d="m 11.08375,11.899193 1.91875,0 0,0.69375 -1.91875,0 0,-0.69375 z" />
  <path
     inkscape:connector-curvature="0"
     id="path6268"
     style="fill:#008738;fill-opacity:1;fill-rule:nonzero;stroke:none"
     d="m 11.485,11.235443 1.91375,0 0,0.69375 -1.91375,0 0,-0.69375 z" />
  <path
     inkscape:connector-curvature="0"
     id="path6270"
     style="fill:#008738;fill-opacity:1;fill-rule:nonzero;stroke:none"
     d="m 11.92875,10.640443 1.9575,0 0,0.85 -1.9575,0 0,-0.85 z" />
  <path
     inkscape:connector-curvature="0"
     id="path6272"
     style="fill:#008738;fill-opacity:1;fill-rule:nonzero;stroke:none"
     d="m 12.3875,10.087943 1.91875,0 0,0.69375 -1.91875,0 0,-0.69375 z" />
  <path
     inkscape:connector-curvature="0"
     id="path6274"
     style="fill:#008738;fill-opacity:1;fill-rule:nonzero;stroke:none"
     d="m 12.96375,9.7316926 1.91375,0 0,0.6937504 -1.91375,0 0,-0.6937504 z" />
  <path
     inkscape:connector-curvature="0"
     id="path6276"
     style="fill:#008738;fill-opacity:1;fill-rule:nonzero;stroke:none"
     d="m 13.29625,9.2916926 1.91375,0 0,0.69375 -1.91375,0 0,-0.69375 z" />
  <path
     inkscape:connector-curvature="0"
     id="path6278"
     style="fill:#008738;fill-opacity:1;fill-rule:nonzero;stroke:none"
     d="m 13.69125,9.0041926 2.3825,0 0,0.69375 -2.3825,0 0,-0.69375 z" />
  <path
     inkscape:connector-curvature="0"
     id="path6280"
     style="fill:#008738;fill-opacity:1;fill-rule:nonzero;stroke:none"
     d="m 14.0775,8.5641926 2.3825,0 0,0.68875 -2.3825,0 0,-0.68875 z" />
  <path
     inkscape:connector-curvature="0"
     id="path6282"
     style="fill:#008738;fill-opacity:1;fill-rule:nonzero;stroke:none"
     d="m 14.52125,8.1641926 2.3775,0 0,0.69375 -2.3775,0 0,-0.69375 z" />
  <path
     inkscape:connector-curvature="0"
     id="path6284"
     style="fill:#008738;fill-opacity:1;fill-rule:nonzero;stroke:none"
     d="m 14.8975,7.8566926 2.3775,0 0,0.69375 -2.3775,0 0,-0.69375 z" />
  <path
     inkscape:connector-curvature="0"
     id="path6286"
     style="fill:#008738;fill-opacity:1;fill-rule:nonzero;stroke:none"
     d="m 15.7375,7.4804426 1.3425,0 0,0.69375 -1.3425,0 0,-0.69375 z" />
</svg>
