<?xml version="1.0" encoding="UTF-8" standalone="no"?>
<!-- Created with Inkscape (http://www.inkscape.org/) -->

<svg
   xmlns:dc="http://purl.org/dc/elements/1.1/"
   xmlns:cc="http://creativecommons.org/ns#"
   xmlns:rdf="http://www.w3.org/1999/02/22-rdf-syntax-ns#"
   xmlns:svg="http://www.w3.org/2000/svg"
   xmlns="http://www.w3.org/2000/svg"
   xmlns:sodipodi="http://sodipodi.sourceforge.net/DTD/sodipodi-0.dtd"
   xmlns:inkscape="http://www.inkscape.org/namespaces/inkscape"
   version="1.1"
   width="45.405998"
   height="58.622917"
   id="svg12988"
   inkscape:version="0.48.4 r9939"
   sodipodi:docname="param.svg">
  <sodipodi:namedview
     pagecolor="#ffffff"
     bordercolor="#666666"
     borderopacity="1"
     objecttolerance="10"
     gridtolerance="10"
     guidetolerance="10"
     inkscape:pageopacity="0"
     inkscape:pageshadow="2"
     inkscape:window-width="2556"
     inkscape:window-height="1384"
     id="namedview5647"
     showgrid="false"
     inkscape:zoom="4.0257294"
     inkscape:cx="22.702999"
     inkscape:cy="29.311459"
     inkscape:window-x="0"
     inkscape:window-y="54"
     inkscape:window-maximized="0"
     inkscape:current-layer="svg12988" />
  <defs
     id="defs12990" />
  <metadata
     id="metadata12993">
    <rdf:RDF>
      <cc:Work
         rdf:about="">
        <dc:format>image/svg+xml</dc:format>
        <dc:type
           rdf:resource="http://purl.org/dc/dcmitype/StillImage" />
        <dc:title />
      </cc:Work>
    </rdf:RDF>
  </metadata>
  <g
     style="font-size:13px;font-style:normal;font-variant:normal;font-weight:normal;font-stretch:normal;line-height:125%;letter-spacing:0px;word-spacing:0px;fill:#4f6674;fill-opacity:1;stroke:none;font-family:Alte Haas Grotesk;-inkscape-font-specification:Alte Haas Grotesk"
     id="text3002-4-3-4-8-37">
    <path
       d="m 7.3793572,52.083925 c 0,-1.897998 -1.079002,-2.938 -3.055,-2.938 l -4.18600001,0 0,9.477 1.95000001,0 0,-3.38 2.431,0 c 1.7419982,0 2.86,-1.235002 2.86,-3.159 m -1.95,0.117 c 0,0.961999 -0.4810011,1.417 -1.521,1.417 l -1.82,0 0,-2.847 1.82,0 c 1.0399989,0 1.521,0.455001 1.521,1.43"
       style="font-weight:bold;fill:#4f6674;font-family:TeX Gyre Heros;-inkscape-font-specification:TeX Gyre Heros"
       id="path5988" />
    <path
       d="m 16.13506,58.622925 -3.276,-9.477 -2.158,0 -3.3669997,9.477 1.989,0 0.637,-1.911 3.5489997,0 0.624,1.911 2.002,0 m -3.159,-3.536 -2.47,0 1.235,-3.705 1.235,3.705"
       style="font-weight:bold;fill:#4f6674;font-family:TeX Gyre Heros;-inkscape-font-specification:TeX Gyre Heros"
       id="path5990" />
    <path
       d="m 25.191592,58.622925 0,-0.351 c -0.299,-0.169 -0.416,-0.364001 -0.416,-0.78 -0.052,-2.794997 -0.104002,-2.925001 -1.313,-3.445 1.065998,-0.416 1.599,-1.183001 1.599,-2.34 0,-1.468999 -0.871002,-2.561 -2.548,-2.561 l -5.083,0 0,9.477 1.95,0 0,-3.757 2.236,0 c 0.844999,0 1.209,0.338001 1.209,1.131 l -0.026,1.001 c 0,0.883999 0.052,1.17 0.299,1.625 l 2.093,0 m -2.08,-6.643 c 0,0.844999 -0.273002,1.261 -1.378,1.261 l -2.353,0 0,-2.47 2.353,0 c 1.065998,0 1.378,0.390001 1.378,1.209"
       style="font-weight:bold;fill:#4f6674;font-family:TeX Gyre Heros;-inkscape-font-specification:TeX Gyre Heros"
       id="path5992" />
    <path
       d="m 34.924123,58.622925 -3.276,-9.477 -2.158,0 -3.367,9.477 1.989,0 0.637,-1.911 3.549,0 0.624,1.911 2.002,0 m -3.159,-3.536 -2.47,0 1.235,-3.705 1.235,3.705"
       style="font-weight:bold;fill:#4f6674;font-family:TeX Gyre Heros;-inkscape-font-specification:TeX Gyre Heros"
       id="path5994" />
    <path
       d="m 45.267654,58.622925 0,-9.477 -2.938,0 -1.664,7.54 -1.716,-7.54 -2.912,0 0,9.477 1.95,0 0,-7.384 1.703,7.384 1.95,0 1.677,-7.384 0,7.384 1.95,0"
       style="font-weight:bold;fill:#4f6674;font-family:TeX Gyre Heros;-inkscape-font-specification:TeX Gyre Heros"
       id="path5996" />
  </g>
  <g
     id="g5947"
     transform="translate(-10,-996.79676)">
    <path
       inkscape:connector-curvature="0"
       style="fill:#4f6674;fill-opacity:1;fill-rule:nonzero;stroke:none"
       id="path6166"
       d="m 10,996.95717 45.405,0 0,45.40503 -45.405,0 0,-45.40503 z" />
    <g
       id="g5924">
      <path
         inkscape:connector-curvature="0"
         style="fill:#ffffff;fill-opacity:1;fill-rule:nonzero;stroke:none"
         id="path6208"
         d="m 19.59,1024.5497 0,-19.7613 c 0,-0.4837 -0.39125,-0.8737 -0.87375,-0.8737 -0.47875,0 -0.875,0.39 -0.875,0.8737 l 0,19.7613 1.74875,0 z" />
      <path
         inkscape:connector-curvature="0"
         style="fill:#ffffff;fill-opacity:1;fill-rule:nonzero;stroke:none"
         id="path6210"
         d="m 17.84125,1031.4884 0,3.0363 c 0,0.4837 0.39125,0.8737 0.875,0.8737 0.4825,0 0.87375,-0.385 0.87375,-0.8737 l 0,-3.0363 -1.74875,0 z" />
      <path
         inkscape:connector-curvature="0"
         style="fill:#ffffff;fill-opacity:1;fill-rule:nonzero;stroke:none"
         id="path6212"
         d="m 31.83125,1017.0297 0,17.495 c 0,0.4837 0.39,0.8737 0.87375,0.8737 0.47875,0 0.87375,-0.385 0.87375,-0.8737 l 0,-17.495 -1.7475,0 z" />
      <path
         inkscape:connector-curvature="0"
         style="fill:#ffffff;fill-opacity:1;fill-rule:nonzero;stroke:none"
         id="path6214"
         d="m 33.57875,1010.0909 0,-5.3025 c 0,-0.4837 -0.395,-0.8737 -0.87375,-0.8737 -0.48375,0 -0.87375,0.39 -0.87375,0.8737 l 0,5.3025 1.7475,0 z" />
      <path
         inkscape:connector-curvature="0"
         style="fill:#ffffff;fill-opacity:1;fill-rule:nonzero;stroke:none"
         id="path6216"
         d="m 47.56375,1018.6022 0,-13.8138 c 0,-0.4837 -0.39125,-0.8737 -0.87375,-0.8737 -0.48375,0 -0.875,0.39 -0.875,0.8737 l 0,13.8138 1.74875,0 z" />
      <path
         inkscape:connector-curvature="0"
         style="fill:#ffffff;fill-opacity:1;fill-rule:nonzero;stroke:none"
         id="path6218"
         d="m 45.815,1025.5409 0,8.9838 c 0,0.4837 0.39125,0.8737 0.875,0.8737 0.4825,0 0.87375,-0.385 0.87375,-0.8737 l 0,-8.9838 -1.74875,0 z" />
      <path
         inkscape:connector-curvature="0"
         style="fill:#ffffff;fill-opacity:1;fill-rule:nonzero;stroke:none"
         id="path6220"
         d="m 23.6725,1028.0159 c 0,1.3675 -1.10875,2.4813 -2.48125,2.4813 l -4.95125,0 c -1.37125,0 -2.48,-1.1138 -2.48,-2.4813 0,-1.3675 1.10875,-2.475 2.48,-2.475 l 4.95125,0 c 1.3725,0 2.48125,1.1075 2.48125,2.475 z" />
      <path
         inkscape:connector-curvature="0"
         style="fill:#ffffff;fill-opacity:1;fill-rule:nonzero;stroke:none"
         id="path6222"
         d="m 37.65625,1013.5584 c 0,1.3713 -1.10875,2.48 -2.475,2.48 l -4.95625,0 c -1.3725,0 -2.48125,-1.1087 -2.48125,-2.48 0,-1.3675 1.10875,-2.4762 2.48125,-2.4762 l 4.95625,0 c 1.36625,0 2.475,1.1087 2.475,2.4762 z" />
      <path
         inkscape:connector-curvature="0"
         style="fill:#ffffff;fill-opacity:1;fill-rule:nonzero;stroke:none"
         id="path6224"
         d="m 51.645,1022.0684 c 0,1.3675 -1.1075,2.4813 -2.48,2.4813 l -4.95625,0 c -1.3675,0 -2.475,-1.1138 -2.475,-2.4813 0,-1.3662 1.1075,-2.475 2.475,-2.475 l 4.95625,0 c 1.3725,0 2.48,1.1088 2.48,2.475 z" />
      <text
         style="font-size:15px"
         id="text6226"
         y="1032.5527"
         x="11.617021">
        <tspan
           style="font-size:15.72888565px;font-variant:normal;writing-mode:lr-tb;fill:#ffffff;fill-opacity:1;fill-rule:nonzero;stroke:none;font-family:Infinity;-inkscape-font-specification:Infinity-Icons"
           id="tspan6228"
           y="1032.5527"
           x="11.617021">2</tspan>
      </text>
      <g
         id="g6230"
         transform="matrix(1.25,0,0,1.25,-50,903.22122)">
        <path
           inkscape:connector-curvature="0"
           style="fill:none;stroke:#ffffff;stroke-width:2.20204401;stroke-linecap:butt;stroke-linejoin:miter;stroke-miterlimit:4;stroke-opacity:1;stroke-dasharray:none"
           id="path6232"
           d="m 51.23,99.887 c 0,1.953 1.766,3.703 3.719,3.703 1.985,0 3.735,-1.75 3.735,-3.703 0,-1.969 -1.75,-3.735 -3.735,-3.735 -1.953,0 -3.719,1.766 -3.719,3.735 z m 6.938,0 c 0,1.828 -1.359,3.187 -3.219,3.187 -1.812,0 -3.203,-1.359 -3.203,-3.187 0,-1.844 1.391,-3.219 3.203,-3.219 1.86,0 3.219,1.375 3.219,3.219 z m -3.125,-2.891 c -0.063,0.031 -0.234,0.25 -0.203,0.313 0.187,0.437 0.344,1.046 0.265,1.609 -0.015,0.062 0.172,0.25 0.25,0.25 0.063,0.016 0.25,-0.156 0.266,-0.234 0.078,-0.579 -0.078,-1.235 -0.297,-1.735 -0.015,-0.062 -0.219,-0.219 -0.281,-0.203 z m -0.859,0.391 c -0.047,0.047 -0.063,0.297 -0.016,0.359 0.203,0.297 0.234,0.828 0.125,1.328 -0.016,0.063 0.172,0.266 0.234,0.281 0.063,0.016 0.266,-0.171 0.282,-0.234 0.109,-0.578 -0.016,-1.359 -0.266,-1.703 -0.031,-0.047 -0.297,-0.063 -0.359,-0.031 z m -2.188,2.984 c 0.016,0.078 0.234,0.219 0.297,0.203 0.969,-0.359 1.875,-1.5 1.734,-2.75 -0.015,-0.062 -0.203,-0.265 -0.265,-0.25 -0.078,0.016 -0.266,0.219 -0.25,0.281 0.125,1.125 -0.438,1.907 -1.297,2.219 -0.078,0.016 -0.25,0.235 -0.219,0.297 z m 3.891,-2.687 c -0.047,0.031 -0.047,0.296 0,0.343 0.218,0.235 0.343,0.516 0.406,0.891 0.016,0.078 0.219,0.25 0.281,0.25 0.078,-0.016 0.25,-0.203 0.235,-0.266 -0.063,-0.453 -0.329,-0.968 -0.563,-1.218 -0.031,-0.063 -0.312,-0.063 -0.359,0 z m -3.266,4.359 c 0.047,0.047 0.313,0.047 0.375,0.016 0.984,-0.891 1.891,-1.344 3.406,-1.375 0.078,0 0.25,-0.188 0.25,-0.25 0,-0.079 -0.187,-0.266 -0.25,-0.266 -1.593,0.031 -2.734,0.609 -3.781,1.516 -0.047,0.046 -0.047,0.312 0,0.359 z m 0.969,0.109 c 0.031,0.063 0.312,0.063 0.359,0 0.531,-0.484 1.625,-0.64 2.61,-0.39 0.062,0 0.25,-0.157 0.281,-0.235 0.015,-0.062 -0.156,-0.265 -0.219,-0.281 -1.078,-0.266 -2.453,0.016 -3.031,0.563 -0.063,0.031 -0.063,0.296 0,0.343 z" />
      </g>
      <text
         style="font-size:15px"
         id="text6234"
         y="1019.5795"
         x="25.689835">
        <tspan
           style="font-size:15.72888565px;font-variant:normal;writing-mode:lr-tb;fill:#ffffff;fill-opacity:1;fill-rule:nonzero;stroke:none;font-family:Infinity;-inkscape-font-specification:Infinity-Icons"
           id="tspan6236"
           y="1019.5795"
           x="25.689835">2</tspan>
      </text>
      <g
         id="g6238"
         transform="matrix(1.25,0,0,1.25,-50,903.22122)">
        <path
           inkscape:connector-curvature="0"
           style="fill:none;stroke:#ffffff;stroke-width:2.20204401;stroke-linecap:butt;stroke-linejoin:miter;stroke-miterlimit:4;stroke-opacity:1;stroke-dasharray:none"
           id="path6240"
           d="m 62.488,89.508 c 0,1.953 1.766,3.703 3.719,3.703 1.984,0 3.734,-1.75 3.734,-3.703 0,-1.969 -1.75,-3.735 -3.734,-3.735 -1.953,0 -3.719,1.766 -3.719,3.735 z m 6.938,0 c 0,1.828 -1.36,3.187 -3.219,3.187 -1.812,0 -3.203,-1.359 -3.203,-3.187 0,-1.844 1.391,-3.219 3.203,-3.219 1.859,0 3.219,1.375 3.219,3.219 z m -3.125,-2.891 c -0.063,0.031 -0.235,0.25 -0.203,0.313 0.187,0.437 0.343,1.047 0.265,1.609 -0.015,0.063 0.172,0.25 0.25,0.25 0.063,0.016 0.25,-0.156 0.266,-0.234 0.078,-0.578 -0.078,-1.235 -0.297,-1.735 -0.016,-0.062 -0.219,-0.218 -0.281,-0.203 z m -0.86,0.391 c -0.046,0.047 -0.062,0.297 -0.015,0.359 0.203,0.297 0.234,0.828 0.125,1.328 -0.016,0.063 0.172,0.266 0.234,0.282 0.063,0.015 0.266,-0.172 0.281,-0.235 0.11,-0.578 -0.015,-1.359 -0.265,-1.703 -0.031,-0.047 -0.297,-0.062 -0.36,-0.031 z m -2.187,2.984 c 0.016,0.078 0.234,0.219 0.297,0.203 0.969,-0.359 1.875,-1.5 1.734,-2.75 -0.015,-0.062 -0.203,-0.265 -0.265,-0.25 -0.079,0.016 -0.266,0.219 -0.25,0.282 0.125,1.125 -0.438,1.906 -1.297,2.218 -0.078,0.016 -0.25,0.235 -0.219,0.297 z m 3.891,-2.687 c -0.047,0.031 -0.047,0.297 0,0.343 0.218,0.235 0.343,0.516 0.406,0.891 0.015,0.078 0.219,0.25 0.281,0.25 0.078,-0.016 0.25,-0.203 0.234,-0.266 -0.062,-0.453 -0.328,-0.968 -0.562,-1.218 -0.031,-0.063 -0.313,-0.063 -0.359,0 z m -3.266,4.359 c 0.047,0.047 0.312,0.047 0.375,0.016 0.984,-0.891 1.891,-1.344 3.406,-1.375 0.078,0 0.25,-0.188 0.25,-0.25 0,-0.078 -0.187,-0.266 -0.25,-0.266 -1.594,0.031 -2.734,0.609 -3.781,1.516 -0.047,0.047 -0.047,0.312 0,0.359 z m 0.969,0.109 c 0.031,0.063 0.312,0.063 0.359,0 0.531,-0.484 1.625,-0.64 2.609,-0.39 0.063,0 0.25,-0.156 0.282,-0.235 0.015,-0.062 -0.157,-0.265 -0.219,-0.281 -1.078,-0.265 -2.453,0.016 -3.031,0.563 -0.063,0.031 -0.063,0.297 0,0.343 z" />
      </g>
      <text
         style="font-size:15px"
         id="text6242"
         y="1027.2694"
         x="39.610992">
        <tspan
           style="font-size:15.72888565px;font-variant:normal;writing-mode:lr-tb;fill:#ffffff;fill-opacity:1;fill-rule:nonzero;stroke:none;font-family:Infinity;-inkscape-font-specification:Infinity-Icons"
           id="tspan6244"
           y="1027.2694"
           x="39.610992">2</tspan>
      </text>
      <g
         id="g6246"
         transform="matrix(1.25,0,0,1.25,-50,903.22122)">
        <path
           inkscape:connector-curvature="0"
           style="fill:none;stroke:#ffffff;stroke-width:2.20204401;stroke-linecap:butt;stroke-linejoin:miter;stroke-miterlimit:4;stroke-opacity:1;stroke-dasharray:none"
           id="path6248"
           d="m 73.625,95.66 c 0,1.953 1.766,3.703 3.719,3.703 1.984,0 3.734,-1.75 3.734,-3.703 0,-1.969 -1.75,-3.734 -3.734,-3.734 -1.953,0 -3.719,1.765 -3.719,3.734 z m 6.937,0 c 0,1.828 -1.359,3.188 -3.218,3.188 -1.813,0 -3.203,-1.36 -3.203,-3.188 0,-1.844 1.39,-3.219 3.203,-3.219 1.859,0 3.218,1.375 3.218,3.219 z m -3.124,-2.89 c -0.063,0.031 -0.235,0.25 -0.204,0.312 0.188,0.438 0.344,1.047 0.266,1.609 -0.016,0.063 0.172,0.25 0.25,0.25 0.062,0.016 0.25,-0.156 0.266,-0.234 0.078,-0.578 -0.078,-1.234 -0.297,-1.734 C 77.703,92.91 77.5,92.754 77.438,92.77 z m -0.86,0.39 c -0.047,0.047 -0.062,0.297 -0.016,0.36 0.204,0.296 0.235,0.828 0.126,1.328 -0.016,0.062 0.171,0.265 0.234,0.281 0.062,0.016 0.266,-0.172 0.281,-0.234 0.109,-0.579 -0.015,-1.36 -0.265,-1.704 -0.032,-0.046 -0.297,-0.062 -0.36,-0.031 z m -2.187,2.985 c 0.015,0.078 0.234,0.218 0.297,0.203 0.968,-0.36 1.874,-1.5 1.734,-2.75 -0.016,-0.063 -0.203,-0.266 -0.266,-0.25 -0.078,0.015 -0.265,0.218 -0.25,0.281 0.125,1.125 -0.437,1.906 -1.297,2.219 -0.078,0.015 -0.25,0.234 -0.218,0.297 z m 3.89,-2.688 c -0.047,0.031 -0.047,0.297 0,0.344 0.219,0.234 0.344,0.515 0.407,0.89 0.015,0.079 0.218,0.25 0.281,0.25 0.078,-0.015 0.25,-0.203 0.234,-0.265 -0.062,-0.453 -0.328,-0.969 -0.562,-1.219 -0.032,-0.062 -0.313,-0.062 -0.36,0 z m -3.265,4.359 c 0.046,0.047 0.312,0.047 0.375,0.016 0.984,-0.891 1.89,-1.344 3.406,-1.375 0.078,0 0.25,-0.187 0.25,-0.25 0,-0.078 -0.188,-0.266 -0.25,-0.266 -1.594,0.032 -2.735,0.61 -3.781,1.516 -0.047,0.047 -0.047,0.313 0,0.359 z m 0.968,0.11 c 0.032,0.062 0.313,0.062 0.36,0 0.531,-0.485 1.625,-0.641 2.609,-0.391 0.063,0 0.25,-0.156 0.281,-0.234 0.016,-0.063 -0.156,-0.266 -0.218,-0.281 -1.078,-0.266 -2.454,0.015 -3.032,0.562 -0.062,0.031 -0.062,0.297 0,0.344 z" />
      </g>
    </g>
  </g>
</svg>
