<?xml version="1.0" encoding="UTF-8" standalone="no"?>
<!-- Created with Inkscape (http://www.inkscape.org/) -->

<svg
   xmlns:dc="http://purl.org/dc/elements/1.1/"
   xmlns:cc="http://creativecommons.org/ns#"
   xmlns:rdf="http://www.w3.org/1999/02/22-rdf-syntax-ns#"
   xmlns:svg="http://www.w3.org/2000/svg"
   xmlns="http://www.w3.org/2000/svg"
   xmlns:sodipodi="http://sodipodi.sourceforge.net/DTD/sodipodi-0.dtd"
   xmlns:inkscape="http://www.inkscape.org/namespaces/inkscape"
   version="1.1"
   width="45.405998"
   height="58.622917"
   id="svg12988"
   inkscape:version="0.48.4 r9939"
   sodipodi:docname="photm.svg">
  <sodipodi:namedview
     pagecolor="#ffffff"
     bordercolor="#666666"
     borderopacity="1"
     objecttolerance="10"
     gridtolerance="10"
     guidetolerance="10"
     inkscape:pageopacity="0"
     inkscape:pageshadow="2"
     inkscape:window-width="2556"
     inkscape:window-height="1384"
     id="namedview5661"
     showgrid="false"
     inkscape:zoom="4.0257294"
     inkscape:cx="22.702999"
     inkscape:cy="29.311459"
     inkscape:window-x="0"
     inkscape:window-y="54"
     inkscape:window-maximized="0"
     inkscape:current-layer="svg12988" />
  <defs
     id="defs12990" />
  <metadata
     id="metadata12993">
    <rdf:RDF>
      <cc:Work
         rdf:about="">
        <dc:format>image/svg+xml</dc:format>
        <dc:type
           rdf:resource="http://purl.org/dc/dcmitype/StillImage" />
        <dc:title />
      </cc:Work>
    </rdf:RDF>
  </metadata>
  <rect
     style="color:#000000;fill:#ff9157;fill-opacity:1;fill-rule:nonzero;stroke:none;stroke-width:10;marker:none;visibility:visible;display:inline;overflow:visible;enable-background:accumulate"
     id="rect2985-5-6-6-5"
     y="-0.0039043848"
     x="-2.9296875e-06"
     height="45.405998"
     width="45.405998" />
  <g
     style="font-size:13px;font-style:normal;font-variant:normal;font-weight:normal;font-stretch:normal;line-height:125%;letter-spacing:0px;word-spacing:0px;fill:#ff9157;fill-opacity:1;stroke:none;font-family:Alte Haas Grotesk;-inkscape-font-specification:Alte Haas Grotesk"
     id="text3002-4-3-4-87-3">
    <path
       d="m 7.4555291,51.927919 c 0,-1.897998 -1.079002,-2.938 -3.055,-2.938 l -4.18600004,0 0,9.477 1.95000004,0 0,-3.38 2.431,0 c 1.7419982,0 2.86,-1.235002 2.86,-3.159 m -1.95,0.117 c 0,0.961999 -0.4810011,1.417 -1.521,1.417 l -1.82,0 0,-2.847 1.82,0 c 1.0399989,0 1.521,0.455001 1.521,1.43"
       style="font-weight:bold;fill:#ff9157;font-family:TeX Gyre Heros;-inkscape-font-specification:TeX Gyre Heros"
       id="path5951" />
    <path
       d="m 16.451123,58.466919 0,-9.477 -1.95,0 0,3.549 -3.757,0 0,-3.549 -1.9500002,0 0,9.477 1.9500002,0 0,-4.303 3.757,0 0,4.303 1.95,0"
       style="font-weight:bold;fill:#ff9157;font-family:TeX Gyre Heros;-inkscape-font-specification:TeX Gyre Heros"
       id="path5953" />
    <path
       d="m 26.950654,53.786919 c 0,-2.859997 -1.807003,-4.953 -4.576,-4.953 -2.781997,0 -4.55,2.171003 -4.55,4.888 0,2.833997 1.781003,4.901 4.563,4.901 2.755997,0 4.563,-2.067003 4.563,-4.836 m -1.95,-0.013 c 0,1.936998 -1.053001,3.185 -2.613,3.185 -1.572998,0 -2.613,-1.248002 -2.613,-3.237 0,-1.910998 1.040002,-3.224 2.613,-3.224 1.598998,0 2.613,1.300002 2.613,3.276"
       style="font-weight:bold;fill:#ff9157;font-family:TeX Gyre Heros;-inkscape-font-specification:TeX Gyre Heros"
       id="path5955" />
    <path
       d="m 34.930217,50.614919 0,-1.625 -7.592,0 0,1.625 2.873,0 0,7.852 1.95,0 0,-7.852 2.769,0"
       style="font-weight:bold;fill:#ff9157;font-family:TeX Gyre Heros;-inkscape-font-specification:TeX Gyre Heros"
       id="path5957" />
    <path
       d="m 45.191482,58.466919 0,-9.477 -2.938,0 -1.664,7.54 -1.716,-7.54 -2.912,0 0,9.477 1.95,0 0,-7.384 1.703,7.384 1.95,0 1.677,-7.384 0,7.384 1.95,0"
       style="font-weight:bold;fill:#ff9157;font-family:TeX Gyre Heros;-inkscape-font-specification:TeX Gyre Heros"
       id="path5959" />
  </g>
  <g
     style="fill:#ffffff;fill-opacity:1"
     id="g16292"
     transform="matrix(0.3653578,0,0,0.3653578,11.45766,4.43139)">
    <path
       inkscape:connector-curvature="0"
       style="fill:#ffffff;fill-opacity:1"
       id="path16278"
       d="M 43.728,75.19 H 17.831 c -0.441,0 -0.876,-0.104 -1.27,-0.301 -0.44,-0.22 -4.293,-2.351 -4.293,-9.354 0,-9.208 -1.433,-11.687 -3.457,-14.183 C 5.029,46.685 0,39.404 0,30.098 0,13.503 13.502,0 30.097,0 h 1.363 c 16.597,0 30.098,13.503 30.098,30.098 0,9.305 -5.027,16.585 -8.81,21.251 -2.024,2.499 -3.457,4.978 -3.457,14.186 0,7.005 -3.855,9.135 -4.295,9.354 -0.393,0.197 -0.828,0.301 -1.268,0.301 z M 28.735,69.514 h 13.929 c 0.39,-0.533 0.953,-1.7 0.953,-3.979 0,-10.027 1.658,-13.979 4.722,-17.757 5.218,-6.439 7.544,-11.892 7.544,-17.68 C 55.883,16.631 44.927,5.675 31.46,5.675 H 30.097 C 16.63,5.675 5.674,16.63 5.674,30.098 c 0,5.791 2.328,11.241 7.545,17.68 3.063,3.778 4.723,7.729 4.723,17.757 0,2.279 0.562,3.446 0.952,3.979 h 9.841 z" />
    <path
       inkscape:connector-curvature="0"
       style="fill:#ffffff;fill-opacity:1"
       id="path16280"
       d="m 42.129,91.133 c 0,4.897 -5.081,8.866 -11.35,8.866 -4.762,0 -8.839,-2.289 -10.523,-5.538 -0.532,-1.028 -0.825,-2.152 -0.825,-3.328" />
    <path
       inkscape:connector-curvature="0"
       style="fill:#ffffff;fill-opacity:1"
       id="path16282"
       d="m 17.301,88.425 c -0.75,0 -1.375,-0.588 -1.416,-1.346 -0.04,-0.78 0.56,-1.449 1.343,-1.49 L 44.182,84.17 c 0.764,-0.046 1.451,0.56 1.492,1.343 0.04,0.781 -0.561,1.45 -1.342,1.492 l -26.956,1.418 c -0.024,0.002 -0.05,0.002 -0.075,0.002 z" />
    <path
       inkscape:connector-curvature="0"
       style="fill:#ffffff;fill-opacity:1"
       id="path16284"
       d="m 17.301,82.75 c -0.75,0 -1.375,-0.587 -1.416,-1.343 -0.04,-0.782 0.56,-1.451 1.343,-1.491 l 26.954,-1.421 c 0.764,-0.049 1.451,0.561 1.492,1.343 0.04,0.783 -0.561,1.452 -1.342,1.492 l -26.956,1.419 c -0.024,0.001 -0.05,0.001 -0.075,0.001 z" />
  </g>
</svg>
