<?xml version="1.0" encoding="UTF-8" standalone="no"?>
<!-- Created with Inkscape (http://www.inkscape.org/) -->

<svg
   xmlns:dc="http://purl.org/dc/elements/1.1/"
   xmlns:cc="http://creativecommons.org/ns#"
   xmlns:rdf="http://www.w3.org/1999/02/22-rdf-syntax-ns#"
   xmlns:svg="http://www.w3.org/2000/svg"
   xmlns="http://www.w3.org/2000/svg"
   xmlns:sodipodi="http://sodipodi.sourceforge.net/DTD/sodipodi-0.dtd"
   xmlns:inkscape="http://www.inkscape.org/namespaces/inkscape"
   version="1.1"
   width="45.405998"
   height="58.622917"
   id="svg12988"
   inkscape:version="0.48.4 r9939"
   sodipodi:docname="pla.svg">
  <sodipodi:namedview
     pagecolor="#ffffff"
     bordercolor="#666666"
     borderopacity="1"
     objecttolerance="10"
     gridtolerance="10"
     guidetolerance="10"
     inkscape:pageopacity="0"
     inkscape:pageshadow="2"
     inkscape:window-width="2556"
     inkscape:window-height="1384"
     id="namedview5687"
     showgrid="false"
     inkscape:zoom="4.0257294"
     inkscape:cx="22.702999"
     inkscape:cy="29.311459"
     inkscape:window-x="0"
     inkscape:window-y="54"
     inkscape:window-maximized="0"
     inkscape:current-layer="svg12988" />
  <defs
     id="defs12990" />
  <metadata
     id="metadata12993">
    <rdf:RDF>
      <cc:Work
         rdf:about="">
        <dc:format>image/svg+xml</dc:format>
        <dc:type
           rdf:resource="http://purl.org/dc/dcmitype/StillImage" />
        <dc:title />
      </cc:Work>
    </rdf:RDF>
  </metadata>
  <rect
     style="color:#000000;fill:#2f236d;fill-opacity:1;fill-rule:nonzero;stroke:none;stroke-width:10;marker:none;visibility:visible;display:inline;overflow:visible;enable-background:accumulate"
     id="rect2985-5-6-2-6-9"
     y="0.15210147"
     x="-2.9296875e-06"
     height="45.405998"
     width="45.405998" />
  <g
     style="font-size:13px;font-style:normal;font-variant:normal;font-weight:normal;font-stretch:normal;line-height:125%;letter-spacing:0px;word-spacing:0px;fill:#2f236d;fill-opacity:1;stroke:none;font-family:Alte Haas Grotesk;-inkscape-font-specification:Alte Haas Grotesk"
     id="text3002-4-3-4-8-3-4">
    <path
       d="m 17.489587,52.083925 c 0,-1.897998 -1.079002,-2.938 -3.055,-2.938 l -4.186,0 0,9.477 1.95,0 0,-3.38 2.431,0 c 1.741998,0 2.86,-1.235002 2.86,-3.159 m -1.95,0.117 c 0,0.961999 -0.481001,1.417 -1.521,1.417 l -1.82,0 0,-2.847 1.82,0 c 1.039999,0 1.521,0.455001 1.521,1.43"
       style="font-weight:bold;fill:#2f236d;font-family:TeX Gyre Heros;-inkscape-font-specification:TeX Gyre Heros"
       id="path5936" />
    <path
       d="m 25.47118,58.622925 0,-1.625 -4.537,0 0,-7.852 -1.95,0 0,9.477 6.487,0"
       style="font-weight:bold;fill:#2f236d;font-family:TeX Gyre Heros;-inkscape-font-specification:TeX Gyre Heros"
       id="path5938" />
    <path
       d="m 35.157399,58.622925 -3.276,-9.477 -2.158,0 -3.367,9.477 1.989,0 0.637,-1.911 3.549,0 0.624,1.911 2.002,0 m -3.159,-3.536 -2.47,0 1.235,-3.705 1.235,3.705"
       style="font-weight:bold;fill:#2f236d;font-family:TeX Gyre Heros;-inkscape-font-specification:TeX Gyre Heros"
       id="path5940" />
  </g>
  <g
     style="fill:#ffffff;fill-opacity:1"
     id="g12752"
     transform="matrix(0.41207746,0,0,0.41207746,2.09914,2.25121)">
    <circle
       sodipodi:ry="6.7459998"
       sodipodi:rx="6.7459998"
       sodipodi:cy="76.217003"
       sodipodi:cx="68.781998"
       d="m 75.527997,76.217003 c 0,3.725713 -3.020287,6.746 -6.745999,6.746 -3.725713,0 -6.746,-3.020287 -6.746,-6.746 0,-3.725713 3.020287,-6.746 6.746,-6.746 3.725712,0 6.745999,3.020287 6.745999,6.746 z"
       style="fill:#ffffff;fill-opacity:1"
       id="circle12714"
       r="6.7459998"
       cy="76.217003"
       cx="68.781998" />
    <circle
       sodipodi:ry="3.7420001"
       sodipodi:rx="3.7420001"
       sodipodi:cy="50.098999"
       sodipodi:cx="29.257999"
       d="m 33,50.098999 c 0,2.06665 -1.675351,3.742 -3.742001,3.742 -2.066649,0 -3.742,-1.67535 -3.742,-3.742 0,-2.06665 1.675351,-3.742 3.742,-3.742 2.06665,0 3.742001,1.67535 3.742001,3.742 z"
       style="fill:#ffffff;fill-opacity:1"
       id="circle12716"
       r="3.7420001"
       cy="50.098999"
       cx="29.257999" />
    <g
       style="fill:#ffffff;fill-opacity:1"
       id="g12718">
      <path
         inkscape:connector-curvature="0"
         style="fill:#ffffff;fill-opacity:1"
         id="path12720"
         d="M 50,71.405 C 38.197,71.405 28.595,61.802 28.595,50 28.595,38.198 38.197,28.596 50,28.596 61.803,28.596 71.405,38.197 71.405,50 71.405,61.803 61.803,71.405 50,71.405 z M 50,29.596 C 38.749,29.596 29.595,38.749 29.595,50 29.595,61.252 38.748,70.405 50,70.405 61.252,70.405 70.405,61.252 70.405,50 70.405,38.749 61.251,29.596 50,29.596 z" />
    </g>
    <g
       style="fill:#ffffff;fill-opacity:1"
       id="g12722">
      <path
         inkscape:connector-curvature="0"
         style="fill:#ffffff;fill-opacity:1"
         id="path12724"
         d="M 50,83.938 C 31.286,83.938 16.062,68.713 16.062,50 16.062,31.287 31.286,16.062 50,16.062 68.714,16.062 83.938,31.286 83.938,50 83.938,68.714 68.714,83.938 50,83.938 z M 50,18.062 C 32.389,18.062 18.062,32.389 18.062,50 18.062,67.611 32.389,81.938 50,81.938 67.611,81.938 81.938,67.611 81.938,50 81.938,32.389 67.611,18.062 50,18.062 z" />
    </g>
    <g
       style="fill:#ffffff;fill-opacity:1"
       id="g12726">
      <path
         inkscape:connector-curvature="0"
         style="fill:#ffffff;fill-opacity:1"
         id="path12728"
         d="M 50,98.901 C 23.036,98.901 1.099,76.964 1.099,50 1.099,23.036 23.036,1.099 50,1.099 76.964,1.099 98.901,23.036 98.901,50 98.901,76.964 76.964,98.901 50,98.901 z M 50,5.099 C 25.241,5.099 5.099,25.241 5.099,50 5.099,74.759 25.241,94.901 50,94.901 74.759,94.901 94.901,74.759 94.901,50 94.901,25.241 74.759,5.099 50,5.099 z" />
    </g>
    <g
       style="fill:#ffffff;fill-opacity:1"
       id="g12730">
      <g
         style="fill:#ffffff;fill-opacity:1"
         id="g12732">
        <g
           style="fill:#ffffff;fill-opacity:1"
           id="g12734">
          <path
             inkscape:connector-curvature="0"
             style="fill:#ffffff;fill-opacity:1"
             id="path12736"
             d="m 50,65.806 c -0.32,0 -0.624,-0.145 -0.825,-0.395 l -2.986,-3.693 -4.586,1.234 c -0.309,0.084 -0.64,0.022 -0.899,-0.166 -0.259,-0.189 -0.419,-0.483 -0.436,-0.804 l -0.244,-4.744 -4.436,-1.697 c -0.299,-0.114 -0.53,-0.359 -0.629,-0.663 -0.1,-0.304 -0.055,-0.638 0.119,-0.906 l 2.59,-3.981 -2.59,-3.981 C 34.904,45.742 34.859,45.408 34.959,45.104 35.058,44.8 35.29,44.557 35.588,44.441 L 40.024,42.745 40.268,38 c 0.016,-0.32 0.177,-0.614 0.436,-0.804 0.259,-0.189 0.59,-0.25 0.899,-0.165 l 4.586,1.232 2.986,-3.693 c 0.403,-0.498 1.248,-0.498 1.65,0 l 2.986,3.693 4.586,-1.232 c 0.309,-0.085 0.64,-0.023 0.899,0.165 0.259,0.189 0.42,0.483 0.436,0.804 l 0.244,4.745 4.436,1.696 c 0.299,0.116 0.53,0.359 0.629,0.663 0.1,0.305 0.055,0.639 -0.12,0.906 l -2.59,3.981 2.59,3.981 c 0.175,0.269 0.219,0.603 0.12,0.906 -0.099,0.304 -0.331,0.549 -0.629,0.663 l -4.436,1.697 -0.244,4.744 c -0.016,0.32 -0.177,0.614 -0.436,0.804 -0.259,0.188 -0.59,0.248 -0.899,0.166 l -4.586,-1.234 -2.986,3.693 C 50.624,65.661 50.32,65.806 50,65.806 z m -3.419,-6.351 c 0.315,0 0.62,0.14 0.825,0.394 L 50,63.058 52.595,59.849 c 0.264,-0.326 0.696,-0.466 1.101,-0.357 l 3.986,1.072 0.212,-4.124 c 0.021,-0.419 0.288,-0.785 0.68,-0.936 l 3.854,-1.476 -2.25,-3.459 c -0.229,-0.353 -0.229,-0.806 0,-1.157 l 2.25,-3.459 -3.854,-1.478 c -0.393,-0.149 -0.659,-0.516 -0.68,-0.935 l -0.212,-4.124 -3.986,1.073 c -0.405,0.109 -0.837,-0.031 -1.101,-0.357 L 50,36.923 l -2.595,3.21 c -0.264,0.326 -0.694,0.468 -1.101,0.357 l -3.986,-1.073 -0.212,4.124 c -0.021,0.419 -0.288,0.785 -0.68,0.935 l -3.854,1.478 2.251,3.459 c 0.229,0.352 0.229,0.805 0,1.157 l -2.251,3.459 3.854,1.476 c 0.393,0.15 0.659,0.517 0.68,0.936 l 0.212,4.124 3.986,-1.072 c 0.092,-0.026 0.185,-0.038 0.277,-0.038 z" />
        </g>
      </g>
      <g
         style="fill:#ffffff;fill-opacity:1"
         id="g12738">
        <g
           style="fill:#ffffff;fill-opacity:1"
           id="g12740">
          <circle
             sodipodi:ry="7.954"
             sodipodi:rx="7.954"
             sodipodi:cy="49.990002"
             sodipodi:cx="50"
             d="m 57.954,49.990002 c 0,4.392873 -3.561127,7.954 -7.954,7.954 -4.392873,0 -7.954,-3.561127 -7.954,-7.954 0,-4.392873 3.561127,-7.954 7.954,-7.954 4.392873,0 7.954,3.561127 7.954,7.954 z"
             style="fill:#ffffff;fill-opacity:1"
             id="circle12742"
             r="7.954"
             cy="49.990002"
             cx="50" />
        </g>
      </g>
    </g>
    <circle
       sodipodi:ry="8.1420002"
       sodipodi:rx="8.1420002"
       sodipodi:cy="15.142"
       sodipodi:cx="82.141998"
       d="m 90.283998,15.142 c 0,4.496703 -3.645297,8.142 -8.142,8.142 -4.496702,0 -8.142,-3.645297 -8.142,-8.142 0,-4.496702 3.645298,-8.142 8.142,-8.142 4.496703,0 8.142,3.645298 8.142,8.142 z"
       style="fill:#ffffff;fill-opacity:1"
       id="circle12744"
       r="8.1420002"
       cy="15.142"
       cx="82.141998" />
  </g>
</svg>
