<?xml version="1.0" encoding="UTF-8" standalone="no"?>
<!-- Created with Inkscape (http://www.inkscape.org/) -->

<svg
   xmlns:dc="http://purl.org/dc/elements/1.1/"
   xmlns:cc="http://creativecommons.org/ns#"
   xmlns:rdf="http://www.w3.org/1999/02/22-rdf-syntax-ns#"
   xmlns:svg="http://www.w3.org/2000/svg"
   xmlns="http://www.w3.org/2000/svg"
   xmlns:sodipodi="http://sodipodi.sourceforge.net/DTD/sodipodi-0.dtd"
   xmlns:inkscape="http://www.inkscape.org/namespaces/inkscape"
   width="45.405998"
   height="58.622917"
   id="svg12988"
   version="1.1"
   inkscape:version="0.48.4 r9939"
   sodipodi:docname="simu.svg">
  <defs
     id="defs12990" />
  <sodipodi:namedview
     id="base"
     pagecolor="#ffffff"
     bordercolor="#666666"
     borderopacity="1.0"
     inkscape:pageopacity="0.0"
     inkscape:pageshadow="2"
     inkscape:zoom="7.9195959"
     inkscape:cx="8.5614949"
     inkscape:cy="-0.042285766"
     inkscape:document-units="px"
     inkscape:current-layer="layer1"
     showgrid="false"
     fit-margin-top="0"
     fit-margin-left="0"
     fit-margin-right="0"
     fit-margin-bottom="0"
     inkscape:window-width="2556"
     inkscape:window-height="1384"
     inkscape:window-x="0"
     inkscape:window-y="54"
     inkscape:window-maximized="0" />
  <metadata
     id="metadata12993">
    <rdf:RDF>
      <cc:Work
         rdf:about="">
        <dc:format>image/svg+xml</dc:format>
        <dc:type
           rdf:resource="http://purl.org/dc/dcmitype/StillImage" />
        <dc:title />
      </cc:Work>
    </rdf:RDF>
  </metadata>
  <g
     inkscape:label="Layer 1"
     inkscape:groupmode="layer"
     id="layer1"
     transform="translate(-377.297,-271.62216)">
    <rect
       style="color:#000000;fill:#1e1e1e;fill-opacity:1;fill-rule:nonzero;stroke:none;stroke-width:10;marker:none;visibility:visible;display:inline;overflow:visible;enable-background:accumulate"
       id="rect2985-5-6-9"
       width="45.405998"
       height="45.405998"
       x="377.297"
       y="271.61819" />
    <g
       style="font-size:13px;font-style:normal;font-variant:normal;font-weight:normal;font-stretch:normal;line-height:125%;letter-spacing:0px;word-spacing:0px;fill:#1e1e1e;fill-opacity:1;stroke:none;font-family:Alte Haas Grotesk;-inkscape-font-specification:Alte Haas Grotesk"
       id="text3002-4-3-4-6">
      <path
         d="m 392.20459,327.24208 c 0,-1.495 -0.75401,-2.197 -2.509,-2.535 l -1.482,-0.286 c -1.391,-0.273 -1.794,-0.546 -1.794,-1.235 0,-0.715 0.637,-1.17 1.638,-1.17 1.23499,0 1.989,0.52 1.989,1.482 l 1.82,0 c 0,-2.002 -1.40401,-3.042 -3.718,-3.042 -2.275,0 -3.588,1.066 -3.588,2.912 0,1.482 0.741,2.171 2.665,2.548 l 1.326,0.26 c 1.29999,0.26 1.781,0.533 1.781,1.3 0,0.793 -0.72801,1.209 -1.911,1.209 -1.326,0 -2.132,-0.559 -2.132,-1.573 l -1.898,0 c 0,2.028 1.508,3.133 3.926,3.133 2.44399,0 3.887,-1.079 3.887,-3.003"
         style="font-weight:bold;fill:#1e1e1e;font-family:TeX Gyre Heros;-inkscape-font-specification:TeX Gyre Heros"
         id="path5884" />
      <path
         d="m 395.42818,330.08908 0,-9.477 -1.95,0 0,9.477 1.95,0"
         style="font-weight:bold;fill:#1e1e1e;font-family:TeX Gyre Heros;-inkscape-font-specification:TeX Gyre Heros"
         id="path5886" />
      <path
         d="m 406.35265,330.08908 0,-9.477 -2.938,0 -1.664,7.54 -1.716,-7.54 -2.912,0 0,9.477 1.95,0 0,-7.384 1.703,7.384 1.95,0 1.677,-7.384 0,7.384 1.95,0"
         style="font-weight:bold;fill:#1e1e1e;font-family:TeX Gyre Heros;-inkscape-font-specification:TeX Gyre Heros"
         id="path5888" />
      <path
         d="m 415.60845,326.89108 0,-6.279 -1.95,0 0,6.279 c 0,1.144 -0.58501,1.69 -1.807,1.69 -1.222,0 -1.807,-0.546 -1.807,-1.69 l 0,-6.279 -1.95,0 0,6.279 c 0,2.236 1.586,3.354 3.757,3.354 2.17099,0 3.757,-1.118 3.757,-3.354"
         style="font-weight:bold;fill:#1e1e1e;font-family:TeX Gyre Heros;-inkscape-font-specification:TeX Gyre Heros"
         id="path5890" />
    </g>
    <g
       style="font-size:20px;font-style:normal;font-variant:normal;font-weight:normal;font-stretch:normal;line-height:125%;letter-spacing:0px;word-spacing:0px;fill:#59c36a;fill-opacity:1;stroke:none;font-family:Ubuntu Mono;-inkscape-font-specification:Ubuntu Mono"
       id="text20694-4">
      <path
         d="m 392.575,300.14122 0,-1.47 c 0,-0.33 -0.27,-0.51 -0.57,-0.63 l -8.31,-3.66 8.31,-3.63 c 0.3,-0.12 0.57,-0.3 0.57,-0.63 l 0,-1.47 c 0,-0.33 -0.3,-0.51 -0.6,-0.36 l -10.29,4.74 c -0.3,0.15 -0.51,0.33 -0.51,0.66 l 0,1.41 c 0,0.33 0.21,0.51 0.51,0.66 l 10.29,4.74 c 0.3,0.15 0.6,-0.03 0.6,-0.36"
         style="font-size:30px;fill:#59c36a;font-family:NotesEsa;-inkscape-font-specification:NotesEsa"
         id="path17388" />
      <path
         d="m 404.245,284.27122 c 0.09,-0.33 -0.09,-0.6 -0.42,-0.6 l -1.56,0 c -0.33,0 -0.6,0.21 -0.69,0.54 l -5.82,20.16 c -0.09,0.33 0.09,0.6 0.42,0.6 l 1.56,0 c 0.33,0 0.6,-0.21 0.69,-0.54 l 5.82,-20.16"
         style="font-size:30px;fill:#59c36a;font-family:NotesEsa;-inkscape-font-specification:NotesEsa"
         id="path17390" />
      <path
         d="m 418.825,295.10122 0,-1.41 c 0,-0.33 -0.21,-0.51 -0.51,-0.66 l -10.29,-4.74 c -0.3,-0.15 -0.6,0.03 -0.6,0.36 l 0,1.47 c 0,0.33 0.27,0.51 0.57,0.63 l 8.31,3.63 -8.31,3.66 c -0.3,0.12 -0.57,0.3 -0.57,0.63 l 0,1.47 c 0,0.33 0.3,0.51 0.6,0.36 l 10.29,-4.74 c 0.3,-0.15 0.51,-0.33 0.51,-0.66"
         style="font-size:30px;fill:#59c36a;font-family:NotesEsa;-inkscape-font-specification:NotesEsa"
         id="path17392" />
    </g>
  </g>
</svg>
