<?xml version="1.0" encoding="UTF-8" standalone="no"?>
<!-- Created with Inkscape (http://www.inkscape.org/) -->

<svg
   xmlns:dc="http://purl.org/dc/elements/1.1/"
   xmlns:cc="http://creativecommons.org/ns#"
   xmlns:rdf="http://www.w3.org/1999/02/22-rdf-syntax-ns#"
   xmlns:svg="http://www.w3.org/2000/svg"
   xmlns="http://www.w3.org/2000/svg"
   xmlns:sodipodi="http://sodipodi.sourceforge.net/DTD/sodipodi-0.dtd"
   xmlns:inkscape="http://www.inkscape.org/namespaces/inkscape"
   version="1.1"
   width="45.405998"
   height="58.622917"
   id="svg12988"
   inkscape:version="0.48.4 r9939"
   sodipodi:docname="spect.svg">
  <sodipodi:namedview
     pagecolor="#ffffff"
     bordercolor="#666666"
     borderopacity="1"
     objecttolerance="10"
     gridtolerance="10"
     guidetolerance="10"
     inkscape:pageopacity="0"
     inkscape:pageshadow="2"
     inkscape:window-width="2556"
     inkscape:window-height="1384"
     id="namedview5736"
     showgrid="false"
     inkscape:zoom="4.0257294"
     inkscape:cx="22.702999"
     inkscape:cy="29.311459"
     inkscape:window-x="0"
     inkscape:window-y="54"
     inkscape:window-maximized="0"
     inkscape:current-layer="svg12988" />
  <defs
     id="defs12990" />
  <metadata
     id="metadata12993">
    <rdf:RDF>
      <cc:Work
         rdf:about="">
        <dc:format>image/svg+xml</dc:format>
        <dc:type
           rdf:resource="http://purl.org/dc/dcmitype/StillImage" />
        <dc:title />
      </cc:Work>
    </rdf:RDF>
  </metadata>
  <rect
     style="color:#000000;fill:#dd523b;fill-opacity:1;fill-rule:nonzero;stroke:none;stroke-width:10;marker:none;visibility:visible;display:inline;overflow:visible;enable-background:accumulate"
     id="rect2985-5"
     y="1.8652344e-06"
     x="-2.9296875e-06"
     height="45.405998"
     width="45.405998" />
  <g
     style="font-size:13px;font-style:normal;font-variant:normal;font-weight:normal;font-stretch:normal;line-height:125%;letter-spacing:0px;word-spacing:0px;fill:#dd523b;fill-opacity:1;stroke:none;font-family:Alte Haas Grotesk;-inkscape-font-specification:Alte Haas Grotesk"
     id="text3002-4-3-0">
    <path
       d="m 9.1143425,55.619919 c 0,-1.494999 -0.7540017,-2.197 -2.509,-2.535 l -1.482,-0.286 c -1.3909986,-0.273 -1.794,-0.546001 -1.794,-1.235 0,-0.714999 0.637001,-1.17 1.638,-1.17 1.2349988,0 1.989,0.520001 1.989,1.482 l 1.82,0 c 0,-2.001998 -1.4040023,-3.042 -3.718,-3.042 -2.2749977,0 -3.588,1.066002 -3.588,2.912 0,1.481998 0.741002,2.171 2.665,2.548 l 1.326,0.26 c 1.2999987,0.26 1.781,0.533001 1.781,1.3 0,0.792999 -0.7280011,1.209 -1.911,1.209 -1.3259986,0 -2.132,-0.559001 -2.132,-1.573 l -1.898,0 c 0,2.027998 1.5080025,3.133 3.926,3.133 2.4439976,0 3.887,-1.079002 3.887,-3.003"
       style="font-weight:bold;fill:#dd523b;font-family:TeX Gyre Heros;-inkscape-font-specification:TeX Gyre Heros Bold"
       id="path5873" />
    <path
       d="m 17.797936,51.927919 c 0,-1.897998 -1.079002,-2.938 -3.055,-2.938 l -4.186,0 0,9.477 1.95,0 0,-3.38 2.431,0 c 1.741999,0 2.86,-1.235002 2.86,-3.159 m -1.95,0.117 c 0,0.961999 -0.481001,1.417 -1.521,1.417 l -1.82,0 0,-2.847 1.82,0 c 1.039999,0 1.521,0.455001 1.521,1.43"
       style="font-weight:bold;fill:#dd523b;font-family:TeX Gyre Heros;-inkscape-font-specification:TeX Gyre Heros Bold"
       id="path5875" />
    <path
       d="m 26.36453,58.466919 0,-1.625 -5.135,0 0,-2.457 4.537,0 0,-1.625 -4.537,0 0,-2.145 4.901,0 0,-1.625 -6.851,0 0,9.477 7.085,0"
       style="font-weight:bold;fill:#dd523b;font-family:TeX Gyre Heros;-inkscape-font-specification:TeX Gyre Heros Bold"
       id="path5877" />
    <path
       d="m 35.841124,55.229919 -1.898,0 c -0.117,1.208999 -0.884001,1.755 -2.093,1.755 -1.507999,0 -2.392,-1.157002 -2.392,-3.224 0,-2.092998 0.923001,-3.263 2.457,-3.263 1.052999,0 1.742,0.481001 2.028,1.703 l 1.859,0 c -0.169,-2.183998 -1.820002,-3.367 -3.952,-3.367 -2.677998,0 -4.342,1.833003 -4.342,4.901 0,3.041997 1.651002,4.888 4.29,4.888 2.352997,0 3.926,-1.222002 4.043,-3.393"
       style="font-weight:bold;fill:#dd523b;font-family:TeX Gyre Heros;-inkscape-font-specification:TeX Gyre Heros Bold"
       id="path5879" />
    <path
       d="m 44.104655,50.614919 0,-1.625 -7.592,0 0,1.625 2.873,0 0,7.852 1.95,0 0,-7.852 2.769,0"
       style="font-weight:bold;fill:#dd523b;font-family:TeX Gyre Heros;-inkscape-font-specification:TeX Gyre Heros Bold"
       id="path5881" />
  </g>
  <path
     inkscape:connector-curvature="0"
     style="fill:none;stroke:#ffffff;stroke-width:1;stroke-linecap:butt;stroke-linejoin:miter;stroke-miterlimit:4;stroke-opacity:1;stroke-dasharray:none"
     id="path3825"
     d="m 22.00599,6.90301 0,31.6 0,0" />
  <path
     inkscape:connector-curvature="0"
     style="fill:none;stroke:#ffffff;stroke-width:1;stroke-linecap:butt;stroke-linejoin:miter;stroke-miterlimit:4;stroke-opacity:1;stroke-dasharray:none"
     id="path3825-4"
     d="m 25.30299,6.90301 0,31.6 0,0" />
  <path
     inkscape:connector-curvature="0"
     style="fill:none;stroke:#ffffff;stroke-width:1;stroke-linecap:butt;stroke-linejoin:miter;stroke-miterlimit:4;stroke-opacity:1;stroke-dasharray:none"
     id="path3825-4-7"
     d="m 31.30299,6.90301 0,31.6 0,0" />
  <path
     inkscape:connector-curvature="0"
     style="fill:none;stroke:#ffffff;stroke-width:1;stroke-linecap:butt;stroke-linejoin:miter;stroke-miterlimit:4;stroke-opacity:1;stroke-dasharray:none"
     id="path3825-4-7-8"
     d="m 19.30299,6.90301 0,31.6 0,0" />
  <path
     inkscape:connector-curvature="0"
     style="fill:none;stroke:#ffffff;stroke-width:1;stroke-linecap:butt;stroke-linejoin:miter;stroke-miterlimit:4;stroke-opacity:1;stroke-dasharray:none"
     id="path3825-4-7-4"
     d="m 15.30299,38.50301 0,-31.6 0,0" />
  <path
     inkscape:connector-curvature="0"
     style="fill:none;stroke:#ffffff;stroke-width:1;stroke-linecap:butt;stroke-linejoin:miter;stroke-miterlimit:4;stroke-opacity:1;stroke-dasharray:none"
     id="path3825-4-7-47"
     d="m 13.30299,6.90301 0,31.6 0,0" />
  <path
     inkscape:connector-curvature="0"
     style="fill:none;stroke:#ffffff;stroke-width:1;stroke-linecap:butt;stroke-linejoin:miter;stroke-miterlimit:4;stroke-opacity:1;stroke-dasharray:none"
     id="path3825-4-7-0"
     d="m 17.70299,6.90301 0,31.6 0,0" />
  <path
     inkscape:connector-curvature="0"
     style="fill:none;stroke:#ffffff;stroke-width:1;stroke-linecap:butt;stroke-linejoin:miter;stroke-miterlimit:4;stroke-opacity:1;stroke-dasharray:none"
     id="path3825-4-7-80"
     d="m 41.70299,6.90301 0,31.6 0,0" />
  <path
     inkscape:connector-curvature="0"
     style="fill:none;stroke:#ffffff;stroke-width:1;stroke-linecap:butt;stroke-linejoin:miter;stroke-miterlimit:4;stroke-opacity:1;stroke-dasharray:none"
     id="path3825-4-7-3"
     d="m 3.70299,6.90301 0,31.6 0,0" />
  <path
     inkscape:connector-curvature="0"
     style="fill:none;stroke:#ffffff;stroke-width:1;stroke-linecap:butt;stroke-linejoin:miter;stroke-miterlimit:4;stroke-opacity:1;stroke-dasharray:none"
     id="path3825-4-7-31"
     d="m 39.70299,6.90301 0,31.6 0,0" />
</svg>
