<?xml version="1.0" encoding="UTF-8" standalone="no"?>
<!-- Created with Inkscape (http://www.inkscape.org/) -->

<svg
   xmlns:dc="http://purl.org/dc/elements/1.1/"
   xmlns:cc="http://creativecommons.org/ns#"
   xmlns:rdf="http://www.w3.org/1999/02/22-rdf-syntax-ns#"
   xmlns:svg="http://www.w3.org/2000/svg"
   xmlns="http://www.w3.org/2000/svg"
   xmlns:sodipodi="http://sodipodi.sourceforge.net/DTD/sodipodi-0.dtd"
   xmlns:inkscape="http://www.inkscape.org/namespaces/inkscape"
   version="1.1"
   width="45.405998"
   height="58.622917"
   id="svg12988"
   inkscape:version="0.48.4 r9939"
   sodipodi:docname="star.svg">
  <sodipodi:namedview
     pagecolor="#ffffff"
     bordercolor="#666666"
     borderopacity="1"
     objecttolerance="10"
     gridtolerance="10"
     guidetolerance="10"
     inkscape:pageopacity="0"
     inkscape:pageshadow="2"
     inkscape:window-width="2556"
     inkscape:window-height="1384"
     id="namedview5746"
     showgrid="false"
     inkscape:zoom="4.0257294"
     inkscape:cx="22.702999"
     inkscape:cy="29.311459"
     inkscape:window-x="0"
     inkscape:window-y="54"
     inkscape:window-maximized="0"
     inkscape:current-layer="svg12988" />
  <defs
     id="defs12990" />
  <metadata
     id="metadata12993">
    <rdf:RDF>
      <cc:Work
         rdf:about="">
        <dc:format>image/svg+xml</dc:format>
        <dc:type
           rdf:resource="http://purl.org/dc/dcmitype/StillImage" />
        <dc:title />
      </cc:Work>
    </rdf:RDF>
  </metadata>
  <rect
     style="color:#000000;fill:#ff787f;fill-opacity:1;fill-rule:nonzero;stroke:none;stroke-width:10;marker:none;visibility:visible;display:inline;overflow:visible;enable-background:accumulate"
     id="rect2985-5-6-2-2-8"
     y="-0.0039043848"
     x="-2.9296875e-06"
     height="45.405998"
     width="45.405998" />
  <g
     style="font-size:13px;font-style:normal;font-variant:normal;font-weight:normal;font-stretch:normal;line-height:125%;letter-spacing:0px;word-spacing:0px;fill:#ff787f;fill-opacity:1;stroke:none;font-family:Alte Haas Grotesk;-inkscape-font-specification:Alte Haas Grotesk"
     id="text3002-4-3-4-8-4-7">
    <path
       d="m 13.907494,55.619919 c 0,-1.494999 -0.754001,-2.197 -2.509,-2.535 l -1.4819995,-0.286 c -1.3909987,-0.273 -1.794,-0.546001 -1.794,-1.235 0,-0.714999 0.637001,-1.17 1.638,-1.17 1.2349985,0 1.9889995,0.520001 1.9889995,1.482 l 1.82,0 c 0,-2.001998 -1.404002,-3.042 -3.7179995,-3.042 -2.2749978,0 -3.588,1.066002 -3.588,2.912 0,1.481998 0.7410019,2.171 2.665,2.548 l 1.3259995,0.26 c 1.299999,0.26 1.781,0.533001 1.781,1.3 0,0.792999 -0.728001,1.209 -1.911,1.209 -1.3259982,0 -2.1319995,-0.559001 -2.1319995,-1.573 l -1.898,0 c 0,2.027998 1.5080024,3.133 3.9259995,3.133 2.443998,0 3.887,-1.079002 3.887,-3.003"
       style="font-weight:bold;fill:#ff787f;font-family:TeX Gyre Heros;-inkscape-font-specification:TeX Gyre Heros"
       id="path5851" />
    <path
       d="m 22.059916,50.614919 0,-1.625 -7.592,0 0,1.625 2.873,0 0,7.852 1.95,0 0,-7.852 2.769,0"
       style="font-weight:bold;fill:#ff787f;font-family:TeX Gyre Heros;-inkscape-font-specification:TeX Gyre Heros"
       id="path5853" />
    <path
       d="m 30.254994,58.466919 -3.276,-9.477 -2.158,0 -3.367,9.477 1.989,0 0.637,-1.911 3.549,0 0.624,1.911 2.002,0 m -3.159,-3.536 -2.47,0 1.235,-3.705 1.235,3.705"
       style="font-weight:bold;fill:#ff787f;font-family:TeX Gyre Heros;-inkscape-font-specification:TeX Gyre Heros"
       id="path5855" />
    <path
       d="m 39.311526,58.466919 0,-0.351 c -0.299,-0.169 -0.416,-0.364 -0.416,-0.78 -0.052,-2.794997 -0.104002,-2.925001 -1.313,-3.445 1.065999,-0.416 1.599,-1.183001 1.599,-2.34 0,-1.468999 -0.871002,-2.561 -2.548,-2.561 l -5.083,0 0,9.477 1.95,0 0,-3.757 2.236,0 c 0.844999,0 1.209,0.338001 1.209,1.131 l -0.026,1.001 c 0,0.883999 0.052,1.17 0.299,1.625 l 2.093,0 m -2.08,-6.643 c 0,0.844999 -0.273001,1.261 -1.378,1.261 l -2.353,0 0,-2.47 2.353,0 c 1.065999,0 1.378,0.390001 1.378,1.209"
       style="font-weight:bold;fill:#ff787f;font-family:TeX Gyre Heros;-inkscape-font-specification:TeX Gyre Heros"
       id="path5857" />
  </g>
  <path
     inkscape:connector-curvature="0"
     style="fill:#ffffff;fill-opacity:1"
     id="path4502"
     d="m 39.46551,22.43166 -12.30172,-1.2122 c -0.37588,-0.037 -0.74203,-0.1499 -1.08207,-0.32209 l 5.88131,-7.16711 c 0.73151,-0.89159 0.60062,-1.02249 -0.29097,-0.291 l -7.16711,5.88131 c -0.17178,-0.34001 -0.28512,-0.70621 -0.32213,-1.082 L 22.97064,5.93677 c -0.14724,-1.49219 -0.38756,-1.49219 -0.5348,0 l -1.21218,12.3018 c -0.037,0.37579 -0.15035,0.74199 -0.32214,1.082 l -7.1671,-5.88131 c -0.8916,-0.73149 -1.02247,-0.60059 -0.29096,0.291 l 5.88131,7.16711 c -0.34005,0.1718 -0.70619,0.28509 -1.08208,0.32209 l -12.3021,1.2122 c -1.49224,0.14721 -1.49224,0.3876 0,0.5348 l 12.30171,1.2122 c 0.37588,0.037 0.74203,0.15031 1.08207,0.32211 l -5.88131,7.16709 c -0.7315,0.89161 -0.60064,1.02251 0.29098,0.29101 l 7.1671,-5.8813 c 0.17178,0.33999 0.28512,0.70619 0.32213,1.08209 l 1.21218,12.30171 c 0.14724,1.49219 0.38757,1.49219 0.53481,0 l 1.21217,-12.30171 c 0.037,-0.3759 0.15036,-0.7421 0.32212,-1.08209 l 7.16712,5.8813 c 0.8916,0.7315 1.02247,0.6006 0.29097,-0.29101 l -5.88132,-7.16709 c 0.34004,-0.1718 0.70619,-0.2851 1.08208,-0.32211 l 12.30172,-1.2122 c 1.49262,-0.14679 1.49262,-0.38759 3.9e-4,-0.53479 z" />
</svg>
