<?xml version="1.0" encoding="UTF-8" standalone="no"?>
<!-- Created with Inkscape (http://www.inkscape.org/) -->

<svg
   xmlns:dc="http://purl.org/dc/elements/1.1/"
   xmlns:cc="http://creativecommons.org/ns#"
   xmlns:rdf="http://www.w3.org/1999/02/22-rdf-syntax-ns#"
   xmlns:svg="http://www.w3.org/2000/svg"
   xmlns="http://www.w3.org/2000/svg"
   xmlns:sodipodi="http://sodipodi.sourceforge.net/DTD/sodipodi-0.dtd"
   xmlns:inkscape="http://www.inkscape.org/namespaces/inkscape"
   version="1.1"
   width="45.405998"
   height="58.622917"
   id="svg12988"
   inkscape:version="0.48.4 r9939"
   sodipodi:docname="sun.svg">
  <sodipodi:namedview
     pagecolor="#ffffff"
     bordercolor="#666666"
     borderopacity="1"
     objecttolerance="10"
     gridtolerance="10"
     guidetolerance="10"
     inkscape:pageopacity="0"
     inkscape:pageshadow="2"
     inkscape:window-width="2556"
     inkscape:window-height="1384"
     id="namedview5781"
     showgrid="false"
     inkscape:zoom="4.0257294"
     inkscape:cx="22.702999"
     inkscape:cy="29.311459"
     inkscape:window-x="0"
     inkscape:window-y="54"
     inkscape:window-maximized="0"
     inkscape:current-layer="svg12988" />
  <defs
     id="defs12990" />
  <metadata
     id="metadata12993">
    <rdf:RDF>
      <cc:Work
         rdf:about="">
        <dc:format>image/svg+xml</dc:format>
        <dc:type
           rdf:resource="http://purl.org/dc/dcmitype/StillImage" />
        <dc:title />
      </cc:Work>
    </rdf:RDF>
  </metadata>
  <path
     inkscape:connector-curvature="0"
     style="fill:none;stroke:#ffffff;stroke-width:0.89679062;stroke-linecap:butt;stroke-linejoin:miter;stroke-miterlimit:4;stroke-opacity:1;stroke-dasharray:none"
     id="path3825-4-7-3-0-58-1"
     d="m 22.703,35.7216 0,5.76876 0,0" />
  <rect
     style="color:#000000;fill:#f5a901;fill-opacity:1;fill-rule:nonzero;stroke:none;stroke-width:10;marker:none;visibility:visible;display:inline;overflow:visible;enable-background:accumulate"
     id="rect2985-9-9"
     y="1.8652344e-06"
     x="-2.9296875e-06"
     height="45.405998"
     width="45.405998" />
  <g
     style="font-size:13px;font-style:normal;font-variant:normal;font-weight:normal;font-stretch:normal;line-height:125%;letter-spacing:0px;word-spacing:0px;fill:#f5a901;fill-opacity:1;stroke:none;font-family:Alte Haas Grotesk;-inkscape-font-specification:Alte Haas Grotesk"
     id="text3002-4">
    <path
       d="m 17.388451,55.619919 c 0,-1.494999 -0.754001,-2.197 -2.509,-2.535 l -1.482,-0.286 c -1.390998,-0.273 -1.794,-0.546001 -1.794,-1.235 0,-0.714999 0.637001,-1.17 1.638,-1.17 1.234999,0 1.989,0.520001 1.989,1.482 l 1.82,0 c 0,-2.001998 -1.404002,-3.042 -3.718,-3.042 -2.274997,0 -3.5879995,1.066002 -3.5879995,2.912 0,1.481998 0.7410015,2.171 2.6649995,2.548 l 1.326,0.26 c 1.299999,0.26 1.781,0.533001 1.781,1.3 0,0.792999 -0.728001,1.209 -1.911,1.209 -1.325998,0 -2.132,-0.559001 -2.132,-1.573 l -1.8979995,0 c 0,2.027998 1.5080025,3.133 3.9259995,3.133 2.443998,0 3.887,-1.079002 3.887,-3.003"
       style="font-weight:bold;fill:#f5a901;font-family:TeX Gyre Heros;-inkscape-font-specification:TeX Gyre Heros Bold"
       id="path5840" />
    <path
       d="m 26.345045,55.268919 0,-6.279 -1.95,0 0,6.279 c 0,1.143999 -0.585001,1.69 -1.807,1.69 -1.221999,0 -1.807,-0.546001 -1.807,-1.69 l 0,-6.279 -1.95,0 0,6.279 c 0,2.235998 1.586002,3.354 3.757,3.354 2.170998,0 3.757,-1.118002 3.757,-3.354"
       style="font-weight:bold;fill:#f5a901;font-family:TeX Gyre Heros;-inkscape-font-specification:TeX Gyre Heros Bold"
       id="path5842" />
    <path
       d="m 35.830576,58.466919 0,-9.477 -1.95,0 0,6.448 -3.757,-6.448 -2.002,0 0,9.477 1.95,0 0,-6.552 3.809,6.552 1.95,0"
       style="font-weight:bold;fill:#f5a901;font-family:TeX Gyre Heros;-inkscape-font-specification:TeX Gyre Heros Bold"
       id="path5844" />
  </g>
  <g
     style="stroke-width:1.8809371;stroke-miterlimit:4;stroke-dasharray:none"
     id="g4316"
     transform="matrix(1.0294512,0,0,1.0294512,-64.4953,-820.26215)">
    <path
       inkscape:connector-curvature="0"
       style="fill:none;stroke:#ffffff;stroke-width:1.8809371;stroke-linecap:butt;stroke-linejoin:miter;stroke-miterlimit:4;stroke-opacity:1;stroke-dasharray:none"
       id="path3825-4-7-3-0-6"
       d="m 84.70367,831.96942 0,5.76876 0,0" />
    <g
       style="stroke-width:1.8809371;stroke-miterlimit:4;stroke-dasharray:none"
       id="g4303">
      <g
         style="stroke-width:1.8809371;stroke-miterlimit:4;stroke-dasharray:none"
         id="g4256"
         transform="matrix(0,-1,1,0,-735.01383,901.55763)">
        <g
           style="stroke-width:1.8809371;stroke-miterlimit:4;stroke-dasharray:none"
           id="g4247"
           transform="matrix(0.70710678,-0.70710678,0.70710678,0.70710678,-554.89433,299.02154)">
          <path
             inkscape:connector-curvature="0"
             style="fill:none;stroke:#ffffff;stroke-width:1.8809371;stroke-linecap:butt;stroke-linejoin:miter;stroke-miterlimit:4;stroke-opacity:1;stroke-dasharray:none"
             id="path3825-4-7-3-0-58-0"
             d="m 82.702999,800.07779 0,5.76876 0,0" />
          <g
             style="stroke-width:1.8809371;stroke-miterlimit:4;stroke-dasharray:none"
             id="g4222"
             transform="matrix(-1,0,0,-1,165.40599,1637.9916)">
            <path
               inkscape:connector-curvature="0"
               style="fill:none;stroke:#ffffff;stroke-width:1.8809371;stroke-linecap:butt;stroke-linejoin:miter;stroke-miterlimit:4;stroke-opacity:1;stroke-dasharray:none"
               id="path3825-4-7-3-0-58"
               d="m 82.702995,800.07779 0,5.76876 0,0" />
            <g
               style="stroke-width:1.8809371;stroke-miterlimit:4;stroke-dasharray:none"
               id="g4148"
               transform="matrix(0,1,-1,0,901.63941,736.23342)">
              <path
                 inkscape:connector-curvature="0"
                 style="color:#000000;fill:none;stroke:#ffffff;stroke-width:1.53894854;stroke-linecap:butt;stroke-linejoin:miter;stroke-miterlimit:4;stroke-opacity:1;stroke-dasharray:none;stroke-dashoffset:0;marker:none;visibility:visible;display:inline;overflow:visible;enable-background:accumulate"
                 id="path4035"
                 transform="matrix(1.2222222,0,0,1.2222222,98.102999,847.28622)"
                 d="m -3.2000008,-23.195288 a 9.3999996,9.3999996 0 1 1 -18.7999992,0 9.3999996,9.3999996 0 1 1 18.7999992,0 z" />
              <path
                 inkscape:connector-curvature="0"
                 style="fill:none;stroke:#ffffff;stroke-width:1.8809371;stroke-linecap:butt;stroke-linejoin:miter;stroke-miterlimit:4;stroke-opacity:1;stroke-dasharray:none"
                 id="path3825-4-7-3-0"
                 d="m 82.702999,800.07779 0,5.76876 0,0" />
              <path
                 inkscape:connector-curvature="0"
                 style="fill:none;stroke:#ffffff;stroke-width:1.8809371;stroke-linecap:butt;stroke-linejoin:miter;stroke-miterlimit:4;stroke-opacity:1;stroke-dasharray:none"
                 id="path3825-4-7-3-0-5"
                 d="m 82.702999,832.02628 0,5.76876 0,0" />
            </g>
          </g>
        </g>
        <path
           inkscape:connector-curvature="0"
           style="fill:none;stroke:#ffffff;stroke-width:1.8809371;stroke-linecap:butt;stroke-linejoin:miter;stroke-miterlimit:4;stroke-opacity:1;stroke-dasharray:none"
           id="path3825-4-7-3-0-58-0-8"
           d="m 82.703003,800.78834 0,5.76876 0,0" />
      </g>
      <path
         inkscape:connector-curvature="0"
         style="fill:none;stroke:#ffffff;stroke-width:1.8809371;stroke-linecap:butt;stroke-linejoin:miter;stroke-miterlimit:4;stroke-opacity:1;stroke-dasharray:none"
         id="path3825-4-7-3-0-6-4"
         d="m 97.86407,818.85463 5.76876,0 0,0" />
    </g>
    <path
       inkscape:connector-curvature="0"
       style="fill:none;stroke:#ffffff;stroke-width:1.8809371;stroke-linecap:butt;stroke-linejoin:miter;stroke-miterlimit:4;stroke-opacity:1;stroke-dasharray:none"
       id="path3825-4-7-3-0-6-1"
       d="m 84.70367,799.95991 0,5.76876 0,0" />
  </g>
</svg>
