<?xml version="1.0" encoding="UTF-8" standalone="no"?>
<!-- Created with Inkscape (http://www.inkscape.org/) -->

<svg
   xmlns:dc="http://purl.org/dc/elements/1.1/"
   xmlns:cc="http://creativecommons.org/ns#"
   xmlns:rdf="http://www.w3.org/1999/02/22-rdf-syntax-ns#"
   xmlns:svg="http://www.w3.org/2000/svg"
   xmlns="http://www.w3.org/2000/svg"
   xmlns:sodipodi="http://sodipodi.sourceforge.net/DTD/sodipodi-0.dtd"
   xmlns:inkscape="http://www.inkscape.org/namespaces/inkscape"
   version="1.1"
   width="45.405998"
   height="58.622917"
   id="svg12988"
   inkscape:version="0.48.4 r9939"
   sodipodi:docname="wind.svg">
  <sodipodi:namedview
     pagecolor="#ffffff"
     bordercolor="#666666"
     borderopacity="1"
     objecttolerance="10"
     gridtolerance="10"
     guidetolerance="10"
     inkscape:pageopacity="0"
     inkscape:pageshadow="2"
     inkscape:window-width="2556"
     inkscape:window-height="1384"
     id="namedview5798"
     showgrid="false"
     inkscape:zoom="8.0514588"
     inkscape:cx="19.068366"
     inkscape:cy="16.147657"
     inkscape:window-x="0"
     inkscape:window-y="54"
     inkscape:window-maximized="0"
     inkscape:current-layer="svg12988" />
  <defs
     id="defs12990" />
  <metadata
     id="metadata12993">
    <rdf:RDF>
      <cc:Work
         rdf:about="">
        <dc:format>image/svg+xml</dc:format>
        <dc:type
           rdf:resource="http://purl.org/dc/dcmitype/StillImage" />
        <dc:title />
      </cc:Work>
    </rdf:RDF>
  </metadata>
  <rect
     style="color:#000000;fill:#d82c3b;fill-opacity:1;fill-rule:nonzero;stroke:none;stroke-width:10;marker:none;visibility:visible;display:inline;overflow:visible;enable-background:accumulate"
     id="rect2985-5-6-6"
     y="0.15210147"
     x="-2.9296875e-06"
     height="45.405998"
     width="45.405998" />
  <g
     style="font-size:13px;font-style:normal;font-variant:normal;font-weight:normal;font-stretch:normal;line-height:125%;letter-spacing:0px;word-spacing:0px;fill:#d82c3b;fill-opacity:1;stroke:none;font-family:Alte Haas Grotesk;-inkscape-font-specification:Alte Haas Grotesk"
     id="text3002-4-3-4-87">
    <path
       d="m 17.676147,49.145925 -2.067,0 -1.417,7.111 -1.534,-7.111 -1.924,0 -1.4689997,7.098 -1.469,-7.098 -2.067,0 2.678,9.477 1.7549997,0 1.547,-7.397 1.586,7.397 1.755,0 2.626,-9.477"
       style="font-weight:bold;fill:#d82c3b;font-family:TeX Gyre Heros;-inkscape-font-specification:TeX Gyre Heros"
       id="path5812" />
    <path
       d="m 20.592819,58.622925 0,-9.477 -1.95,0 0,9.477 1.95,0"
       style="font-weight:bold;fill:#d82c3b;font-family:TeX Gyre Heros;-inkscape-font-specification:TeX Gyre Heros"
       id="path5814" />
    <path
       d="m 30.022288,58.622925 0,-9.477 -1.95,0 0,6.448 -3.757,-6.448 -2.002,0 0,9.477 1.95,0 0,-6.552 3.809,6.552 1.95,0"
       style="font-weight:bold;fill:#d82c3b;font-family:TeX Gyre Heros;-inkscape-font-specification:TeX Gyre Heros"
       id="path5816" />
    <path
       d="m 39.676819,53.877925 c 0,-1.455999 -0.403001,-2.743001 -1.157,-3.64 -0.636999,-0.766999 -1.534001,-1.092 -2.99,-1.092 l -3.705,0 0,9.477 3.705,0 c 1.442999,0 2.340001,-0.338001 2.99,-1.105 0.740999,-0.883999 1.157,-2.171002 1.157,-3.64 m -1.95,0.013 c 0,2.079998 -0.728001,3.107 -2.197,3.107 l -1.755,0 0,-6.227 1.755,0 c 1.468999,0 2.197,1.027002 2.197,3.12"
       style="font-weight:bold;fill:#d82c3b;font-family:TeX Gyre Heros;-inkscape-font-specification:TeX Gyre Heros"
       id="path5818" />
  </g>
  <g
     style="fill:#ffffff;fill-opacity:1"
     id="g16025"
     transform="matrix(0.39473197,0,0,0.39473197,2.9664,3.11848)">
    <g
       style="fill:#ffffff;fill-opacity:1"
       id="Layer_1">
      <g
         style="fill:#ffffff;fill-opacity:1"
         id="g16009">
        <path
           inkscape:connector-curvature="0"
           style="fill:#ffffff;fill-opacity:1"
           id="path16011"
           d="M 61.485,52.705 H 7.837 c -1.542,0 -2.793,1.324 -2.793,2.867 0,1.543 1.25,2.867 2.793,2.867 h 53.647 c 6.612,0 11.991,5.001 11.991,11.389 0,6.493 -5.207,11.385 -11.853,11.385 -1.542,0 -2.793,1.251 -2.793,2.794 0,1.542 1.251,2.793 2.793,2.793 9.616,0 17.439,-7.58 17.439,-17.046 10e-4,-9.468 -7.884,-17.049 -17.576,-17.049 z" />
        <path
           inkscape:connector-curvature="0"
           style="fill:#ffffff;fill-opacity:1"
           id="path16013"
           d="m 77.509,13.2 c -1.542,0 -2.793,1.251 -2.793,2.794 0,1.542 1.251,2.793 2.793,2.793 6.651,0 11.861,5.108 11.861,11.63 0,6.479 -5.403,11.749 -12.043,11.749 L 7.837,42.164 c -1.542,0 -2.793,1.251 -2.793,2.794 0,1.542 1.251,2.793 2.793,2.793 l 69.49,0.002 c 9.721,0 17.629,-7.777 17.629,-17.336 C 94.956,20.924 87.13,13.2 77.509,13.2 z" />
        <path
           inkscape:connector-curvature="0"
           style="fill:#ffffff;fill-opacity:1"
           id="path16015"
           d="M 7.837,37.48 H 48.13 c 6.442,0 11.682,-5.193 11.682,-11.578 0,-6.386 -5.24,-11.582 -11.682,-11.582 -1.543,0 -2.793,1.251 -2.793,2.793 0,1.543 1.25,2.794 2.793,2.794 3.361,0 6.096,2.689 6.096,5.995 0,3.304 -2.734,5.991 -6.096,5.991 H 7.837 c -1.542,0 -2.793,1.251 -2.793,2.794 0,1.543 1.251,2.793 2.793,2.793 z" />
      </g>
    </g>
    <g
       style="fill:#ffffff;fill-opacity:1"
       id="Layer_2" />
    <g
       style="fill:#ffffff;fill-opacity:1"
       id="Layer_3" />
  </g>
</svg>
