<?xml version="1.0" encoding="UTF-8" standalone="no"?>
<!-- Created with Inkscape (http://www.inkscape.org/) -->

<svg
   xmlns:dc="http://purl.org/dc/elements/1.1/"
   xmlns:cc="http://creativecommons.org/ns#"
   xmlns:rdf="http://www.w3.org/1999/02/22-rdf-syntax-ns#"
   xmlns:svg="http://www.w3.org/2000/svg"
   xmlns="http://www.w3.org/2000/svg"
   xmlns:sodipodi="http://sodipodi.sourceforge.net/DTD/sodipodi-0.dtd"
   xmlns:inkscape="http://www.inkscape.org/namespaces/inkscape"
   width="530.09003"
   height="545.35999"
   id="svg2"
   version="1.1"
   inkscape:version="0.48.4 r9939"
   sodipodi:docname="New document 1">
  <defs
     id="defs4" />
  <sodipodi:namedview
     id="base"
     pagecolor="#ffffff"
     bordercolor="#666666"
     borderopacity="1.0"
     inkscape:pageopacity="0.0"
     inkscape:pageshadow="2"
     inkscape:zoom="0.54448935"
     inkscape:cx="370.21066"
     inkscape:cy="526.18109"
     inkscape:document-units="px"
     inkscape:current-layer="layer1"
     showgrid="false"
     inkscape:window-width="1362"
     inkscape:window-height="712"
     inkscape:window-x="0"
     inkscape:window-y="54"
     inkscape:window-maximized="0" />
  <metadata
     id="metadata7">
    <rdf:RDF>
      <cc:Work
         rdf:about="">
        <dc:format>image/svg+xml</dc:format>
        <dc:type
           rdf:resource="http://purl.org/dc/dcmitype/StillImage" />
        <dc:title></dc:title>
      </cc:Work>
    </rdf:RDF>
  </metadata>
  <g
     inkscape:label="Layer 1"
     inkscape:groupmode="layer"
     id="layer1"
     transform="translate(0,-506.99447)">
    <path
       sodipodi:type="arc"
       style="fill:none;stroke:#dcdcdc;stroke-width:20;stroke-miterlimit:4;stroke-opacity:1;stroke-dasharray:none"
       id="path2985"
       sodipodi:cx="382.85715"
       sodipodi:cy="643.79077"
       sodipodi:rx="228.57143"
       sodipodi:ry="228.57143"
       d="m 611.42857,643.79077 a 228.57143,228.57143 0 1 1 -457.14285,0 228.57143,228.57143 0 1 1 457.14285,0 z"
       transform="translate(-118,136)" />
    <g
       style="font-size:49.47016907px;font-style:normal;font-variant:normal;font-weight:bold;font-stretch:normal;text-align:center;line-height:125%;letter-spacing:0px;word-spacing:0px;text-anchor:middle;fill:#dcdcdc;fill-opacity:1;stroke:none;font-family:Goudy Bookletter 1911;-inkscape-font-specification:Goudy Bookletter 1911"
       id="text3755">
      <path
         d="m 72.990185,716.12269 14.069316,0 c 1.305991,1.3e-4 2.612002,1.3e-4 3.918037,0 1.305987,1.3e-4 2.315178,0.29695 3.027574,0.89047 0.9498,0.71249 1.543441,1.72168 1.780926,3.02757 0.356156,1.18741 0.712341,2.43405 1.068556,3.73995 0.474883,1.66231 0.890432,3.38387 1.246648,5.16468 0.356154,1.66231 0.771703,3.32451 1.246648,4.98659 0.237425,0.59376 0.356153,1.12803 0.356186,1.60284 -3.3e-5,0.35629 0.05933,0.8312 0.178092,1.42474 0.474882,1.6623 0.831062,3.3245 1.068552,4.98659 0.35615,1.6623 0.7717,3.3245 1.24665,4.9866 0.47488,1.3061 0.83106,2.67148 1.06856,4.09613 0.23742,1.42483 0.53424,2.84957 0.89046,4.27422 1.18725,3.91812 2.13707,7.89552 2.84948,11.9322 0.83106,4.03684 1.78089,8.01424 2.84948,11.93221 0.5936,1.78098 1.00915,3.56191 1.24665,5.34277 0.35614,1.78099 0.77169,3.56191 1.24665,5.34278 0.47487,1.4248 0.83105,2.67144 1.06856,3.73995 0.23741,0.94987 0.83105,1.8997 1.78092,2.84948 0.23741,5e-5 0.35614,0.0594 0.35619,0.17809 0.11868,5e-5 0.29677,-0.0593 0.53428,-0.17809 0.71232,-0.23741 1.24659,-0.89042 1.60283,-1.95902 0.35613,-1.06851 0.65295,-1.95897 0.89046,-2.67139 0.47486,-1.54341 0.83105,-3.08688 1.06856,-4.63041 0.35613,-1.66214 0.83104,-3.26497 1.42474,-4.8085 0.11867,-0.59358 0.2374,-1.12785 0.35618,-1.60283 0.11868,-0.59358 0.23741,-1.18722 0.35619,-1.78093 0.59359,-1.5434 1.00913,-3.08687 1.24665,-4.6304 0.35613,-1.66213 0.77167,-3.26496 1.24665,-4.8085 0.11867,-0.47484 0.23739,-0.94976 0.35618,-1.42474 0.11867,-0.47484 0.2374,-1.00912 0.35619,-1.60284 0.35612,-1.06848 0.65294,-2.13703 0.89046,-3.20567 0.2374,-1.1872 0.53422,-2.31512 0.89046,-3.38375 0.2374,-0.94975 0.35613,-1.66212 0.35619,-2.13712 0.23739,-0.83101 0.47485,-1.66211 0.71237,-2.49329 0.23739,-0.83101 0.47485,-1.66211 0.71237,-2.4933 1.06849,-3.3243 1.95895,-6.64869 2.67139,-9.97318 0.7123,-3.44302 1.5434,-6.82678 2.49329,-10.15128 0.59358,-1.66209 1.00913,-3.32428 1.24665,-4.9866 0.35612,-1.66208 0.77167,-3.32427 1.24665,-4.98659 0.47484,-1.30589 0.89039,-2.49317 1.24665,-3.56185 0.35611,-1.18716 1.18721,-2.07762 2.49329,-2.67139 0.83103,-0.23733 1.78086,-0.35606 2.84949,-0.35619 1.06847,1.3e-4 2.13703,1.3e-4 3.20566,0 l 10.50747,0 c 1.30592,1.3e-4 2.4932,0.0595 3.56185,0.1781 1.18719,1.2e-4 2.19638,0.29694 3.02757,0.89046 0.83101,0.59377 1.36528,1.48423 1.60284,2.67139 0.23736,1.06868 0.53418,2.1966 0.89046,3.38376 0.59354,2.13723 1.12782,4.3337 1.60283,6.58943 0.47482,2.13722 1.00909,4.27433 1.60284,6.41133 0.47481,1.54357 0.83099,3.08704 1.06855,4.63041 0.35608,1.54357 0.77163,3.08703 1.24665,4.6304 0.35608,1.30611 0.6529,2.61212 0.89046,3.91804 0.23736,1.18738 0.59354,2.43403 1.06856,3.73995 1.3059,4.39303 2.43382,8.90471 3.38376,13.53503 0.94972,4.51176 2.07763,8.96407 3.38376,13.35695 0.59353,1.78099 1.00908,3.62128 1.24665,5.52087 0.35607,1.89971 0.83098,3.68063 1.42474,5.34278 0.35607,1.18733 0.65289,2.31525 0.89046,3.38376 0.23734,0.94987 0.65289,1.84034 1.24665,2.67139 0.11861,0.11877 0.41543,0.29686 0.89046,0.53428 l 0.71237,0 c 0.11861,-0.11869 0.23734,-0.17805 0.35619,-0.1781 0.11861,-0.11868 0.23733,-0.23741 0.35618,-0.35618 0.71225,-0.94978 1.18717,-1.95897 1.42474,-3.02758 0.23734,-1.18723 0.53416,-2.37451 0.89047,-3.56185 0.59352,-1.8996 1.00906,-3.79925 1.24664,-5.69896 0.35607,-1.8996 0.83098,-3.79925 1.42475,-5.69897 1.54334,-5.22398 2.78999,-10.44802 3.73994,-15.67215 1.06843,-5.22396 2.37444,-10.448 3.91804,-15.67214 0.59351,-1.89956 1.00906,-3.79921 1.24665,-5.69897 0.35605,-1.89955 0.83096,-3.7992 1.42474,-5.69896 0.23732,-0.59354 0.35605,-1.06845 0.35618,-1.42474 -1.3e-4,-0.47481 0.0592,-1.00908 0.17809,-1.60284 0.47478,-1.66208 0.89033,-3.32428 1.24665,-4.98659 0.35605,-1.66208 0.7716,-3.32428 1.24665,-4.98659 0.23732,-0.94971 0.47478,-2.01826 0.71237,-3.20567 0.35605,-1.18716 0.89032,-2.07762 1.60283,-2.67139 0.83096,-0.59351 1.84015,-0.9497 3.02758,-1.06855 1.18714,-0.1186 2.55251,-0.17797 4.09613,-0.1781 l 10.15128,0 c 1.18712,1.3e-4 2.31504,1.3e-4 3.38376,0 1.18712,1.3e-4 2.19631,0.17822 3.02757,0.53428 1.18712,0.59377 1.7214,1.60296 1.60283,3.02758 -0.11889,1.42486 -0.35635,2.73087 -0.71237,3.91803 -0.94999,2.73087 -1.78109,5.63972 -2.49329,8.72654 -0.59381,2.96832 -1.36554,5.87716 -2.31521,8.72654 -0.23761,0.71247 -0.41571,1.42484 -0.53427,2.13711 -0.11889,0.59374 -0.29698,1.24675 -0.53428,1.95902 -0.5938,2.01848 -1.18744,4.15559 -1.78093,6.41133 -0.47507,2.1372 -1.00935,4.21495 -1.60283,6.23324 -0.23761,0.59373 -0.41571,1.18737 -0.53428,1.78093 -1.5e-4,0.59373 -0.11888,1.18737 -0.35618,1.78093 -0.5938,1.54355 -1.06871,3.08701 -1.42475,4.6304 -0.23761,1.54355 -0.65315,3.08702 -1.24664,4.63041 -0.23761,0.59372 -0.35634,1.12799 -0.35619,1.60284 -1.5e-4,0.47498 -0.11888,1.00926 -0.35618,1.60283 -0.5938,1.66226 -1.06871,3.38382 -1.42474,5.16468 -0.23761,1.66226 -0.65316,3.32446 -1.24665,4.9866 -0.35634,1.18734 -0.71252,2.37462 -1.06856,3.56185 -0.2376,1.06861 -0.53442,2.19653 -0.89046,3.38376 -1.42489,4.51173 -2.67154,9.08276 -3.73995,13.71313 -0.94997,4.63044 -2.19661,9.14212 -3.73994,13.53504 -0.2376,0.83112 -0.41569,1.60285 -0.53428,2.3152 -0.11887,0.71239 -0.29696,1.48413 -0.53428,2.31521 -0.59378,2.0184 -1.18742,4.15551 -1.78092,6.41133 -0.47505,2.13712 -1.06869,4.21487 -1.78093,6.23324 -0.47505,1.54348 -0.8906,2.96821 -1.24665,4.27422 -0.35632,1.30602 -1.24678,2.25584 -2.67139,2.84948 -0.83123,0.23746 -1.84042,0.35619 -3.02757,0.35619 -1.18741,0 -2.31533,0 -3.38376,0 l -11.57602,0 c -1.30612,0 -2.55277,0 -3.73994,0 -1.1874,-0.11873 -2.19659,-0.47491 -3.02758,-1.06856 -0.71247,-0.59364 -1.18739,-1.30601 -1.42474,-2.13711 -0.23756,-0.94982 -0.53438,-1.89965 -0.89046,-2.84948 -0.71248,-2.37456 -1.30612,-4.68976 -1.78093,-6.94561 -0.47501,-2.37455 -1.00929,-4.74912 -1.60283,-7.1237 -0.47502,-1.42472 -0.89056,-2.84946 -1.24665,-4.27423 -0.23756,-1.54344 -0.59374,-3.08691 -1.06856,-4.63041 -0.35628,-1.06852 -0.6531,-2.13708 -0.89046,-3.20566 -0.11882,-1.18725 -0.35628,-2.31517 -0.71237,-3.38376 -0.94992,-2.84944 -1.72166,-5.75829 -2.3152,-8.72654 -0.59374,-3.08689 -1.30611,-6.11446 -2.13711,-9.08272 -0.59374,-1.66214 -1.06865,-3.26498 -1.42475,-4.8085 -0.23754,-1.54341 -0.59373,-3.14624 -1.06855,-4.8085 -0.59373,-2.01832 -1.06864,-3.97734 -1.42474,-5.87706 -0.35627,-1.89958 -0.83119,-3.79923 -1.42474,-5.69896 -0.35627,-0.94975 -0.65309,-1.84022 -0.89047,-2.67139 -0.11881,-0.83102 -0.41563,-1.60276 -0.89046,-2.31521 -0.23754,-0.23737 -0.59372,-0.47483 -1.06855,-0.71237 -0.35627,-0.11864 -0.59373,-0.11864 -0.71237,0 -0.83119,0.23754 -1.42483,0.94991 -1.78093,2.13712 -0.35627,1.18736 -0.65309,2.19655 -0.89046,3.02757 -0.83118,2.49337 -1.48419,5.10539 -1.95902,7.83607 -0.47499,2.61209 -1.06864,5.22412 -1.78093,7.83608 -1.54354,5.34283 -2.90892,10.6856 -4.09613,16.02833 -1.06863,5.34282 -2.37464,10.68559 -3.91804,16.02834 -0.59371,1.89968 -1.06862,3.79933 -1.42474,5.69896 -0.23752,1.78095 -0.65307,3.62124 -1.24664,5.52087 -0.59371,1.66221 -1.06863,3.32441 -1.42475,4.9866 -0.23752,1.6622 -0.5937,3.3244 -1.06855,4.98659 -0.35625,1.18729 -0.71243,2.25584 -1.06856,3.20567 -0.23752,0.94982 -0.83116,1.72156 -1.78092,2.3152 -0.83116,0.47491 -1.84035,0.71237 -3.02758,0.71237 -1.18734,0 -2.43398,0 -3.73994,0 l -15.49406,0 c -0.83113,-0.23746 -1.5435,-0.35619 -2.13711,-0.35619 -0.59368,-0.11872 -1.18732,-0.41554 -1.78093,-0.89046 -0.94986,-0.59364 -1.5435,-1.54346 -1.780922,-2.84948 -0.237489,-1.42474 -0.53431,-2.79011 -0.890463,-4.09613 -0.593673,-1.89964 -1.187315,-3.85866 -1.780926,-5.87706 -0.474943,-2.01836 -1.00922,-4.03674 -1.602833,-6.05514 -0.237485,-0.71235 -0.415578,-1.36536 -0.534278,-1.95902 -2.8e-5,-0.71235 -0.118756,-1.48408 -0.356185,-2.31521 -0.712398,-2.01835 -1.306039,-4.03673 -1.780926,-6.05515 -0.474939,-2.01835 -1.009217,-4.03673 -1.602834,-6.05514 -0.237481,-0.47488 -0.356209,-0.89043 -0.356185,-1.24665 -2.4e-5,-0.47488 -0.05939,-0.94979 -0.178093,-1.42474 -0.593665,-1.66216 -1.127942,-3.38372 -1.602833,-5.16469 -0.356207,-1.89961 -0.83112,-3.7399 -1.424741,-5.52087 -0.118749,-0.35613 -0.178113,-0.71232 -0.178093,-1.06856 -2e-5,-0.35613 -0.118748,-0.77168 -0.356185,-1.24664 -0.593661,-1.66215 -1.068575,-3.32434 -1.424741,-4.9866 -0.237475,-1.78086 -0.653024,-3.56179 -1.246648,-5.34277 -0.356202,-1.18723 -0.712387,-2.37451 -1.068556,-3.56186 -0.237473,-1.30594 -0.534293,-2.55259 -0.890463,-3.73994 -0.3562,-1.18721 -0.653021,-2.3745 -0.890463,-3.56185 -0.237471,-1.18721 -0.593656,-2.3745 -1.068555,-3.56186 -1.068568,-3.44304 -2.018395,-6.94552 -2.849482,-10.50746 -0.71238,-3.56176 -1.602842,-7.06425 -2.671389,-10.50746 -0.237465,-0.71228 -0.415557,-1.42464 -0.534278,-2.13711 -0.118736,-0.71227 -0.296828,-1.42464 -0.534278,-2.13712 -0.831105,-2.49319 -1.543474,-5.04585 -2.137111,-7.65798 -0.593646,-2.61191 -1.306016,-5.22393 -2.137111,-7.83607 -0.237459,-0.83098 -0.593644,-2.07763 -1.068556,-3.73995 -0.356186,-1.66207 -0.237458,-2.90872 0.356185,-3.73994 0.59364,-0.71225 1.424738,-1.18716 2.493297,-1.42474 0.237452,-0.1186 0.474909,-0.1186 0.71237,0 0.237452,1.2e-4 0.474908,-0.0592 0.712371,-0.1781"
         style="font-size:178.09260559px;letter-spacing:8.01416874px;fill:#dcdcdc;font-family:Alte Haas Grotesk;-inkscape-font-specification:Alte Haas Grotesk Bold"
         id="path3760" />
      <path
         d="m 250.43443,716.12269 71.23704,0 18.16544,0 c 1.54338,1.3e-4 3.02748,0.0595 4.45232,0.1781 1.54337,1.2e-4 2.79001,0.29694 3.73994,0.89046 0.35608,0.23758 0.59354,0.65313 0.71237,1.24665 0.23736,0.47504 0.41545,1.00931 0.53428,1.60283 l 0,0.89046 c 0.11862,0.47504 0.17799,1.00932 0.17809,1.60284 -1e-4,0.59376 -1e-4,1.1874 0,1.78092 l 0,6.94562 c -1e-4,0.83121 -1e-4,1.6623 0,2.49329 0.11863,0.71248 0.0593,1.42485 -0.17809,2.13711 -0.59375,2.01849 -1.78103,3.08705 -3.56185,3.20567 -1.78103,0.11883 -3.91814,0.1782 -6.41133,0.17809 l -18.16545,0 c -2.37464,1.1e-4 -4.45239,0.11884 -6.23324,0.35619 -1.66227,0.11883 -2.79019,1.18738 -3.38376,3.20567 -0.1188,0.59374 -0.1188,1.12801 0,1.60283 0.11866,0.47501 0.0593,1.00929 -0.17809,1.60283 -0.1188,0.71247 -0.17816,1.54357 -0.1781,2.4933 0.11867,0.83119 0.17803,1.60293 0.1781,2.3152 l 0,15.85024 0,51.29067 0,16.74071 c -7e-5,1.89966 -0.1188,3.56186 -0.35619,4.98659 -0.11879,1.30602 -0.83116,2.25584 -2.13711,2.84948 -0.83116,0.23746 -1.78099,0.35619 -2.84948,0.35619 -1.06862,0 -2.07781,0 -3.02758,0 l -12.11029,0 c -1.30606,0 -2.55271,-0.0594 -3.73995,-0.17809 -1.0686,-0.11873 -1.89969,-0.53428 -2.49329,-1.24665 -0.59369,-0.94983 -0.89051,-2.13711 -0.89047,-3.56185 -4e-5,-1.54347 -4e-5,-3.08693 0,-4.63041 l 0,-17.80926 0,-49.50975 0,-15.13787 c -4e-5,-0.831 -4e-5,-1.6621 0,-2.49329 0.11869,-0.94974 0.0593,-1.78083 -0.17809,-2.4933 -0.11877,-0.59354 -0.11877,-1.12782 0,-1.60283 0.11869,-0.47482 0.0593,-0.94973 -0.17809,-1.42474 -0.59368,-2.01829 -1.84033,-3.08684 -3.73995,-3.20567 -1.78096,-0.23735 -3.91807,-0.35608 -6.41133,-0.35619 l -16.56261,0 c -1.30603,1.1e-4 -2.79013,0.0595 -4.45232,0.1781 -1.54347,1e-4 -2.79012,-0.11863 -3.73994,-0.35619 -0.94983,-0.35608 -1.6622,-0.89036 -2.13711,-1.60283 -0.35619,-0.59354 -0.59365,-1.36527 -0.71237,-2.31521 -1e-5,-0.94972 -1e-5,-1.89954 0,-2.84948 l 0,-8.72654 c -1e-5,-1.54334 0.0594,-2.90872 0.17809,-4.09613 0.23745,-1.18716 0.83109,-2.07762 1.78092,-2.67139 0.35618,-0.23733 1.00919,-0.47478 1.95902,-0.71237 0.59364,1.3e-4 0.89046,1.3e-4 0.89047,0"
         style="font-size:178.09260559px;letter-spacing:8.01416874px;fill:#dcdcdc;font-family:Alte Haas Grotesk;-inkscape-font-specification:Alte Haas Grotesk Bold"
         id="path3762" />
      <path
         d="m 377.1167,716.30079 62.33241,0 14.4255,0 c 1.30592,1.2e-4 2.55256,0.0595 3.73994,0.17809 1.18719,0.11885 2.07765,0.5344 2.67139,1.24665 0.47482,0.59376 0.77164,1.42486 0.89047,2.49329 0.23735,0.94995 0.35608,2.07787 0.35618,3.38376 -1e-4,1.18741 -0.0595,2.43405 -0.17809,3.73995 -10e-5,1.1874 -10e-5,2.31532 0,3.38376 -10e-5,0.83121 -10e-5,1.66231 0,2.49329 0.11863,0.83121 0.11863,1.60295 0,2.31521 -0.23756,0.59375 -0.47502,1.18739 -0.71237,1.78092 -0.11883,0.47502 -0.41565,0.89057 -0.89046,1.24665 -0.94993,0.71248 -2.61213,1.06866 -4.9866,1.06856 -2.25593,-0.11863 -4.21495,-0.17799 -5.87705,-0.17809 l -34.37188,0 c -1.8997,1e-4 -4.21491,1e-4 -6.94561,0 -2.61207,-0.11863 -4.51172,0.17819 -5.69896,0.89046 -0.71241,0.47501 -1.30605,1.36548 -1.78093,2.67139 -0.23749,0.8312 -0.35622,1.89975 -0.35618,3.20566 0.11869,1.30611 0.17805,2.43403 0.17809,3.38376 l 0,8.54845 c -4e-5,0.59373 -0.0594,1.3061 -0.17809,2.13711 -4e-5,0.83118 0.0593,1.54355 0.17809,2.13711 l 0,1.95902 c 0.23742,1.06863 0.47487,1.9591 0.71237,2.67139 0.35614,0.71245 1.00915,1.24672 1.95902,1.60283 0.5936,0.23753 1.30597,0.41563 2.13711,0.53428 0.83105,7e-5 1.72152,7e-5 2.67139,0 l 6.76752,0 24.75487,0 c 0.94975,7e-5 2.0183,7e-5 3.20567,0 1.30593,-0.11865 2.55257,-0.11865 3.73994,0 1.30593,7e-5 2.43385,0.0594 3.38376,0.17809 1.06847,0.11881 1.8402,0.35626 2.31521,0.71237 1.18719,0.83117 1.72146,2.43401 1.60283,4.8085 -9e-5,2.25591 -9e-5,4.33365 0,6.23325 -9e-5,0.94988 -9e-5,2.01844 0,3.20566 0.11863,1.06862 0.0593,2.07781 -0.17809,3.02758 -0.47501,1.30606 -1.12802,2.19653 -1.95902,2.67139 -0.83119,0.47496 -2.43402,0.71242 -4.8085,0.71237 -2.37465,-0.11868 -4.33367,-0.17804 -5.87706,-0.1781 l -29.20719,0 c -2.25588,6e-5 -4.45236,0.0594 -6.58942,0.1781 -2.13716,0.11878 -3.50253,0.94987 -4.09613,2.49329 -0.2375,0.35624 -0.35623,0.77179 -0.35619,1.24665 -4e-5,0.35623 -0.0594,0.71242 -0.17809,1.06856 l 0,1.78092 0,2.67139 0,4.8085 0,25.11106 c -4e-5,1.66221 -4e-5,3.73995 0,6.23324 0.11869,2.37457 -0.11877,4.09613 -0.71237,5.16469 -0.35622,0.59364 -0.83114,1.00919 -1.42474,1.24664 -0.59368,0.11873 -1.18732,0.29683 -1.78093,0.53428 -0.83113,0.23746 -1.72159,0.29682 -2.67139,0.17809 -0.94986,-0.11872 -1.89968,-0.17809 -2.84948,-0.17809 l -10.32937,0 c -1.30603,0 -2.55268,0 -3.73994,0 -1.06858,-0.11873 -1.95904,-0.47491 -2.67139,-1.06855 -0.83112,-0.59364 -1.30603,-1.48411 -1.42474,-2.67139 -2e-5,-1.30601 -2e-5,-2.61202 0,-3.91804 l 0,-15.31596 0,-65.1819 0,-26.00152 c -2e-5,-1.66208 -0.0594,-3.6211 -0.1781,-5.87705 -1e-5,-2.25572 0.29681,-3.85855 0.89047,-4.8085 0.4749,-0.83098 1.36536,-1.42462 2.67139,-1.78093 0.23744,-0.1186 0.47489,-0.1186 0.71237,0 0.23744,1.3e-4 0.47489,-0.0592 0.71237,-0.17809"
         style="font-size:178.09260559px;letter-spacing:8.01416874px;fill:#dcdcdc;font-family:Alte Haas Grotesk;-inkscape-font-specification:Alte Haas Grotesk Bold"
         id="path3764" />
    </g>
  </g>
</svg>
