<?xml version="1.0" encoding="UTF-8" standalone="no"?>
<!-- Created with Inkscape (http://www.inkscape.org/) -->

<svg
   xmlns:dc="http://purl.org/dc/elements/1.1/"
   xmlns:cc="http://creativecommons.org/ns#"
   xmlns:rdf="http://www.w3.org/1999/02/22-rdf-syntax-ns#"
   xmlns:svg="http://www.w3.org/2000/svg"
   xmlns="http://www.w3.org/2000/svg"
   version="1.1"
   width="981.44031"
   height="453.73831"
   id="svg5602">
  <defs
     id="defs5604" />
  <metadata
     id="metadata5607">
    <rdf:RDF>
      <cc:Work
         rdf:about="">
        <dc:format>image/svg+xml</dc:format>
        <dc:type
           rdf:resource="http://purl.org/dc/dcmitype/StillImage" />
        <dc:title></dc:title>
      </cc:Work>
    </rdf:RDF>
  </metadata>
  <g
     transform="translate(-40.017573,-462.15897)"
     id="layer1">
    <g
       id="g5813">
      <path
         d="m 324.25898,407.88486 c 0,0.0223 -0.0319,0.0447 -0.0955,0.067"
         transform="matrix(0.8012211,0,0,0.8012211,52.744991,364.92237)"
         id="path3099-4"
         style="opacity:0.5;fill:#ffffff;fill-opacity:0.53142856;stroke:#000000;stroke-width:1;stroke-miterlimit:4;stroke-opacity:1;stroke-dashoffset:0" />
      <path
         d="m 417.95029,156.87068 c 141.1682,26.69888 164.81646,75.62383 52.81985,109.27693 -111.99661,33.6531 -317.22724,39.29061 -458.395446,12.59173 -141.168204,-26.69888 -164.816454,-75.62383 -52.81985,-109.27693 12.831054,-3.85552 27.168133,-7.41203 42.8183844,-10.62168"
         transform="matrix(0.63849141,-0.63849141,0.63849141,0.63849141,-9.5509193,687.33213)"
         id="path3818"
         style="fill:none;stroke:#505050;stroke-width:5.89400005;stroke-linecap:round;stroke-miterlimit:4;stroke-opacity:1;stroke-dashoffset:0" />
      <path
         d="m 544.47221,418.99655 c 0,135.56772 -109.89934,245.46707 -245.46705,245.46707 -135.56771,0 -245.467059,-109.89935 -245.467059,-245.46707 0,-135.56772 109.899349,-245.46707 245.467059,-245.46707 135.56771,0 245.46705,109.89935 245.46705,245.46707 z"
         transform="matrix(0.82237252,0,0,0.78911418,29.427362,368.63788)"
         id="path3097-5"
         style="fill:#000000;fill-opacity:0;stroke:#841919;stroke-width:8.9671793;stroke-miterlimit:4;stroke-opacity:1;stroke-dashoffset:0" />
      <path
         d="m 438.58102,593.55988 5.73759,-8.66192"
         id="path4283"
         style="fill:#001919;fill-opacity:0.6745098;stroke:#505050;stroke-width:5.28503275;stroke-linecap:butt;stroke-linejoin:miter;stroke-miterlimit:4;stroke-opacity:1;stroke-dasharray:none" />
      <path
         d="m 163.33954,866.04379 9.15483,-6.05984"
         id="path4283-8"
         style="fill:#001919;fill-opacity:0.6745098;stroke:#505050;stroke-width:5.28503275;stroke-linecap:butt;stroke-linejoin:miter;stroke-miterlimit:4;stroke-opacity:1;stroke-dasharray:none" />
      <path
         d="m 344.46202,484.48529 c 0,15.06308 -12.21104,27.27412 -27.27412,27.27412 -15.06308,0 -27.27412,-12.21104 -27.27412,-27.27412 0,-15.06308 12.21104,-27.27412 27.27412,-27.27412 15.06308,0 27.27412,12.21104 27.27412,27.27412 z"
         transform="matrix(0.81281267,0,0,0.80301602,80.497557,326.22813)"
         id="path3816"
         style="fill:#9a605e;fill-opacity:1;stroke:#841919;stroke-width:5.89400005;stroke-linecap:round;stroke-miterlimit:4;stroke-opacity:1;stroke-dashoffset:0" />
      <g
         transform="matrix(1.4863762,0,0,1.3013661,-358.01978,-513.67059)"
         id="text3851"
         style="font-size:58.9811821px;font-style:normal;font-variant:normal;font-weight:bold;font-stretch:normal;text-align:start;line-height:125%;letter-spacing:0px;word-spacing:0px;writing-mode:lr-tb;text-anchor:start;fill:#aa5050;fill-opacity:0.99215686;stroke:none;font-family:Nimbus Sans L;-inkscape-font-specification:Nimbus Sans L Bold">
        <path
           d="m 863.49364,938.09485 0,28.8418 8.25736,0 0,-41.81766 -5.48525,0 c -1.29758,4.95441 -5.60322,7.49061 -12.79891,7.49061 l 0,5.48525 10.0268,0"
           id="path5761"
           style="line-height:125%;fill:#aa5050;font-family:Nimbus Sans L;-inkscape-font-specification:Nimbus Sans L Bold" />
      </g>
      <g
         transform="matrix(1.4605446,0,0,1.3243824,-358.01978,-513.67059)"
         id="text3851-9"
         style="font-size:54.79304504px;font-style:normal;font-variant:normal;font-weight:bold;font-stretch:normal;text-align:start;line-height:125%;letter-spacing:0px;word-spacing:0px;writing-mode:lr-tb;text-anchor:start;fill:#aa5050;fill-opacity:0.99215686;stroke:none;font-family:Nimbus Sans L;-inkscape-font-specification:Nimbus Sans L Bold">
        <path
           d="m 911.45756,939.72361 c 0.16438,5.97244 5.20535,10.35589 11.89009,10.35589 4.98617,0 8.76689,-2.08214 11.0682,-6.02724 2.02734,-3.45195 3.23279,-9.31482 3.23279,-15.56122 0,-5.64368 -0.93149,-10.13672 -2.68486,-13.04075 -2.46569,-4.16426 -6.30121,-6.35599 -10.95861,-6.35599 -7.7806,0 -13.09554,5.5889 -13.09554,13.69826 0,7.99978 4.71221,13.47909 11.61613,13.47909 1.97255,0 3.83551,-0.54793 5.04096,-1.42462 0.71231,-0.49314 1.15065,-0.98627 2.41089,-2.41089 0,7.39705 -2.08214,11.06819 -6.41078,11.06819 -2.68486,0 -4.54783,-1.47941 -4.71221,-3.78072 l -7.39706,0 m 12.32844,-24.3829 c 3.72592,0 6.02723,2.90403 6.02723,7.45185 0,4.27386 -2.41089,7.1231 -5.91765,7.1231 -3.50675,0 -5.69847,-2.79445 -5.69847,-7.23268 0,-4.49303 2.19172,-7.34227 5.58889,-7.34227"
           id="path5764"
           style="line-height:125%;fill:#aa5050;font-family:Nimbus Sans L;-inkscape-font-specification:Nimbus Sans L Bold" />
      </g>
      <path
         d="m 172.53442,743.15929 c -7.68615,-0.0242 -14.13958,-2.62246 -19.36033,-7.79488 -5.19659,-5.19658 -7.79489,-11.69835 -7.79489,-19.50534 0.0242,-7.63775 2.63454,-14.05494 7.83115,-19.25156 5.19657,-5.22072 11.63792,-7.8311 19.32407,-7.83115 7.75858,5e-5 14.41747,2.41708 19.97666,7.25106 l -7.25106,7.9399 c -3.69808,-2.90037 -7.93995,-4.35058 -12.7256,-4.35062 -4.88241,0.0242 -8.82215,1.54693 -11.81922,4.56816 -2.97296,3.02131 -4.45942,6.88854 -4.4594,11.60169 0.0242,5.0516 1.53478,9.06384 4.5319,12.03676 2.99708,2.97294 6.93683,4.45941 11.81922,4.4594 4.88234,1e-5 9.10004,-1.43811 12.6531,-4.31438 l 7.25106,7.93991 c -5.53501,4.83404 -12.19391,7.25105 -19.97666,7.25105"
         id="path5767"
         style="font-size:53.38720703px;font-style:normal;font-variant:normal;font-weight:bold;font-stretch:normal;line-height:125%;letter-spacing:0px;word-spacing:0px;fill:#3c3c3c;fill-opacity:1;stroke:none;font-family:Nevis;-inkscape-font-specification:Nevis Bold" />
      <path
         d="m 254.00005,743.15929 c -7.73448,0 -14.20001,-2.59829 -19.39657,-7.79488 -5.19661,-5.22075 -7.7949,-11.68626 -7.7949,-19.39658 0,-7.73443 2.59829,-14.19994 7.7949,-19.39658 5.19656,-5.19653 11.66209,-7.79484 19.39657,-7.79489 7.73442,5e-5 14.19995,2.59836 19.39659,7.79489 5.19653,5.19664 7.79482,11.66215 7.79488,19.39658 -6e-5,7.73447 -2.59835,14.2 -7.79488,19.39658 -5.19664,5.19659 -11.66217,7.79488 -19.39659,7.79488 m 0.0363,-10.15147 c 4.80984,10e-6 8.72539,-1.63148 11.74671,-4.89447 3.02123,-3.26296 4.53187,-7.31146 4.53192,-12.14552 -5e-5,-4.834 -1.51069,-8.8825 -4.53192,-12.14553 -3.02132,-3.26292 -6.96104,-4.89441 -11.81923,-4.89445 -4.80989,4e-5 -8.72545,1.63153 -11.74671,4.89445 -3.02128,3.26303 -4.53193,7.31153 -4.53191,12.14553 -2e-5,4.83406 1.51063,8.88256 4.53191,12.14552 3.02126,3.26299 6.96099,4.89448 11.81923,4.89447"
         id="path5769"
         style="font-size:53.38720703px;font-style:normal;font-variant:normal;font-weight:bold;font-stretch:normal;line-height:125%;letter-spacing:0px;word-spacing:0px;fill:#3c3c3c;fill-opacity:1;stroke:none;font-family:Nevis;-inkscape-font-specification:Nevis Bold" />
      <path
         d="m 339.12747,743.15929 c -7.73448,0 -14.20001,-2.59829 -19.39657,-7.79488 -5.19661,-5.22075 -7.7949,-11.68626 -7.7949,-19.39658 0,-7.73443 2.59829,-14.19994 7.7949,-19.39658 5.19656,-5.19653 11.66209,-7.79484 19.39657,-7.79489 7.73442,5e-5 14.19994,2.59836 19.39659,7.79489 5.19653,5.19664 7.79482,11.66215 7.79488,19.39658 -6e-5,7.73447 -2.59835,14.2 -7.79488,19.39658 -5.19665,5.19659 -11.66217,7.79488 -19.39659,7.79488 m 0.0363,-10.15147 c 4.80982,10e-6 8.72539,-1.63148 11.74671,-4.89447 3.02123,-3.26296 4.53187,-7.31146 4.53192,-12.14552 -5e-5,-4.834 -1.51069,-8.8825 -4.53192,-12.14553 -3.02132,-3.26292 -6.96104,-4.89441 -11.81923,-4.89445 -4.80989,4e-5 -8.72545,1.63153 -11.74671,4.89445 -3.02128,3.26303 -4.53193,7.31153 -4.53191,12.14553 -2e-5,4.83406 1.51063,8.88256 4.53191,12.14552 3.02126,3.26299 6.96099,4.89448 11.81923,4.89447"
         id="path5771"
         style="font-size:53.38720703px;font-style:normal;font-variant:normal;font-weight:bold;font-stretch:normal;line-height:125%;letter-spacing:0px;word-spacing:0px;fill:#3c3c3c;fill-opacity:1;stroke:none;font-family:Nevis;-inkscape-font-specification:Nevis Bold" />
      <path
         d="m 399.92759,688.77636 0,54.38293 39.88082,0 0,-10.15147 -29.00422,0 0,-44.23146 -10.8766,0"
         id="path5773"
         style="font-size:53.38720703px;font-style:normal;font-variant:normal;font-weight:bold;font-stretch:normal;line-height:125%;letter-spacing:0px;word-spacing:0px;fill:#3c3c3c;fill-opacity:1;stroke:none;font-family:Nevis;-inkscape-font-specification:Nevis Bold" />
      <path
         d="m 542.51965,688.77636 c 5.05154,5e-5 8.96711,0.60431 11.74671,1.81276 2.77954,1.20857 5.37783,3.02133 7.79489,5.4383 l -7.25106,7.25105 c -2.41704,-2.90037 -5.80087,-4.35058 -10.15148,-4.35062 -4.35065,4e-5 -7.13022,1.02727 -8.33871,3.08169 -1.20854,2.05451 -1.20854,3.80685 0,5.25702 1.20849,1.45024 3.98806,2.5379 8.33871,3.26298 4.5923,0.48343 8.76167,1.99407 12.50807,4.5319 3.74634,2.5379 5.61954,6.58641 5.61958,12.14552 -4e-5,4.35066 -2.00617,8.09704 -6.01839,11.23915 -3.98811,3.14212 -8.64086,4.71318 -13.95828,4.71318 -5.05159,0 -9.26929,-0.7251 -12.6531,-2.17532 -3.38382,-1.4502 -6.28425,-3.38381 -8.70126,-5.80083 l 7.25105,-7.25107 c 2.41701,2.90044 6.52594,4.59235 12.3268,5.07575 4.83402,10e-6 7.8432,-1.02722 9.02757,-3.08171 1.20848,-2.05444 1.20848,-4.10892 0,-6.16339 -1.18437,-2.05444 -4.19355,-3.32338 -9.02757,-3.80681 -4.35064,-0.48338 -8.33873,-1.81274 -11.96425,-3.98808 -3.62553,-2.17528 -5.4383,-5.92166 -5.43828,-11.23914 -2e-5,-4.80983 2.05446,-8.66497 6.16339,-11.56543 4.13309,-2.92455 8.37496,-4.38685 12.72561,-4.3869"
         id="path5775"
         style="font-size:53.38720703px;font-style:normal;font-variant:normal;font-weight:bold;font-stretch:normal;line-height:125%;letter-spacing:0px;word-spacing:0px;fill:#505050;fill-opacity:1;stroke:none;font-family:Nevis;-inkscape-font-specification:Nevis Bold" />
      <path
         d="m 595.01732,688.77636 0,10.15149 18.12763,0 0,44.23144 10.87659,0 0,-44.23144 18.12765,0 0,-10.15149 -47.13187,0"
         id="path5777"
         style="font-size:53.38720703px;font-style:normal;font-variant:normal;font-weight:bold;font-stretch:normal;line-height:125%;letter-spacing:-1.90999997px;word-spacing:0px;fill:#505050;fill-opacity:1;stroke:none;font-family:Nevis;-inkscape-font-specification:Nevis Bold" />
      <path
         d="m 667.47206,743.15929 21.75318,-54.38293 10.87659,0 21.71691,54.34668 -11.56544,0.0363 -3.26297,-8.33871 -24.6536,0 -3.26298,8.33871 -11.60169,0 m 27.48152,-39.88081 -8.26621,20.66552 16.31488,0 -8.04867,-20.66552"
         id="path5779"
         style="font-size:53.38720703px;font-style:normal;font-variant:normal;font-weight:bold;font-stretch:normal;line-height:125%;letter-spacing:-1.90999997px;word-spacing:0px;fill:#505050;fill-opacity:1;stroke:none;font-family:Nevis;-inkscape-font-specification:Nevis Bold" />
      <path
         d="m 763.53879,710.52954 15.22722,0 c 4.37477,-0.0725 6.62259,-2.06652 6.74348,-5.98213 -0.12086,-3.57715 -2.33245,-5.43824 -6.6347,-5.58332 l -15.336,0 0,11.56545 m 21.86194,8.9188 13.55948,23.71095 -12.47182,0 -13.01564,-22.47827 -9.93396,0 0,22.47827 -10.87658,0 0,-54.38293 23.71096,0 c 12.68931,5e-5 19.03398,5.22082 19.03402,15.66229 -4e-5,7.85534 -3.33552,12.85857 -10.00646,15.00969"
         id="path5781"
         style="font-size:53.38720703px;font-style:normal;font-variant:normal;font-weight:bold;font-stretch:normal;line-height:125%;letter-spacing:0px;word-spacing:0px;fill:#505050;fill-opacity:1;stroke:none;font-family:Nevis;-inkscape-font-specification:Nevis Bold" />
      <path
         d="m 847.79607,688.77636 c 5.05155,5e-5 8.96712,0.60431 11.74672,1.81276 2.77954,1.20857 5.37783,3.02133 7.79489,5.4383 l -7.25106,7.25105 c -2.41705,-2.90037 -5.80088,-4.35058 -10.15147,-4.35062 -4.35067,4e-5 -7.13024,1.02727 -8.33873,3.08169 -1.20852,2.05451 -1.20852,3.80685 0,5.25702 1.20849,1.45024 3.98806,2.5379 8.33873,3.26298 4.5923,0.48343 8.76165,1.99407 12.50807,4.5319 3.74634,2.5379 5.61952,6.58641 5.61956,12.14552 -4e-5,4.35066 -2.00617,8.09704 -6.01837,11.23915 -3.98812,3.14212 -8.64088,4.71318 -13.95829,4.71318 -5.05159,0 -9.26928,-0.7251 -12.65309,-2.17532 -3.38384,-1.4502 -6.28425,-3.38381 -8.70128,-5.80083 l 7.25107,-7.25107 c 2.41699,2.90044 6.52593,4.59235 12.32679,5.07575 4.83401,10e-6 7.8432,-1.02722 9.02756,-3.08171 1.20848,-2.05444 1.20848,-4.10892 0,-6.16339 -1.18436,-2.05444 -4.19355,-3.32338 -9.02756,-3.80681 -4.35065,-0.48338 -8.33872,-1.81274 -11.96424,-3.98808 -3.62553,-2.17528 -5.4383,-5.92166 -5.4383,-11.23914 0,-4.80983 2.05446,-8.66497 6.16341,-11.56543 4.13309,-2.92455 8.37495,-4.38685 12.72559,-4.3869"
         id="path5783"
         style="font-size:53.38720703px;font-style:normal;font-variant:normal;font-weight:bold;font-stretch:normal;line-height:125%;letter-spacing:0px;word-spacing:0px;fill:#505050;fill-opacity:1;stroke:none;font-family:Nevis;-inkscape-font-specification:Nevis Bold" />
    </g>
  </g>
</svg>
