<?xml version="1.0" encoding="utf-8"?>
<!-- Generator: Adobe Illustrator 18.1.1, SVG Export Plug-In . SVG Version: 6.00 Build 0)  -->
<!DOCTYPE svg PUBLIC "-//W3C//DTD SVG 1.1//EN" "http://www.w3.org/Graphics/SVG/1.1/DTD/svg11.dtd">
<svg version="1.1" id="Lager_1" xmlns="http://www.w3.org/2000/svg" xmlns:xlink="http://www.w3.org/1999/xlink" x="0px" y="0px"
	 viewBox="0 0 272.2 137.4" enable-background="new 0 0 272.2 137.4" xml:space="preserve">
<g>
	<path fill="#FFFFFF" d="M217.8,75.3c0.5,0.3,1.3,0.8,2.8,0.8c1.8,0,3-0.8,3-2.3c0-1.2-0.7-1.8-2.3-2.5c-1.5-0.6-1.7-0.7-1.7-1.1
		c0-0.6,0.6-0.7,1.2-0.7c1.2,0,1.9,0.5,2.3,0.8v-1.6c-0.4-0.2-1.1-0.6-2.4-0.6c-1.3,0-3,0.5-3,2.3c0,1.5,1.1,2,2.6,2.5
		c1.1,0.4,1.4,0.6,1.4,1.1c0,0.6-0.7,0.8-1.3,0.8c-1,0-1.8-0.3-2.7-1V75.3z M211.8,71.1c0.2-1.3,0.8-1.8,1.7-1.8
		c1.1,0,1.5,0.9,1.6,1.8H211.8z M216.8,72.4v-0.7c0-2.5-1.5-3.8-3.3-3.8c-2,0-3.6,1.4-3.6,4c0,1.6,0.6,4.1,4,4.1
		c1.4,0,2.2-0.4,2.6-0.7v-1.6c-0.7,0.5-1.4,0.8-2.5,0.8c-1.3,0-2.1-0.7-2.2-2.2H216.8z M208.6,75.9v-5.5c0-1.3-0.6-2.4-2.1-2.4
		c-1.1,0-2,0.6-2.6,1v-0.9h-1.8v7.7h1.8v-5.6c0.4-0.3,1.2-0.8,2-0.8c0.8,0,0.9,0.6,0.9,1.1v5.3H208.6z M200.2,68.1h-1.8v7.7h1.8
		V68.1z M200.2,65.1h-1.8V67h1.8V65.1z M196.5,64.9h-1.8v10.9h1.8V64.9z M190.7,72.1c0-1.5,1.5-2.3,2.4-2.3c0.1,0,0.4,0,0.5,0V68
		c-0.1,0-0.2,0-0.4,0c-1.1,0-1.9,0.8-2.5,1.6v-1.4h-1.8v7.7h1.8V72.1z M187,68.1h-1.8v7.7h1.8V68.1z M187,65.1h-1.8V67h1.8V65.1z
		 M177.8,72.1l1.5-4.8l1.5,4.8H177.8z M184.1,75.9l-3.7-10.9h-2.1l-3.7,10.9h2l0.7-2.3h4l0.7,2.3H184.1z M170.3,75.9v-5.5
		c0-1.3-0.6-2.4-2.1-2.4c-1.1,0-2,0.6-2.6,1v-0.9h-1.8v7.7h1.8v-5.6c0.4-0.3,1.2-0.8,2-0.8s0.9,0.6,0.9,1.1v5.3H170.3z M159.7,72.1
		c0.3-0.1,0.4-0.1,0.5-0.2v1.9c-0.7,0.8-1.4,0.9-1.7,0.9c-0.3,0-1-0.2-1-0.9c0-0.6,0.3-0.9,1-1.2L159.7,72.1z M162,75.9v-5.2
		c0-1.5-0.5-2.7-2.9-2.7c-1.6,0-2.6,0.5-3.1,0.8v1.6c0.4-0.3,1.5-1,2.8-1c0.7,0,1.3,0.2,1.3,0.8v0.3c0,0.2,0,0.2-0.3,0.3l-2.2,0.7
		c-1.7,0.6-2,1.5-2,2.3c0,1.2,1,2.1,2.4,2.1c1.2,0,1.9-0.6,2.3-1l0.2,0.8H162z M154.2,68.1h-1.8v7.7h1.8V68.1z M154.2,65.1h-1.8V67
		h1.8V65.1z M151.3,68.1h-1.8l-1.6,5.5l-1.6-5.5h-1.9l2.4,7.7h2.1L151.3,68.1z M141.3,72.1c0.3-0.1,0.4-0.1,0.5-0.2v1.9
		c-0.7,0.8-1.4,0.9-1.7,0.9c-0.3,0-1-0.2-1-0.9c0-0.6,0.3-0.9,1-1.2L141.3,72.1z M143.6,75.9v-5.2c0-1.5-0.5-2.7-2.9-2.7
		c-1.6,0-2.6,0.5-3.1,0.8v1.6c0.4-0.3,1.5-1,2.8-1c0.7,0,1.3,0.2,1.3,0.8v0.3c0,0.2,0,0.2-0.3,0.3l-2.2,0.7c-1.7,0.6-2,1.5-2,2.3
		c0,1.2,1,2.1,2.4,2.1c1.2,0,1.9-0.6,2.3-1l0.2,0.8H143.6z M135.9,75.9v-5.5c0-1.3-0.6-2.4-2.1-2.4c-1.1,0-2,0.6-2.6,1v-0.9h-1.8
		v7.7h1.8v-5.6c0.4-0.3,1.2-0.8,2-0.8c0.8,0,0.9,0.6,0.9,1.1v5.3H135.9z M127.6,68.1h-1.8v7.7h1.8V68.1z M127.6,65.1h-1.8V67h1.8
		V65.1z M122,73.9c-0.3,0.3-0.7,0.7-1.6,0.7c-1.3,0-1.6-1.4-1.6-2.5c0-1.5,0.6-2.6,1.7-2.6c0.8,0,1.3,0.5,1.5,0.7V73.9z M123.9,75.9
		V64.9H122v3.9c-0.4-0.3-1-0.9-2.1-0.9c-2,0-3.1,1.9-3.1,4c0,2.1,1,4.1,3,4.1c1.2,0,1.9-0.7,2.2-1l0.2,0.8H123.9z M115.6,75.9v-5.5
		c0-1.3-0.6-2.4-2.1-2.4c-1.1,0-2,0.6-2.6,1v-0.9h-1.8v7.7h1.8v-5.6c0.4-0.3,1.2-0.8,2-0.8c0.8,0,0.9,0.6,0.9,1.1v5.3H115.6z
		 M105,72.1c0.3-0.1,0.4-0.1,0.5-0.2v1.9c-0.7,0.8-1.4,0.9-1.7,0.9c-0.3,0-1-0.2-1-0.9c0-0.6,0.3-0.9,1-1.2L105,72.1z M107.3,75.9
		v-5.2c0-1.5-0.5-2.7-2.9-2.7c-1.6,0-2.6,0.5-3.1,0.8v1.6c0.4-0.3,1.6-1,2.8-1c0.7,0,1.3,0.2,1.3,0.8v0.3c0,0.2,0,0.2-0.3,0.3
		l-2.2,0.7c-1.7,0.6-2,1.5-2,2.3c0,1.2,1,2.1,2.4,2.1c1.2,0,1.9-0.6,2.3-1l0.2,0.8H107.3z M99.9,68.5c-0.3-0.2-1-0.6-2.3-0.6
		c-2.6,0-3.8,1.9-3.8,4c0,2.1,1.1,4,3.7,4c1.3,0,2.1-0.4,2.5-0.6v-1.6c-0.5,0.3-1.2,0.8-2.2,0.8c-2,0-2.2-2.1-2.2-2.6
		c0-1.3,0.7-2.6,2.2-2.6c1,0,1.6,0.5,2,0.8V68.5z M85.2,75.2c0.6,0.3,1.8,0.9,3.6,0.9c2.8,0,4-1.5,4-3.4c0-1.7-0.9-2.5-3.1-3.3
		c-1.6-0.6-2.6-0.9-2.6-1.8c0-0.7,0.6-1.2,1.8-1.2c1.6,0,2.5,0.8,3.1,1.2v-2c-0.5-0.3-1.4-0.8-3.1-0.8c-2.5,0-3.8,1.2-3.8,3
		c0,1.6,1,2.4,2.8,3.1c2,0.8,2.8,1.1,2.8,2.1c0,0.9-0.9,1.4-1.9,1.4c-1.8,0-3.2-0.9-3.7-1.3V75.2z"/>
</g>
<g>
	<path fill="#000099" d="M40.8,83.8c0,0.6,0.5,1.1,1.1,1.1l35.2,0c0.6,0,1.1-0.5,1.1-1.1l0-35.2c0-0.6-0.5-1.1-1.1-1.1l-35.2,0
		c-0.6,0-1.1,0.5-1.1,1.1L40.8,83.8L40.8,83.8z"/>
	<path fill="#FFFFFF" d="M64.3,64.9c-1.2,0-2.9,0-3.2,0c-0.2,0-0.2,0.1-0.2,0.1l-8.7,10.8c-0.1,0.1,0,0.1,0,0.1c0.2,0,1,0,1.3,0
		c0.1,0,0.1,0,0.2-0.1l1.9-2.4c0,0,0,0,0.1,0c0,0,3.1,0,3.1,0s0,0,0,0c0,0-0.5,2.3-0.5,2.3c0,0,0,0.1,0.1,0.1c0.4,0,3.3,0,3.8,0
		c0.1,0,0.1,0,0.1-0.1L64.4,65C64.4,65,64.4,64.9,64.3,64.9L64.3,64.9z M58.9,72.3l-2.5,0c0,0,0,0,0,0c0,0,0,0,0,0l3.3-4.2
		c0,0,0,0,0.1,0c0,0,0,0,0,0L58.9,72.3C59,72.3,59,72.3,58.9,72.3C58.9,72.3,58.9,72.3,58.9,72.3L58.9,72.3z"/>
	<path fill="#FFFFFF" d="M43.7,74.5c0,0.1,0,0.2,0.3,0.4c0.4,0.4,1.8,1.2,3.8,1.2c3.7,0,5.1-2.4,4.6-4.5c-0.1-0.5-0.8-3.4-0.9-3.8
		c-0.3-1.2,0.3-2,1.4-2c0.9,0,1.5,0.4,2.1,0.7c0.1,0.1,0.2,0.1,0.2,0c0-0.1,0.2-0.9,0.2-0.9s0.1-0.2-0.2-0.3c-0.3-0.2-1.2-0.7-3-0.7
		c-3.4,0-4.8,2.2-4.2,4.5c0.2,0.7,0.9,3.5,0.9,4.1c0,0.2,0.1,1.6-1.6,1.6c-1.6,0-2.7-1.1-3.1-1.5c-0.1-0.1-0.1,0-0.2,0.1
		C44,73.5,43.7,74.5,43.7,74.5L43.7,74.5z"/>
	<path fill="#FFFFFF" d="M63.6,74.6c0,0.1,0,0.2,0.3,0.4c0.4,0.4,1.6,1.1,3.7,1.1c3.7,0,5.1-2.4,4.6-4.5c-0.1-0.5-0.8-3.4-0.9-3.8
		c-0.3-1.2,0.3-2,1.4-2c0.9,0,1.5,0.4,2.1,0.7c0.1,0.1,0.2,0.1,0.2,0c0-0.1,0.2-0.9,0.2-0.9s0.1-0.2-0.2-0.3c-0.3-0.2-1.2-0.7-3-0.7
		c-3.4,0-4.8,2.2-4.2,4.5c0.2,0.7,0.9,3.5,0.9,4.1c0,0.2,0.1,1.6-1.6,1.6c-1.6,0-2.7-1.1-3-1.4c-0.1-0.1-0.2-0.1-0.2,0.1
		C63.8,73.5,63.6,74.6,63.6,74.6L63.6,74.6z"/>
</g>
</svg>
